SplineFontDB: 3.2
FontName: NewBaskerville-BoldItalic
FullName: New Baskerville Bold Italic
FamilyName: New Baskerville
Weight: Bold
Copyright: Copyright (c) 2020, Daniel Benjamin Miller\nCopyright (c) 2012, Pablo Impallari (www.impallari.com|impallari@gmail.com), \nCopyright (c) 2012, Rodrigo Fuenzalida (www.rfuenzalida.com|hello :rfuenzalida.com), with Reserved Font Name Libre Baskerville.
Version: 1.00
ItalicAngle: -15.4
UnderlinePosition: -100
UnderlineWidth: 50
Ascent: 800
Descent: 200
InvalidEm: 0
sfntRevision: 0x00010000
LayerCount: 2
Layer: 0 0 "Back" 1
Layer: 1 0 "Fore" 0
XUID: [1021 572 -1837316912 7027818]
StyleMap: 0x0021
FSType: 0
OS2Version: 3
OS2_WeightWidthSlopeOnly: 0
OS2_UseTypoMetrics: 0
CreationTime: 1354221960
ModificationTime: 1586463010
PfmFamily: 17
TTFWeight: 400
TTFWidth: 5
LineGap: 0
VLineGap: 0
Panose: 2 0 0 0 0 0 0 0 0 0
OS2TypoAscent: 970
OS2TypoAOffset: 0
OS2TypoDescent: -270
OS2TypoDOffset: 0
OS2TypoLinegap: 0
OS2WinAscent: 970
OS2WinAOffset: 0
OS2WinDescent: 270
OS2WinDOffset: 0
HheadAscent: 970
HheadAOffset: 0
HheadDescent: -270
HheadDOffset: 0
OS2SubXSize: 700
OS2SubYSize: 650
OS2SubXOff: 0
OS2SubYOff: 140
OS2SupXSize: 700
OS2SupYSize: 650
OS2SupXOff: 0
OS2SupYOff: 477
OS2StrikeYSize: 50
OS2StrikeYPos: 250
OS2CapHeight: 770
OS2XHeight: 530
OS2Vendor: 'pyrs'
OS2CodePages: 00000093.00000000
OS2UnicodeRanges: a00000bf.5000005b.00000000.00000000
Lookup: 4 0 1 "'liga' Standard Ligatures in Latin lookup 0" { "'liga' Standard Ligatures in Latin lookup 0 subtable"  } ['liga' ('latn' <'dflt' > ) ]
Lookup: 4 0 0 "'dlig' Discretionary Ligatures in Latin lookup 1" { "'dlig' Discretionary Ligatures in Latin lookup 1 subtable"  } ['dlig' ('latn' <'dflt' > ) ]
Lookup: 4 0 0 "'frac' Diagonal Fractions in Latin lookup 2" { "'frac' Diagonal Fractions in Latin lookup 2 subtable"  } ['frac' ('latn' <'dflt' > ) ]

StartChar: .notdef
Encoding: 65536 -1 0
Width: 756
Flags: W
HStem: -272.5 86<252.5 502.5> 898.5 84<252.5 502.5>
VStem: 117.5 135<-186.5 898.5> 502.5 136<-186.5 898.5>
LayerCount: 2
Fore
SplineSet
117.5 982.5 m 1
 638.5 982.5 l 1
 638.5 -272.5 l 1
 117.5 -272.5 l 1
 117.5 982.5 l 1
252.5 -186.5 m 1
 502.5 -186.5 l 1
 502.5 898.5 l 1
 252.5 898.5 l 1
 252.5 -186.5 l 1
EndSplineSet
EndChar

StartChar: u
Encoding: 117 117 4
Width: 643
Flags: W
HStem: -10 97<129.935 229.489 402.816 483.31> 439.693 100.307<160.777 259.478>
VStem: 49.251 130.767<58.7834 195.478> 164.729 140.142<384.251 499.604> 337.16 122.104<63.7944 115.238>
LayerCount: 2
Fore
SplineSet
193.31917359 174.70703125 m 0xd8
 184.336538234 150.979492188 180.017599704 129.77734375 180.017599704 111.166015625 c 0
 180.017599704 90.1904296875 185.123806416 87 189.166307654 87 c 0
 194.630936863 87 207.57724153 91.720703125 225.56773846 105.413085938 c 0
 268.719284437 138.25390625 309.623594937 189.290039062 342.707778237 240.075195312 c 0
 362.068899612 269.796875 378.409181527 300.698242188 391.80220045 332.934570312 c 0
 419.438309507 398.622959023 447.073714955 464.312051342 474.710264064 530 c 1
 594.926757812 530 l 1
 553.800511966 408.362885671 507.78571683 277.298810916 469.030160921 156.841796875 c 0
 462.66691012 137.066299574 459.263809276 120.122543033 459.263809276 108.110144018 c 0
 459.263809276 96.0549978797 462.691173651 88.9663690074 469.99359897 88.9663690074 c 0
 477.741878081 88.9663690074 489.85285169 96.9470234072 506.861328125 115.443359375 c 4
 525.709960938 135.943359375 543.974609375 162.193359375 556.288085938 189.258789062 c 2
 561.545898438 200.818359375 l 1
 575.477575171 194.160517879 589.409183175 187.502607654 603.340820312 180.844726562 c 2
 613.57421875 175.955078125 l 1
 609.380859375 165.780273438 l 2
 590.985351562 121.149414062 559.66015625 77.8291015625 527.178710938 46.1513671875 c 0
 501.576171875 21.181640625 460.997713063 -10 407.658979878 -10 c 0
 346.36557967 -10 337.160112732 40.0888671875 337.160112732 87.5 c 0
 337.160112732 96.509765625 337.573192031 107.600585938 338.097687122 115.474609375 c 1
 313.016521094 80.0732421875 286.950481519 51.3134765625 253.485802783 26.69921875 c 0
 224.384208456 5.294921875 191.760403612 -10 146.113564359 -10 c 0
 79.8203125 -10 49.2509765625 30.564453125 49.2509765625 88.0439453125 c 0xe8
 49.2509765625 152.734375 80.2080078125 224.633789062 100.145507812 272.310546875 c 0
 124.23828125 329.924804688 146.413125683 372.10546875 162.720823735 425.934570312 c 0
 164.107708581 430.51300174 164.728550807 433.771841689 164.728550807 435.964820115 c 0
 164.728550807 438.59680023 163.834262121 439.693466122 162.296707175 439.693466122 c 0
 157.836837387 439.693466122 147.964767542 430.466532297 138.806640625 422.717773438 c 0
 123.202148438 408.706054688 101.213867188 385.357421875 73.400390625 353.051757812 c 2
 66.869140625 345.465820312 l 1
 55.1891924488 351.483788803 43.5066625957 357.499175616 31.8251953125 363.515625 c 2
 21 369.091796875 l 1
 26.6484375 379.536132812 l 2
 48.1357421875 419.2734375 82.5712890625 459.534179688 116.46875 488.215820312 c 0
 143.241980016 510.736328125 186.59638682 540 237.600643861 540 c 0
 281.354465764 540 304.87055526 514.041992188 304.87055526 473.1875 c 0
 304.87055526 448.922851562 297.399390725 419.275390625 283.121352031 383.493164062 c 0
 261.46464493 329.220703125 215.912403989 234.385742188 193.31917359 174.70703125 c 0xd8
EndSplineSet
EndChar

StartChar: h
Encoding: 104 104 5
Width: 624
Flags: W
HStem: -10 99.7018<346.224 455.798> 0 21G<-7 105.531> 461.672 78.3277<331.854 455.586> 765.01 64.9902<131.444 204.694>
VStem: 411.183 119.99<331.19 459.427>
LayerCount: 2
Fore
SplineSet
434.028138044 2.408203125 m 0xb8
 412.367639798 -5.728515625 391.5096542 -10 371.533907996 -10 c 0xb8
 320.914767068 -10 303.321381942 11.18359375 303.321381942 40 c 0
 303.321381942 73.892578125 309.479224092 95.6669921875 318.264901775 126.784179688 c 0
 339.667337131 202.583984375 383.977574705 303.189453125 405.235243073 382.4375 c 0
 409.268981546 397.476782005 411.182958 410.565967507 411.182958 421.538589352 c 0
 411.182958 447.55480332 400.423163968 461.672339557 381.646513689 461.672339557 c 0
 369.021204762 461.672339557 352.771364253 455.289606177 333.730841607 441.849609375 c 4
 314.1149148 428.004882812 293.21391872 405.416992188 271.876523605 373.939453125 c 0
 215.027157034 290.071289062 173.486374873 188.8359375 129.677576575 73.9267578125 c 1
 105.53125 8.546875 l 1
 102.681640625 0 l 1
 -7 0 l 1x78
 62.3714126794 223.203860964 132.232691761 445.917855526 201.78832093 668.9375 c 0
 209.272144763 693.818359375 217.384341244 717.734375 217.384341244 739.5 c 0
 217.384341244 748.14453125 214.520472578 752.323242188 205.191394173 755.979492188 c 0
 194.80698541 760.049804688 170.567956328 763.69921875 134.680429933 765.009765625 c 2
 119.331982149 765.5703125 l 1
 122.721253376 783.598122158 126.110164112 801.626292309 129.499240431 819.654296875 c 2
 131.444153437 830 l 1
 379.83283291 830 l 1
 342.667966268 712.853780893 305.502259119 595.708402294 268.337075665 478.5625 c 1
 304.954731214 513.08984375 354.034936123 540 416.650854363 540 c 0
 494.521484375 540 531.172851562 493.559570312 531.172851562 424.89453125 c 0
 531.172851562 402.862304688 527.677734375 377.733398438 520.861328125 349.323242188 c 0
 501.849609375 270.07421875 453.032476781 175.67578125 433.437530697 106.548828125 c 0
 432.504097496 103.259318395 432.073452221 100.527420496 432.073452221 98.2893389467 c 0
 432.073452221 92.11862866 435.34714701 89.7018293187 440.382473759 89.7018293187 c 0
 451.549575166 89.7018293187 471.381122283 101.588663331 483.383789062 110.77734375 c 0
 501.831054688 125.471679688 520.982421875 146.439453125 540.500976562 173.765625 c 2
 547.9375 184.176757812 l 1
 560.682425981 174.617647335 573.427721713 165.058906609 586.172851562 155.5 c 2
 594.868164062 148.978515625 l 1
 589.6171875 139.461914062 l 2
 556.850585938 80.0712890625 502.064453125 28.72265625 434.028138044 2.408203125 c 0xb8
EndSplineSet
EndChar

StartChar: l
Encoding: 108 108 6
Width: 338
Flags: W
HStem: -10 107.924<77.7007 169.176> 765 54.5371<132.773 197.964> 809.831 20G<311.619 324.886>
VStem: 23 124.966<36.5042 187.842>
LayerCount: 2
Fore
SplineSet
159.830078125 5.943359375 m 0xb0
 140.262695312 -4.375 121.487304688 -10 103.5 -10 c 0
 51.9013671875 -10 23 13.6318359375 23 64.796875 c 0
 23 78.8408203125 25.115234375 96.724609375 29.1904296875 119.010742188 c 0
 33.2939453125 141.454101562 40.306640625 171.381835938 50.4111328125 209.740234375 c 2
 183.447265625 681.813476562 l 2
 188.358398438 699.493164062 198 728.544921875 198 742.5 c 0
 198 753.00390625 185.943359375 764.775390625 135.196289062 765 c 2
 118.229492188 765 l 1
 132.7734375 819.537109375 l 1xd0
 196.810686663 822.68670917 260.848340366 825.835904426 324.885742188 828.985351562 c 2
 342.087890625 829.831054688 l 1
 281.149951822 612.336376303 219.666793967 395.386916971 158.524414062 178.096679688 c 0
 151.419047025 154.920025365 147.965517811 136.151364047 147.965517811 122.616651416 c 0
 147.965517811 106.610235643 152.795585788 97.923962944 162.127719561 97.923962944 c 0
 192.410659719 97.923962944 242.878012095 172.630033891 257.526367188 199.485351562 c 2
 263.609375 210.638671875 l 1
 277.294030388 202.884199658 290.978521505 195.129563171 304.663085938 187.375 c 2
 314.500976562 181.80078125 l 1
 309.936523438 171.454101562 l 2
 279.858398438 103.276367188 223.88671875 39.7177734375 159.830078125 5.943359375 c 0xb0
EndSplineSet
EndChar

StartChar: r
Encoding: 114 114 7
Width: 513
Flags: W
HStem: 0 21G<31.207 154.263> 438 112<400.037 498.481>
LayerCount: 2
Fore
SplineSet
470.234375 550 m 0
 513.551757812 550 550.734375 517.943359375 550.734375 473.5 c 0
 550.734375 432.626953125 520.634765625 401 479.234375 401 c 0
 445.260742188 401 427.663760073 423.127929688 413.946992939 435.661132812 c 0
 412.132198596 437.319335938 410.610250926 438 407.204037988 438 c 0
 399.509865742 438 386.201373897 432.755859375 368.817610656 417.446289062 c 0
 324.863890197 378.735351562 287.923526908 319.110351562 256.065229049 257.866210938 c 0
 236.946830227 221.114257812 219.447638371 181.561523438 203.51207674 139.032226562 c 2
 154.262534156 8.625 l 1
 151.184437745 -0 l 1
 31.20703125 0 l 1
 54.5777224523 70.3965614017 77.9471719607 140.794364497 101.317382812 211.19140625 c 0
 121.666015625 271.973632812 137.72265625 315.529296875 153.201232164 367.186523438 c 0
 159.54803221 387.951704652 162.262523503 402.713725125 162.262523503 412.692365325 c 0
 162.262523503 425.052751208 158.097573576 430.073810063 151.51204253 430.073810063 c 0
 129.509963626 430.073810063 80.489120962 374.028258848 69.5009765625 348.390625 c 5
 21 372.641601562 l 1
 25.79296875 383.534179688 l 2
 43.3681640625 423.477539062 79.8330078125 461.723632812 111.858398438 487.70703125 c 0
 139.764425362 510.347262877 183.967846108 540 227.716816126 540 c 0
 282.522964003 540 291.741221485 494.041015625 291.741221485 451.5 c 0
 291.741221485 446.685546875 291.595866933 440.515625 291.474025616 437.3828125 c 1
 324.055889889 479.60546875 367.339483108 513.614257812 413.580400207 535.137695312 c 0
 434.002929688 544.788085938 452.426757812 550 470.234375 550 c 0
EndSplineSet
EndChar

StartChar: o
Encoding: 111 111 8
Width: 573
Flags: W
HStem: -10 50<172.261 264.083> 468 72<290.105 392.361>
VStem: 24 131.055<91.1553 260.193> 404.895 121.105<258.942 443.277>
LayerCount: 2
Fore
SplineSet
432.7890625 105.477539062 m 0
 385.408905113 48.6295761731 301.660973057 -10 205.35443038 -10 c 0
 110.97265625 -10 60.53515625 46.4384765625 37.689453125 109.474609375 c 0
 28.4912109375 134.85546875 24 163.150390625 24 194.217773438 c 0
 24 290.491210938 67.9287109375 375.231445312 115.81640625 431.34375 c 0
 162.000840585 483.446289062 239.965618407 540 342.434599156 540 c 0
 437.895507812 540 489.41015625 486.962890625 512.790039062 423.44921875 c 0
 521.651367188 399.37890625 526 372.96484375 526 344.391601562 c 0
 526 248.77734375 479.962890625 162.298828125 432.7890625 105.477539062 c 0
387.105270965 270.666992188 m 0
 399.007589992 311.775390625 404.894514768 350.708984375 404.894514768 387.5 c 0
 404.894514768 444.953125 389.646591508 468 342.434599156 468 c 0
 307.778068961 468 278.853004681 441.305664062 257.361896756 415.059570312 c 0
 213.066917194 360.967773438 178.040092629 285.723632812 162.591368341 204.87109375 c 0
 157.552989847 178.5 155.054852321 153.377929688 155.054852321 129.5 c 0
 155.054852321 93.2060546875 162.029989122 69.748046875 172.01714135 58.2041015625 c 0
 182.991025514 45.5205078125 195.473076543 40 211.987341772 40 c 0
 231.996192642 40 253.424685193 49.216796875 276.62476101 71.1435546875 c 0
 326.055280854 117.859375 364.760218882 193.490234375 387.105270965 270.666992188 c 0
EndSplineSet
Substitution2: "Single Substitution lookup 7 subtable" ordmasculine
EndChar

StartChar: p
Encoding: 112 112 9
Width: 613
Flags: W
HStem: -250 64.998<-85.25 -5.16805 136.32 224.844> 465 74<332.913 410.422>
VStem: 447.462 129.553<254.379 426.495>
LayerCount: 2
Fore
SplineSet
1.54296875 -147.905273438 m 2
 182.943659064 422.518554688 l 1
 139.456418556 397.883789062 101.294950126 368.229492188 68.1296322231 335.905273438 c 2
 58.5861554782 326.603515625 l 1
 45.8317002644 338.650239841 33.2038452128 350.82356422 20.5166015625 362.9375 c 2
 12.5185546875 370.981445312 l 1
 20.1357421875 379.366210938 l 1
 69.9270025582 431.319335938 137.146994619 477.916992188 209.895921725 506.37890625 c 1
 226.844595445 559.273220963 243.96462318 611.996181663 260.803793276 665 c 1
 368.613880466 665 l 1
 356.525834118 621.717237714 344.435270992 578.436992206 332.346181126 535.155273438 c 1
 348.116188207 537.4609375 363.492307902 539 381.12291461 539 c 0
 503.4609375 539 577.014648438 472.032226562 577.014648438 358.4375 c 0
 577.014648438 255.9296875 517.69140625 179.852539062 457.252929688 128.85546875 c 0
 387.85113309 73.673828125 288.023484741 29.4443359375 179.403855319 14.4521484375 c 1
 167.031044241 -27.7289911861 154.649098914 -69.9009965601 142.282042278 -112.087890625 c 0
 136.722161536 -127.760403404 134.342101813 -136.082644989 134.342101813 -151.5 c 0
 134.342101813 -180.373046875 161.054922405 -183.93359375 220.041631552 -185.001953125 c 2
 235.149285898 -185.276367188 l 1
 232.279936257 -203.302908888 229.409612871 -221.328476843 226.539736876 -239.354492188 c 2
 224.843948024 -250 l 1
 -95 -250 l 1
 -92.2820502784 -231.882012221 -89.5644426273 -213.763682372 -86.8466796875 -195.645507812 c 2
 -85.25 -185 l 1
 -74.4853515625 -185 l 2
 -23.1640625 -185 -7.85546875 -178.447265625 1.54296875 -147.905273438 c 2
424.769783163 247.172851562 m 0
 439.933410979 278.603515625 447.461842781 311.248046875 447.461842781 345.5 c 0
 447.461842781 414.178710938 414.711143179 465 353.52592049 465 c 0
 338.993549038 465 323.624685163 463.272460938 311.060714095 461.450195312 c 1
 199.025666417 65.3994140625 l 1
 304.513891121 92.2802734375 383.911222684 162.487304688 424.769783163 247.172851562 c 0
EndSplineSet
EndChar

StartChar: d
Encoding: 100 100 10
Width: 648
Flags: W
HStem: -10 105.886<402.72 507.113> -10 90<110.099 233.314> 462 78<296.945 393.107> 765 65<424.36 507.587>
VStem: 11 122.134<91.3273 248.005>
LayerCount: 2
Fore
SplineSet
350.240792979 540 m 0x78
 393.537603583 540 416.380201911 526.220380719 436.838155694 502.467773438 c 1
 491.057619024 682.969726562 l 2
 499.314363646 709.08984375 507.603405945 730.2734375 507.603405945 750.5 c 0
 507.603405945 759.700195312 485.444074541 765.016601562 436.954844072 765.016601562 c 0
 432.244592661 765.016601562 427.502043573 765 422.787624719 765 c 2
 405.289577283 765 l 1
 424.359792244 830 l 1
 649.88671875 830 l 1
 611.68073982 693.962489346 572.961319049 558.438420535 534.5625 422.59375 c 0
 510.669601456 341.1015625 491.498326024 276.337890625 473.666883221 205.036132812 c 0
 465.157507335 171.008552877 461.554880272 145.993907026 461.554880272 128.562719179 c 0
 461.554880272 105.703972079 467.750292185 95.8864433036 477.200119827 95.8864433036 c 0
 498.307433434 95.8864433036 535.651200844 144.866618453 556.458007812 206.903320312 c 6
 560.256835938 218.297851562 l 1
 576.631351571 214.419437508 593.006186014 210.541342264 609.380859375 206.663085938 c 2
 622.802734375 203.484375 l 1
 618.322265625 190.439453125 l 2
 595.368164062 123.602539062 570.134765625 73.751953125 541.42578125 40.7900390625 c 0
 511.555182898 7.8125 475.213004233 -10 434.523141618 -10 c 0xb8
 370.916515002 -10 341.172439012 34.3447265625 341.172439012 91.5 c 0
 341.172439012 93.947265625 341.313090182 97.4365234375 341.406857629 99.1357421875 c 1
 299.750764305 45.9098159444 225.773414377 -10 145.402679831 -10 c 0
 75.5283203125 -10 37.8408203125 38.7333984375 21.1416015625 86.6533203125 c 0
 14.3203125 106.2265625 11 127.778320312 11 151.173828125 c 0
 11 219.114257812 36.0966796875 280.913085938 63.001953125 328.552734375 c 0
 94.2373046875 383.856445312 138.518065514 437.272460938 189.54526821 476.391601562 c 0
 228.975521456 506.620117188 282.675096386 540 350.240792979 540 c 0x78
362.857723878 273.78515625 m 0
 380.601650397 314.57421875 397.716293162 363.75390625 397.716293162 411.786132812 c 0
 397.716293162 445.762695312 386.671529788 462 357.708849188 462 c 0
 342.103862317 462 325.948773091 457.708984375 308.747655903 448.286132812 c 0
 247.055968923 414.494140625 200.458757158 348.942382812 169.47590901 282.502929688 c 0
 150.652614992 242.137695312 133.133730345 192.4609375 133.133730345 142.415039062 c 0
 133.133730345 104.467773438 154.05324773 80 190.211017082 80 c 0x78
 202.864413099 80 216.719074296 84.4169921875 232.211540231 94.923828125 c 0
 289.189850219 133.5625 333.063638583 205.297851562 362.857723878 273.78515625 c 0
EndSplineSet
EndChar

StartChar: b
Encoding: 98 98 11
Width: 584
Flags: W
HStem: -10 76<156.264 249.566> 461 78<320.205 412.318> 765 54.5713<142.071 212.723> 809.837 20G<360.893 361.95>
VStem: 28 120<70.8175 234.081> 424.609 124.391<294.269 450.618>
LayerCount: 2
Fore
SplineSet
357.354347229 53.29296875 m 0xdc
 311.462882996 21.8359375 248.443050385 -10 172.697265625 -10 c 0
 90.0361328125 -10 28 43.30859375 28 121.741210938 c 0
 28 140.106445312 31.8720703125 164.350585938 39.322265625 195.399414062 c 0
 46.7578125 226.389648438 57.529296875 263.233398438 71.5751953125 305.836914062 c 2
 196.852134705 682.025390625 l 2
 202.09601593 699.221679688 212.76171875 728.6796875 212.76171875 742.5 c 0
 212.76171875 752.728515625 199.8996315 765 142.5 765 c 2
 125.69921875 765 l 1
 142.071289062 819.571289062 l 1xec
 215.314875193 822.758856547 288.665767691 825.839117665 361.949710846 828.986328125 c 2
 381.868312836 829.836914062 l 1
 339.917174752 713.971315289 297.963117193 598.108635991 256.010875702 482.244140625 c 1
 293.599170685 515.014648438 344.806335449 539 407.595703125 539 c 0
 500.900390625 539 549 476.983398438 549 391.229492188 c 0
 549 318.875 523.604492188 254.076171875 494.978515625 203.787109375 c 0
 462.206054688 146.215820312 414.290977478 92.3212890625 357.354347229 53.29296875 c 0xdc
413.503108978 325.633789062 m 0
 420.949806213 350.849609375 424.609375 374.493164062 424.609375 396.577148438 c 0
 424.609375 431.712890625 404.319885254 461 377.958984375 461 c 0
 365.356304169 461 350.488636017 456.912109375 333.274513245 447.368164062 c 0
 293.484474182 425.30859375 259.422828674 387.083984375 231.027404785 347.6171875 c 0
 200.766822815 305.557617188 173.589111328 254.639648438 158.585308075 201.934570312 c 0
 151.492347717 177.017578125 148 153.5 148 131.36328125 c 0
 148 81.212890625 164.344787598 66 190.259765625 66 c 0
 203.742500305 66 219.160068512 70.154296875 236.692554474 79.6875 c 0
 277.68315506 101.975585938 312.044940948 138.958007812 341.059940338 178.950195312 c 0
 372.061225891 221.6796875 397.63640213 271.903320312 413.503108978 325.633789062 c 0
EndSplineSet
EndChar

StartChar: q
Encoding: 113 113 12
Width: 585
Flags: W
HStem: -250 64.9971<144.494 231.531 366.558 441.781> -10 85<155.436 252.86> 463 77<287.592 378.27>
VStem: 15 129.782<83.9485 264.332> 466.53 101.308<487.628 540>
LayerCount: 2
Fore
SplineSet
373.619742322 -129.8203125 m 0
 368.657784776 -146.126953125 366.499996607 -157.397460938 366.499996607 -161.5 c 0
 366.499996607 -180.37109375 386.005000631 -183.961914062 436.903540543 -185.002929688 c 2
 451.966796875 -185.318359375 l 1
 449.296811351 -203.477368414 446.340095401 -221.349647027 443.515945999 -239.354492188 c 2
 441.780587585 -250 l 1
 133.985351562 -250 l 1
 136.804833345 -231.776869157 139.828196303 -213.757619488 142.758697253 -195.645507812 c 2
 144.494055667 -185 l 1
 156.193661661 -185 l 2
 211.972432759 -185 228.61064591 -178.44921875 238.825379475 -147.903320312 c 2
 299.812348579 43.498046875 l 1
 266.069975889 11.716796875 220.261820658 -10 160.541079438 -10 c 0
 58.603515625 -10 15 63.7060546875 15 157.869140625 c 0
 15 260.162109375 62.46875 353.200195312 111.532226562 415.21484375 c 0
 140.722967933 451.533203125 175.868486692 481.359375 214.906090653 504.484375 c 0
 254.35020365 527.849609375 295.127411551 540 336.611499393 540 c 0
 391.869132276 540 423.854918925 517.069335938 448.077148438 485.408203125 c 1
 454.228175566 503.605483289 460.379401795 521.802564351 466.530273438 540 c 1
 567.837890625 540 l 1
 503.315723978 316.509346379 438.320005408 93.492244682 373.619742322 -129.8203125 c 0
391.497648823 372.341796875 m 0
 391.497648823 440.67578125 371.120189376 463 342.045771614 463 c 0
 323.732698782 463 302.822425926 454.818359375 279.161052758 435.254882812 c 0
 228.798510399 393.614257812 187.692274297 328.07421875 163.781476526 258.60546875 c 0
 151.058698965 221.642578125 144.781689997 186.607421875 144.781689997 153.4453125 c 0
 144.781689997 94.330078125 163.802704152 75 194.233567207 75 c 0
 213.777842339 75 235.096746993 82.75 258.597851585 100.708984375 c 0
 308.823475757 139.08984375 348.742026192 202.325195312 372.53501064 269.165039062 c 0
 385.225946762 304.817382812 391.497648823 339.1796875 391.497648823 372.341796875 c 0
EndSplineSet
EndChar

StartChar: j
Encoding: 106 106 13
Width: 349
Flags: W
HStem: -260 85<-109.213 -7.71458> 520 20G<233.241 263.657> 679 151<221.967 327.565>
VStem: 160.961 145.039<358.566 499.894> 197.202 153.798<702.553 804.922>
LayerCount: 2
Fore
SplineSet
274.5 830 m 0xe8
 317.487304688 830 351 795.712890625 351 753.5 c 0
 351 711.67578125 315.341796875 679 274.5 679 c 0
 233.875976562 679 197.202166065 710.578125 197.202166065 752.5 c 0
 197.202166065 793.91796875 232.008789062 830 274.5 830 c 0xe8
-82.5 -260 m 4
 -135.92578125 -260 -191 -228.557617188 -191 -171.5 c 4
 -191 -134.116210938 -170.813476562 -100 -129.5 -100 c 4
 -79.154296875 -100 -69.1889454535 -150.581054688 -56.6329394179 -169.500976562 c 4
 -53.9083723488 -173.606445312 -51.4393332581 -175 -45.3790613718 -175 c 4
 -13.6531334612 -175 7.96772760605 -136.241210938 18.8180843863 -97.431640625 c 6
 139.836134928 329.811523438 l 6
 147.102711812 354.826171875 152.684933439 375.17578125 156.636034804 391.028320312 c 4
 159.626472491 403.025807251 160.961291752 411.874234423 160.961291752 418.136194032 c 0
 160.961291752 427.117357987 158.215502567 430.778030341 153.670379954 430.778030341 c 0
 145.228381876 430.778030341 130.578966548 418.149286619 115.786693366 403.52734375 c 4
 102.455585796 390.349609375 85.3969638425 371.075195312 78.0164640681 358.045898438 c 6
 71.3344074346 346.250976562 l 5
 56.563466335 354.342414186 41.7932058431 362.434532417 27.0226618908 370.526367188 c 6
 16.0754174188 376.5234375 l 5
 22.2453533958 386.505859375 l 6
 56.0857753272 441.263671875 114.792263651 493.734375 178.239860672 523.665039062 c 4
 200.785945961 534.299804688 222.98280968 540 243.5 540 c 4
 283.813476562 540 306 514.732421875 306 474.403320312 c 4xf0
 306 451.741210938 301.272460938 423.220703125 292.126953125 388.1875 c 4
 283.092773438 353.583007812 271.565429688 311.991210938 257.549804688 263.418945312 c 6
 169.449698218 -24.841796875 l 6
 141.985764046 -115.108398438 80.7942661327 -196.109375 -0.440207581227 -238.842773438 c 4
 -26.9650764328 -252.796875 -54.8591493682 -260 -82.5 -260 c 4
EndSplineSet
EndChar

StartChar: c
Encoding: 99 99 14
Width: 491
Flags: W
HStem: -10 84<163.755 268.713> 468 72<285.774 389.449>
VStem: 14 131.244<91.6122 272.571>
LayerCount: 2
Fore
SplineSet
164.366993159 269.14453125 m 0
 151.593662547 232.213867188 145.243781095 195.568359375 145.243781095 159.100585938 c 0
 145.243781095 108.700195312 165.926189366 74 209.895522388 74 c 0
 239.27648865 74 264.692484841 90.8779296875 287.217379897 108.407226562 c 0
 317.431747512 131.919921875 344.592506219 164.248046875 364.397460938 199.243164062 c 1
 370.385742188 210.819335938 l 1
 385.825191854 201.998043417 401.263361843 193.175471217 416.702148438 184.353515625 c 2
 427.018554688 178.458007812 l 1
 421.653320312 167.856445312 l 2
 375.07181718 75.8025224543 297.629691795 -10 173.915422886 -10 c 0
 70.5615234375 -10 14 64.201171875 14 157.869140625 c 0
 14 225.702148438 37.7197265625 286.575195312 63.3720703125 334.533203125 c 0
 105.338867188 412.9921875 174.836666278 486.171875 271.006131452 523.15625 c 0
 299.899574394 534.266601562 328.718351601 540 357.189054726 540 c 0
 420.116210938 540 480 501.727539062 480 436.5 c 0
 480 398.838867188 454.594726562 368 415.5 368 c 0
 379.811523438 368 349.880597015 394.448242188 349.880597015 430.5 c 0
 349.880597015 450.390625 358.666997046 460.984375 358.878915967 466.315429688 c 0
 356.849764848 467.157226562 352.907853312 468 345.945273632 468 c 0
 325.816270211 468 304.013875933 460.166992188 280.081312189 441.91796875 c 0
 228.435682914 402.537109375 188.164499767 337.94921875 164.366993159 269.14453125 c 0
EndSplineSet
EndChar

StartChar: e
Encoding: 101 101 15
Width: 506
Flags: W
HStem: -10 80<157.264 277.087> 468 72<290.998 403.278>
VStem: 14 123.35<88.4756 204.788> 374 119<379.711 467.61>
LayerCount: 2
Fore
SplineSet
119.875976562 416.5859375 m 0
 175.411183756 476.800944729 266.015289923 540 371.324766355 540 c 0
 432.89453125 540 493 507.080078125 493 445.525390625 c 0
 493 420.348632812 483.09375 395.154296875 464.727539062 370.337890625 c 0
 401.573049578 285.00352537 269.785680568 230.281800704 140.418457031 204.12890625 c 1
 138.433479666 190.379882812 137.35046729 176.879882812 137.35046729 161.625976562 c 0
 137.35046729 95.03515625 162.351366275 70 209.385514019 70 c 0
 233.171432353 70 258.768915194 78.306640625 286.560779607 96.576171875 c 0
 314.357006608 114.848632812 340.677588347 140.373046875 365.293488975 173.43359375 c 2
 372.981459003 183.759765625 l 1
 387.107365998 174.49016937 401.232758442 165.220058566 415.358398438 155.950195312 c 2
 425.45703125 149.323242188 l 1
 419.178710938 139.002929688 l 1
 358.274085499 41.4267578125 274.226653768 -10 173.647196262 -10 c 0
 65.396484375 -10 14 59.15234375 14 157.869140625 c 0
 14 262.859375 66.740234375 355.263671875 119.875976562 416.5859375 c 0
374 438.5 m 0
 374 462.40234375 366.913099628 468 349.738682827 468 c 0
 333.867589077 468 316.03660284 462.634765625 296.794319509 450.328125 c 0
 235.583943305 411.1796875 187.976115289 336.70703125 159.917042385 260.043945312 c 1
 245.628801292 284.606445312 319.023884711 326.2421875 356.995847328 385.241210938 c 0
 368.630868502 403.3203125 374 420.907226562 374 438.5 c 0
EndSplineSet
EndChar

StartChar: f
Encoding: 102 102 16
Width: 384
Flags: W
HStem: -260 85<-112.213 -14.1822> 431.047 68.4873<80.1123 160.112 302.173 386.904> 760 70<397.836 459.092>
VStem: 464.463 126.537<680.167 758.825>
LayerCount: 2
Fore
SplineSet
442.177884615 830 m 0
 508.466796875 830 591 802.204101562 591 731.5 c 0
 591 696.552734375 569.58984375 664 530.5 664 c 0
 488.834960938 664 471.123046875 691.419921875 464.462824895 721.950195312 c 0
 458.84374061 747.682617188 454.662691556 760 432.745192308 760 c 0
 423.795597957 760 413.316875751 755.505859375 401.050076998 742.602539062 c 0
 369.452195388 709.361328125 347.343299279 654.018554688 328.950777494 595.887695312 c 0
 319.285747822 566.422851562 310.133497972 533.350585938 302.172616812 499.534179688 c 1
 337.965535482 499.534179688 373.758454152 499.534179688 409.551372822 499.534179688 c 1
 386.904109075 431.046875 l 1
 352.842973758 431.046875 318.781838442 431.046875 284.720703125 431.046875 c 1
 188.670184796 76.49609375 l 2
 170.387178861 10.484375 152.117478591 -43.43359375 133.617487981 -85.673828125 c 0
 115.126708984 -129.439453125 95.0822378305 -164.329101562 72.9498009315 -190.372070312 c 0
 34.8434025691 -235.215820312 -10.4552189754 -260 -85.5 -260 c 0
 -138.92578125 -260 -194 -228.557617188 -194 -171.5 c 0
 -194 -134.393554688 -171.703125 -105 -132.5 -105 c 0
 -84.24609375 -105 -77.1962890625 -153.694335938 -66.6153564453 -169.7890625 c 0
 -65.1363807091 -172.0078125 -61.3381253756 -175 -49.3701923077 -175 c 0
 -19.8971228966 -175 2.09202223558 -135.578125 12.3568303035 -97.3828125 c 2
 160.112135667 434.267578125 l 1
 126.435499925 434.267578125 92.7588641827 434.267578125 59.0822284405 434.267578125 c 1
 80.1123422476 503.2265625 l 1
 113.185787886 503.2265625 146.259233524 503.2265625 179.332679162 503.2265625 c 1
 205.459885817 600.173828125 236.05063101 682.369140625 288.063495343 747.440429688 c 0
 322.837336614 792.231445312 368.220909706 830 442.177884615 830 c 0
EndSplineSet
EndChar

StartChar: g
Encoding: 103 103 17
Width: 600
Flags: W
HStem: -260 70<79.2841 308.59> -19 20G<0.896973 44.0034> 445 95<490.956 572.992> 476 65<270.029 356.851>
VStem: -75 114<-156.829 -54.6533> 18 144.112<72.8179 131.313> 61.8811 125.553<232.025 367.53> 371.015 126.608<293.349 440.417> 374.181 108.672<-141.184 -46.0029>
LayerCount: 2
Fore
SplineSet
511.866740088 445 m 0xe2
 500.976067766 445 500.880246335 443.959960938 490.543895839 437.159179688 c 1
 496.312758122 420.125 497.623348018 408.265625 497.623348018 386.854492188 c 0
 497.623348018 240.373046875 397.372494063 149.938476562 243.864500878 139.654296875 c 0
 210.810228524 137.185546875 187.372100427 133.28515625 175.347026002 129.080078125 c 0
 163.529049508 124.947265625 162.112334802 121.229492188 162.112334802 117.399414062 c 0xe5
 162.112334802 98.6689453125 196.059910173 89.8193359375 234.93353137 82.6474609375 c 0
 312.934236905 68.2568359375 403.830652447 59.9580078125 455.451614985 11.64453125 c 0
 474.023456859 -6.740234375 482.852422907 -31.505859375 482.852422907 -60.5 c 0
 482.852422907 -129.44921875 447.113089809 -176.734375 401.862706928 -207.19140625 c 0
 349.761606897 -242.259765625 276.412877289 -260 190.071585903 -260 c 0
 82.7526134877 -260 -11.2626953125 -235.25 -55.306640625 -171.073242188 c 0
 -68.3876953125 -152.01171875 -75 -130.15234375 -75 -106.5 c 0
 -75 -45.626953125 -29.7060546875 1 31.5 1 c 0
 56.5068144273 1 70.9490617256 -5.6123046875 90.1803198995 -14.189453125 c 2
 117.281299473 -26.27734375 l 1
 89.5755115123 -37.0625 l 2
 54.9468827437 -50.54296875 39 -74.0283203125 39 -112.5 c 0xe880
 39 -167.362304688 110.228636082 -190 193.236784141 -190 c 0
 267.651913546 -190 333.717184058 -166.954101562 362.683075354 -131.365234375 c 0
 370.954628562 -121.203125 374.18061674 -112.401367188 374.18061674 -104.5 c 0
 374.18061674 -91.4287109375 366.350048183 -78.1767578125 344.670706997 -64.376953125 c 0
 323.35713579 -50.80859375 291.754609633 -39.94140625 250.017679223 -32.8076171875 c 0
 172.80724291 -20.0517578125 115.607000275 -5.333984375 77.7049877822 12.2763671875 c 0
 39.2939453125 29.4560546875 18 55.802734375 18 89.8330078125 c 0xe480
 18 112.138671875 28.8642578125 131.466796875 48.4670872625 146.01171875 c 0
 65.7726437741 158.295898438 95.3701322446 170.31640625 130.541749122 180.859375 c 1
 84.9204445725 215.819335938 61.8810572687 259.612304688 61.8810572687 311.358398438 c 0
 61.8810572687 381.331054688 98.6517586729 436.673828125 140.273291231 473.182617188 c 0
 182.890130266 510.564453125 247.236797047 541 326.175110132 541 c 0xd2
 376.970771958 541 421.514342993 524 456.69626325 492.568359375 c 1
 488.608921135 523.548828125 519.843616637 540 551.5 540 c 0
 594.484375 540 644 509.606445312 644 462.5 c 0
 644 429.213867188 617.786132812 403 584.5 403 c 0
 547.997070312 403 535.143554688 432.600585938 524.813476562 441.553710938 c 0
 522.570921238 443.432617188 518.884371989 445 511.866740088 445 c 0xe2
274.601543141 458.495117188 m 0
 227.866443248 420.659179688 187.433920705 346.260742188 187.433920705 263.5 c 0
 187.433920705 220.305664062 209.822134413 191 248.100220264 191 c 0
 282.822609788 191 311.099204983 223.663085938 330.101728128 254.330078125 c 0
 352.892803982 291.111328125 371.015418502 344.55078125 371.015418502 401.5 c 0
 371.015418502 445.638671875 350.770307768 476 315.624449339 476 c 0xd3
 303.53549396 476 289.982428328 470.947265625 274.601543141 458.495117188 c 0
EndSplineSet
EndChar

StartChar: k
Encoding: 107 107 18
Width: 563
Flags: W
HStem: -10 115<342.446 418.023> 0 21G<-1 118.318> 448 93<313.783 432.834> 765 54.5557<120.039 198.257> 810.848 20G<350.041 351.732>
VStem: 389.659 126.15<386.94 480.801>
LayerCount: 2
Fore
SplineSet
265.979676173 483.478515625 m 1x2c
 303.949470473 521.266601562 349.989787121 541 402.270408138 541 c 0
 463.3984375 541 515.809570312 510.923828125 515.809570312 450.678710938 c 0
 515.809570312 416.918945312 498.057617188 384.397460938 465.6953125 353.461914062 c 0
 433.271484375 322.466796875 387.433755191 295.000976562 325.74823406 270.64453125 c 2
 308.932503977 263.951171875 l 1
 360.274991026 149.345703125 l 2
 375.035608001 114.336914062 389.686990199 105 397.883882191 105 c 0
 408.44140625 105 434.357421875 124.133789062 470.1015625 174.713867188 c 2
 476.489257812 183.75390625 l 1
 488.405507146 177.338449854 500.320718603 170.921955583 512.236328125 164.505859375 c 2
 522.71484375 158.86328125 l 1
 517.592773438 148.120117188 l 2
 469.470703125 47.197265625 417.487304688 -10 352.921991233 -10 c 0xac
 331.970332633 -10 313.343661295 -2.7919921875 299.475128333 11.078125 c 0
 286.163478547 24.3916015625 273.385151496 45.560546875 259.156786327 75.6083984375 c 2
 191.108874901 223.790039062 l 1
 185.588234945 221.501953125 l 1
 118.318359375 9.029296875 l 1
 115.708984375 0 l 1
 -1 0 l 1
 66.9700677565 236.1566981 135.50453626 471.748995452 203.686938194 707.693359375 c 0
 208.642127539 725.124023438 210.908213697 737.409179688 210.908213697 741.5 c 0
 210.908213697 751.087890625 207.78538419 755.120117188 198.746741857 758.373046875 c 0
 188.567559942 762.037109375 161.861798823 765 121.532747526 765 c 2
 103.966796875 765 l 1
 110.024412703 783.209031239 115.9361111 801.719054704 122.456959413 819.555664062 c 1x74
 198.318265089 823.032006135 274.179799894 826.508119079 350.041191722 829.984375 c 2
 368.882048897 830.84765625 l 1
 334.580971825 715.058228872 300.280517996 599.268178252 265.979676173 483.478515625 c 1x2c
318.143565908 433.84375 m 0
 268.386054055 401.29296875 227.857809929 339.346679688 204.999897376 275.883789062 c 1
 275.092212619 300.88671875 340.931868063 336.634765625 375.512171489 383.93359375 c 0
 385.478238497 397.565429688 389.65914604 409.36328125 389.65914604 419.5 c 0
 389.65914604 440.993164062 381.470821481 448 358.405148667 448 c 0
 346.744871687 448 333.417157963 443.834960938 318.143565908 433.84375 c 0
EndSplineSet
EndChar

StartChar: s
Encoding: 115 115 19
Width: 431
Flags: W
HStem: -10 69<115.363 206.08> 472 68<215.528 310.936>
VStem: -13 124.584<61.7711 153.926> 77 130.052<367.968 457.827> 221.013 122.987<81.6983 185.452>
LayerCount: 2
Fore
SplineSet
77 382.2578125 m 0xd8
 77 483.32952698 170.013579574 540 279.764705882 540 c 0
 341.153320312 540 405 506.796875 405 441.5 c 0
 405 408.428710938 383.499023438 384 349.5 384 c 0
 310.278320312 384 296.884765625 414.158203125 287.993164062 435.118164062 c 0
 277.369740605 457.631835938 272.019697202 472 253.006535948 472 c 0
 227.373136234 472 207.052287582 449.627929688 207.052287582 421.137695312 c 0xd8
 207.052287582 402.624023438 213.575954861 385.650390625 227.198171977 369.380859375 c 0
 258.824665543 331.608398438 297.745117188 292.66015625 323.05859375 246.998046875 c 0
 337.157226562 221.564453125 344 191.96875 344 158.747070312 c 0
 344 106.213867188 316.717773438 65.6611328125 286.455078125 39.2392578125 c 0
 251.333014195 12.703125 198.117749183 -10 134.339869281 -10 c 0
 59.5693359375 -10 -13 21.9208984375 -13 96.5 c 0
 -13 135.061523438 6.912109375 171 49.5 171 c 0
 86.46875 171 106.649414062 142.9140625 111.584290748 100.715820312 c 0xe8
 115.678908803 63.1767578125 113.937219158 59 144.810457516 59 c 0
 193.748187296 59 221.013071895 82.58984375 221.013071895 124.03125 c 0
 221.013071895 147.345703125 213.98950674 167.393554688 200.067350899 185.002929688 c 0
 169.488370609 223.680664062 129.040951797 259.549804688 98.8095703125 302.056640625 c 0
 84.142578125 325.032226562 77 352.026367188 77 382.2578125 c 0xd8
EndSplineSet
EndChar

StartChar: t
Encoding: 116 116 20
Width: 415
Flags: W
HStem: -10 105.627<90.502 196.327> 431.748 67.9492<73.043 138.667 303.338 390.762>
VStem: 38 126.676<39.4072 176.664>
LayerCount: 2
Fore
SplineSet
254.40646481 45.8701171875 m 0
 219.11353774 22.095703125 167.055990397 -10 116.5 -10 c 0
 64.50390625 -10 38 14.1181640625 38 64.6962890625 c 0
 38 78.916015625 40.490234375 96.859375 45.2568359375 119.172851562 c 0
 50.0458984375 141.590820312 58.0732421875 171.53125 69.5107421875 209.7890625 c 2
 138.666992188 430.46875 l 1
 110.103841146 430.46875 81.5406901043 430.46875 52.9775390625 430.46875 c 1
 73.04296875 498.900390625 l 1
 102.271417524 498.900390625 131.499866298 498.900390625 160.728315072 498.900390625 c 1
 181.995405137 554.295251993 203.495872045 609.456736516 224.614559994 665 c 1
 355.337890625 665 l 1
 338.322505446 609.581140388 320.625024338 554.844376704 303.337890625 499.697265625 c 1
 339.681966146 499.697265625 376.026041667 499.697265625 412.370117188 499.697265625 c 1
 390.76171875 431.748046875 l 1
 353.629288769 431.748046875 316.496858787 431.748046875 279.364428806 431.748046875 c 1
 180.661572154 177.000976562 l 2
 169.52700366 149.45082372 164.676285335 129.852595422 164.676285335 116.803136839 c 0
 164.676285335 102.003413216 170.915476327 95.6269832722 181.303265358 95.6269832722 c 0
 197.375413373 95.6269832722 223.378789624 110.891364275 251.57016893 133.838867188 c 0
 274.123760277 152.196289062 299.258789062 180.260742188 311.954101562 200.2109375 c 2
 318.424804688 210.37890625 l 1
 331.556760373 202.680458289 344.689115424 194.982409696 357.821289062 187.284179688 c 2
 367.91015625 181.370117188 l 1
 362.680664062 170.91015625 l 2
 338.961914062 123.473632812 300.33984375 78.0390625 254.40646481 45.8701171875 c 0
EndSplineSet
EndChar

StartChar: v
Encoding: 118 118 21
Width: 628
Flags: W
HStem: -10 94<216.2 354.302> 454.98 85.0202<115.526 177.426>
VStem: 19 96.4761<375.006 454.544> 105 137.643<104.097 241.78> 486 112<291.078 486.082>
LayerCount: 2
Fore
SplineSet
250.997698547 251.28515625 m 0xe8
 245.400343974 227.631835938 242.643312102 205.522460938 242.643312102 184.96484375 c 0
 242.643312102 131.44921875 263.218255499 84 300.402866242 84 c 0
 376.87543598 84 442.957347238 206.234392131 467.444205314 266.674804688 c 4
 480.177734375 298.53125 486 327.8515625 486 354.661132812 c 0
 486 388.879882812 474.672584096 413.240234375 465.987142964 443.745117188 c 0
 463.193210092 453.561523438 461.805732484 463.709960938 461.805732484 474.112304688 c 0
 461.805732484 514.8671875 486.053710938 540 527.5 540 c 0
 588.260742188 540 598 487.623046875 598 432.627929688 c 0
 598 350.252929688 575.358398438 275.475585938 547.875976562 215.205078125 c 0
 502.193274392 115.021121368 410.923536229 -10 252.899681529 -10 c 0
 179.499374876 -10 133.552734375 30.9384765625 115.258789062 78.4443359375 c 0
 108.391601562 96.2802734375 105 115.423828125 105 135.65234375 c 0xd8
 105 173.8515625 115.849609375 217.607421875 136.904296875 267.231445312 c 0
 157.377752413 312.2890625 185.81682611 358.422851562 221.783703847 405.759765625 c 1
 176.454515202 411.040039062 151.355509181 432.021484375 128.948242188 449.197265625 c 0
 123.808615814 453.304911372 120.359240578 454.979801065 118.238352777 454.979801065 c 0
 116.305566846 454.979801065 115.476070644 453.588829239 115.476070644 451.380461381 c 0
 115.476070644 445.736339782 120.894386156 434.752941665 127.16015625 428.005859375 c 0
 135.362304688 419.171875 148.71656051 405.262695312 148.71656051 383.5 c 0
 148.71656051 348.462890625 116.290039062 330 85.5 330 c 0
 41.6337890625 330 19 362.067382812 19 403.5 c 0
 19 466.235351562 59.201171875 509.490234375 102.922851562 528.922851562 c 0
 119.50390625 536.291992188 137.158203125 540 156.813694268 540 c 0
 204.776560012 540 229.957802548 514.260742188 253.601854847 501.881835938 c 0
 259.502851936 498.79296875 266.94314789 497 276.651273885 497 c 0
 287.233415139 497 294.950281853 500.910004252 304.30382912 508.76953125 c 0
 319.717904061 521.686523438 329.772899458 529.599609375 337.183674612 533.71875 c 0
 345.346175856 538.254882812 354.920403936 540 365.179936306 540 c 0
 384.221906723 540 400.267515924 529.844726562 400.267515924 512.033203125 c 0
 400.267515924 493.141601562 386.267276448 482.395507812 378.161708176 474.021484375 c 0
 354.841330364 449.9296875 327.698008932 419.979492188 309.023994203 389.772460938 c 0
 283.910227782 349.1484375 262.880874925 301.500976562 250.997698547 251.28515625 c 0xe8
EndSplineSet
EndChar

StartChar: w
Encoding: 119 119 22
Width: 900
Flags: W
HStem: -10 110<551.578 639.399> -10 99<186.53 326.48> 444.327 95.6728<518.346 574.516> 454.914 85.086<118.895 178.917>
VStem: 22 96.5316<375.006 454.302> 98 123.282<100.952 236.982> 399.665 98.0587<285.174 381.864> 538.408 97.0155<350.209 475.157> 754 112<290.682 487.082>
LayerCount: 2
Fore
SplineSet
562.922279793 540 m 0x6780
 610.639301936 540 635.423143351 500.678307334 635.423143351 449.634765625 c 0
 635.423143351 413.455078125 624.797806023 372.618164062 604.203192465 326.8828125 c 0
 584.261583819 282.59765625 554.525920229 234.73828125 518.389586032 187.724609375 c 1
 529.222743955 142.788085938 557.470045337 100 595.260794473 100 c 0
 610.506065145 100 627.307952828 106.366210938 646.016900097 121.581054688 c 0
 686.349376619 154.380859375 719.21966753 207.7578125 738.772121924 264.39453125 c 0
 749.068359375 294.603515625 754 323.828125 754 352.171875 c 0
 754 389.052734375 743.351306131 412.108398438 734.42113288 443.354492188 c 0
 731.671584899 452.971679688 730.352331606 463.283203125 730.352331606 474.236328125 c 0
 730.352331606 514.915039062 754.053710938 540 795.5 540 c 0
 857.6953125 540 866 486.329101562 866 432.391601562 c 0
 866 316.732421875 820.350585938 207.795898438 770.51171875 133.704101562 c 0
 742.035109024 91.6142578125 708.544412511 57.208984375 671.017514033 30.740234375 c 0
 633.218615069 4.0791015625 594.220672766 -10 554.576856649 -10 c 0x9780
 485.402141354 -10 447.078597258 34.412109375 426.313856056 85.3896484375 c 1
 378.325622134 36.9635273476 314.343424305 -10 231.191709845 -10 c 0
 141.869140625 -10 98 49.8154296875 98 129.958984375 c 0x4780
 98 209.424804688 139.114257812 301.26171875 221.289669689 405.83984375 c 1
 177.03814497 411.548828125 153.901804026 432.048828125 131.948242188 449.197265625 c 0
 126.868631305 453.256315416 123.44295354 454.913970925 121.325170566 454.913970925 c 0
 119.372374814 454.913970925 118.5316271 453.504536031 118.5316271 451.268770929 c 0
 118.5316271 445.648608694 123.844275248 434.806901899 130.16015625 428.005859375 c 0
 138.362304688 419.171875 151.388601036 405.262695312 151.388601036 383.5 c 0
 151.388601036 348.462890625 119.290039062 330 88.5 330 c 0
 44.6337890625 330 22 362.067382812 22 403.5 c 0
 22 465.18359375 62.736328125 509.728515625 105.922851562 528.922851562 c 0
 122.4375 536.262695312 139.750976562 540 158.16925734 540 c 0
 205.498360589 540 229.312155926 514.572265625 252.733740825 501.881835938 c 0
 258.578185719 498.715820312 265.4118159 497 273.962003454 497 c 0
 285.001963245 497 286.144976522 498.85546875 296.036829393 508.338867188 c 0
 307.394632448 519.225585938 325.009465404 540 354.286701209 540 c 0x5b80
 374.531890922 540 389.233160622 527.861328125 389.233160622 509.20703125 c 0
 389.233160622 489.76953125 372.890719452 478.790039062 366.347426867 471.732421875 c 0
 341.041194408 444.438476562 310.954069516 411.6796875 290.919756585 380.948242188 c 0
 263.290823348 338.56640625 241.552177785 292.014648438 229.339661593 240.020507812 c 0
 223.938363558 217.025390625 221.281519862 195.581054688 221.281519862 175.694335938 c 0
 221.281519862 125.310546875 236.893532761 89 271.875647668 89 c 0
 286.379284057 89 305.910345153 95.787109375 329.865743739 111.802734375 c 0
 352.583387306 126.991210938 378.495763169 149.614257812 404.419345045 176.756835938 c 1
 402.006996168 200.41015625 399.664939551 227.55078125 399.664939551 251.4921875 c 0
 399.664939551 324.526367188 421.02156196 395.9453125 447.900711086 446.603515625 c 0
 462.318774288 473.776367188 479.114549601 495.993164062 498.595693005 513.006835938 c 0
 518.235758042 530.158203125 539.880680592 540 562.922279793 540 c 0x6780
497.723661485 296 m 0
 497.723661485 292.481445312 497.820440684 286.741210938 497.866283463 285.173828125 c 1
 520.567627375 325.296875 538.407599309 368.434570312 538.407599309 420 c 0
 538.407599309 437.706852486 536.083532055 444.327204432 532.730779026 444.327204432 c 0x2380
 526.747513543 444.327204432 517.488155571 423.243132114 512.314908517 406.458007812 c 4
 503.303236993 377.21875 497.723661485 336.16796875 497.723661485 296 c 0
EndSplineSet
EndChar

StartChar: x
Encoding: 120 120 23
Width: 628
Flags: W
HStem: -10 83<22.1768 134.344> -10 75.5029<346.34 442.378> 456 84<198.586 299.327 445.388 548.226>
VStem: -51 141.781<73.6986 132.088> 491.335 126.665<403.15 455.758>
LayerCount: 2
Fore
SplineSet
522.5 540 m 0xb8
 573.951171875 540 618 500.73828125 618 448.5 c 0
 618 411.811523438 594.11328125 382 555.5 382 c 0
 504.975585938 382 500.9375 433.341796875 491.335243754 452.606445312 c 0
 489.857528233 455.515625 488.533287728 457 481.540841584 457 c 0
 459.319111135 457 438.683980507 434.559570312 423.269074393 412.365234375 c 0
 400.476997602 379.548828125 381.747860748 334.790039062 370.251752495 288.041992188 c 2
 355.363639001 230.130859375 l 2
 344.164110845 187.639648438 338.717821782 153.060546875 338.717821782 126.64453125 c 0
 338.717821782 80.1533203125 354.246797165 65.5029296875 381.724009901 65.5029296875 c 0
 401.214299872 65.5029296875 422.817982287 72.8671875 446.845118154 89.5498046875 c 0
 470.595376798 106.040039062 500.068359375 134.326171875 530.217773438 171.326171875 c 2
 537.389648438 180.149414062 l 1
 550.570547076 172.653229367 563.750980931 165.156579889 576.931640625 157.66015625 c 2
 587.090820312 151.881835938 l 1
 581.546875 141.955078125 l 2
 548.106445312 82.0771484375 495.004126218 27.3310546875 421.014650855 1.8388671875 c 0
 399.529185682 -5.970703125 378.229342319 -10 357.300742574 -10 c 0x78
 286.941780921 -10 245.979506691 36.2861328125 231.462636815 91.7626953125 c 1
 200.814298422 50.6337890625 158.173131962 17.294921875 105.274027305 -0.287109375 c 0
 85.9932099899 -6.6962890625 67.0703125 -10 49.5 -10 c 0
 -5.146484375 -10 -51 25.005859375 -51 81.5 c 0
 -51 123.895507812 -23.046875 156 20.5 156 c 0
 76.8728534963 156 79.9869445196 102.397460938 90.7810082766 78.3701171875 c 0
 92.3437572517 74.892578125 94.0102055616 73 102.449257426 73 c 0
 125.599096921 73 145.568477819 93.5859375 162.054598062 115.2265625 c 0
 187.157096032 148.176757812 207.332838606 191.467773438 222.426276783 238.168945312 c 2
 252.175541944 329.274414062 l 2
 264.742864325 366.926757812 270.757425743 396.389648438 270.757425743 417.04296875 c 0
 270.757425743 449.7265625 261.151756362 456 248.988861386 456 c 0
 226.270411123 456 199.555388498 437.63671875 178.761597888 421.784179688 c 0
 149.869926226 399.759765625 119.670605952 369.291992188 98.6268999459 339.56640625 c 2
 91.6064549814 329.649414062 l 1
 77.5526725291 337.485608791 63.90409259 345.727006033 50.068359375 353.78125 c 2
 40.6748046875 359.41796875 l 1
 72.255052745 432.300366337 138.278985251 491.167193428 209.684739519 524.217773438 c 0
 231.810029587 534.459960938 252.669150777 540 272.350247525 540 c 0
 326.303974416 540 362.990725073 502.04296875 374.765784537 457.467773438 c 1
 409.254109298 498.9140625 460.701423267 540 522.5 540 c 0xb8
EndSplineSet
EndChar

StartChar: y
Encoding: 121 121 24
Width: 565
Flags: W
HStem: -260 85<-35.3062 79.3125> 412 128<88.2804 182.925>
VStem: 426.748 124.252<337.196 490.298>
LayerCount: 2
Fore
SplineSet
-7.5 -260 m 0
 -63.1123046875 -260 -111 -225.229492188 -111 -168.5 c 0
 -111 -131.186523438 -86.833984375 -100 -47.5 -100 c 0
 1.6875 -100 10.5975726149 -151.486328125 21.6300623819 -169.849609375 c 0
 23.9376672702 -173.690429688 25.9556537311 -175 31.8539042821 -175 c 0
 40.5393429235 -175 55.4375639562 -169.759765625 75.083866302 -156.375976562 c 0
 117.932860713 -127.185546875 159.202967569 -82.521484375 191.520854652 -38.40625 c 0
 208.288619726 -16.7216796875 220.599998032 4.197265625 227.531117168 21.1650390625 c 1
 170.813656132 284.215820312 l 2
 159.590163531 335.484375 147.980513027 370.743164062 137.541792939 388.50390625 c 0
 126.23317951 407.74609375 116.884421245 412 112.639798489 412 c 0
 106.706253936 412 97.8858676401 407.750976562 87.6402265035 390.028320312 c 0
 77.6229583202 372.700195312 66.5468700803 343.196289062 55.3493289515 302.376953125 c 2
 51.9912084776 290.133789062 l 1
 34.691336195 294.517835231 17.4894936276 298.999911114 0.23828125 303.432617188 c 2
 -11.2412109375 306.53515625 l 1
 -8.71484375 318.155273438 l 5
 4.103515625 386.491210938 33 458 61.623046875 494 c 4
 79.015625 515.874023438 111.215581707 540 160.473551637 540 c 0
 205.37571789 540 221.33918962 505.09553214 236.7065196 465.85546875 c 0
 259.947619844 407.55078125 279.507763303 333.143554688 295.722242994 259.051757812 c 2
 326.799649717 120.61328125 l 1
 364.754196513 169.109375 397.839209107 224.44921875 416.643645702 285.479492188 c 0
 423.445007478 307.553710938 426.748110831 327.892578125 426.748110831 346.5 c 0
 426.748110831 381.265625 419.307304786 420.025390625 419.307304786 457.5 c 0
 419.307304786 500.659179688 444.877929688 540 488.5 540 c 0
 535.959960938 540 551 493.359375 551 457.2578125 c 0
 551 428.685546875 543.248046875 393.736328125 528.321289062 351.711914062 c 0
 493.750976562 254.389648438 441.298828125 157.952148438 383.326107919 71.0859375 c 0
 316.786533769 -27.515625 215.814546599 -150.805664062 127.42798528 -210.065429688 c 0
 80.3333300535 -242.693359375 34.997146568 -260 -7.5 -260 c 0
EndSplineSet
EndChar

StartChar: z
Encoding: 122 122 25
Width: 569
Flags: W
HStem: -10 120<306.892 410.859> 0 21G<23.0229 55.4795> 451 89<143.496 271.091>
VStem: -9 99.3965<10.5837 79.9926> 50 92.5528<361.521 449.682>
LayerCount: 2
Fore
SplineSet
198.042253521 355.5 m 0x68
 198.042253521 318.338867188 172.401339679 297 131.128521127 297 c 0
 76.876953125 297 50 336.54296875 50 386.5 c 0
 50 461.573242188 99.861328125 507.626953125 157.857463138 528.1875 c 0
 180.500986878 536.081054688 204.690488144 540 230.139084507 540 c 0
 310.689294949 540 350.768895109 498.971679688 390.623239437 471.5 c 0
 400.249738666 464.864257812 409.529853928 462 419.455985915 462 c 0
 434.90234375 462 440.299804688 472.049804688 448.819335938 489.08984375 c 0
 455.94921875 503.348632812 466.212890625 530 498.5 530 c 0
 524.361328125 530 540 513.408203125 540 488.943359375 c 0
 540 459.01171875 521.034179688 442.560546875 505.818359375 428.200195312 c 0
 411.974729726 341.036132812 307.913973096 256.512695312 205.409819267 170.888671875 c 1
 239.059002943 164.654296875 265.266243948 150.35546875 287.55913361 140.284179688 c 0
 317.070835167 126.950195312 350.512825979 110 384.639084507 110 c 0
 402.77749161 110 417.406370351 114.920898438 429.365234375 124.990234375 c 0
 440.642578125 134.657226562 453.12109375 154.755859375 464.795898438 185.888671875 c 2
 469.212890625 197.668945312 l 1
 484.463069549 191.837744027 499.713534877 186.006829148 514.963867188 180.17578125 c 2
 525.513671875 176.141601562 l 1
 522.567382812 165.23828125 l 2
 503.146484375 93.3828125 459.790039062 31.3154296875 392.798233247 3.04296875 c 0
 371.238487566 -5.603515625 348.81065691 -10 325.88556338 -10 c 0xa8
 268.689707581 -10 230.372840559 15.716796875 200.760198889 38.3974609375 c 0
 185.747747717 49.8955078125 171.312248982 60.2119140625 157.469640597 69.345703125 c 0
 145.317513479 77.3642578125 133.230200539 81 120.248239437 81 c 0
 100.279296875 81 97.4931640625 71.1640625 90.396484375 49.162109375 c 0
 83.791015625 28.685546875 74.458984375 0 36.5 0 c 0
 9.5458984375 0 -9 14.80078125 -9 40.267578125 c 0x70
 -9 55.7197265625 -2.08203125 70.6181640625 9.7392578125 84.6181640625 c 0
 20.994140625 97.947265625 37.8984375 114.87890625 60.80859375 135.948242188 c 1
 339.554979781 374.493164062 l 1
 329.581034056 376.982421875 320.555925396 380.469726562 310.920925946 385.317382812 c 0
 277.376932493 402.1953125 242.207271952 424.625976562 209.95531195 440.163085938 c 0
 194.380783726 447.666015625 180.504174461 451 168.121478873 451 c 0
 150.074449136 451 142.552816901 444.251953125 142.552816901 432.5 c 0
 142.552816901 420.517578125 149.639875385 417.583984375 164.377131932 408.31640625 c 0
 179.643527179 398.715820312 198.042253521 384.46484375 198.042253521 355.5 c 0x68
EndSplineSet
EndChar

StartChar: n
Encoding: 110 110 26
Width: 677
Flags: W
HStem: 0 11G<35.168 163.453 403.632 438.696> 462.109 77.8913<142.977 227.711 408.804 515.759>
VStem: 358.993 133.51<44.6164 166.365> 473.107 127.737<351.654 460.088>
LayerCount: 2
Fore
SplineSet
290.009299732 417.689453125 m 1xd0
 337.21564802 480.625577995 401.397844424 540 496.240948747 540 c 0
 558.921875 540 600.84375 509.750976562 600.84375 450.676757812 c 0xd0
 600.84375 425.109375 595.869140625 406.212890625 589.421875 383.116210938 c 0
 570.180235147 314.181318162 530.952875204 213.197574535 507.866714143 149.869140625 c 0
 497.362220755 121.057617188 492.502680025 100.78515625 492.502680025 91.474609375 c 0
 492.502680025 90.7529296875 492.574650042 89.578125 492.581951348 89.4736328125 c 1
 499.467082999 91.240234375 510.220863838 96.97265625 524.966373026 108.208007812 c 0
 542.649768212 122.37529977 573.894875226 153.272684916 603.6328125 184.76953125 c 1
 615.178777877 178.830145065 626.724611575 172.890627201 638.270507812 166.951171875 c 2
 649.232421875 161.3125 l 1
 643.373046875 150.817382812 l 2
 620.3671875 109.608398438 581.501953125 70.666015625 545.86328125 42.19140625 c 0
 526.788570419 27.0751953125 506.599416013 14.787109375 486.365410727 5.4033203125 c 0
 466.006240193 -4.48046875 447.371220942 -10 430.020188521 -10 c 0
 377.244261953 -10 358.993082794 37.8798828125 358.993082794 77.8564453125 c 0xe0
 358.993082794 106.833984375 364.366844083 120.51953125 373.428807995 147.71484375 c 0
 396.45712743 216.83203125 430.386296869 293.990234375 460.077579641 373.19921875 c 0
 467.894718106 394.052441193 473.106761867 415.688954903 473.106761867 432.312346976 c 0
 473.106761867 449.545447226 467.505374777 461.390942131 453.398151001 461.390942131 c 0
 443.67316598 461.390942131 429.906036678 455.761725246 411.145269212 442.387695312 c 4
 362.341253162 407.595703125 318.848415777 352.64453125 283.60501124 296.559570312 c 0
 263.278175061 264.212890625 246.123234861 231.271484375 232.130803245 197.7421875 c 0
 204.750864377 131.78679193 177.039124203 66.1631976675 149.866987433 0 c 1
 35.16796875 0 l 1
 61.5976228759 78.1696297281 88.0273493423 156.339187116 114.45703125 234.508789062 c 0
 133.918945312 291.344726562 149.906623095 336.7578125 165.641980781 386.509765625 c 0
 170.190507827 400.89085846 179.592644633 431.177651032 179.592644633 448.738589762 c 0
 179.592644633 456.74686459 177.637364226 462.108654561 172.374843887 462.108654561 c 0
 168.706320591 462.108654561 163.430631462 459.503072317 156.089786316 453.372070312 c 0
 120.528320312 422.735351562 92.03125 368.953125 74.2021484375 317.833007812 c 2
 69.64453125 304.764648438 l 1
 55.3474571359 311.596806095 41.0507542559 318.429334985 26.75390625 325.26171875 c 2
 17 329.921875 l 1
 20.5087890625 339.791015625 l 2
 44.1416015625 406.26171875 70.7470703125 456.048828125 101.49609375 489.15234375 c 0
 132.306640625 522.323242188 171.21183429 540 215.336756175 540 c 0
 275.830163288 540 291.70424579 501.33203125 291.70424579 448.5 c 0
 291.70424579 438.212890625 290.917790819 425.708007812 290.009299732 417.689453125 c 1xd0
EndSplineSet
EndChar

StartChar: A
Encoding: 65 65 27
Width: 813
Flags: W
HStem: -0 40<-91.75 -16.6429 118.908 185.811 356.252 440.33 604.346 674.737> 265 87.5<367.189 502.414> 760 20G<560.628 746.656>
LayerCount: 2
Fore
SplineSet
135.013094498 92 m 0
 122.533844523 76.0380859375 118.855931956 73.189453125 118.855931956 61.5 c 0
 118.855931956 43.0439453125 136.561421377 40 184.005780915 40 c 2
 200.694321912 40 l 1
 194.483091131 26.8959293041 187.735825687 15.2742660504 183.755361183 -0 c 1
 -108 0 l 1
 -91.75 40 l 1
 -81.990234375 40 l 2
 -42.611328125 40 -19.7822265625 55.50390625 9.87109375 78.39453125 c 0
 28.8453078214 92.5126953125 50.3030213557 111.591796875 73.945290763 135.586914062 c 0
 97.6751052797 159.670898438 125.463551793 189.96484375 157.349313027 226.538085938 c 0
 318.599805719 411.052991508 480.071542041 595.346653447 641.18359375 780 c 1
 746.65625 780 l 1
 698.892278982 570.208017231 651.044580054 360.499762373 603.249130829 150.739257812 c 0
 595.007674936 115.8203125 591.062037208 90.6083984375 591.062037208 76.5 c 0
 591.062037208 59.771484375 596.111150502 52.4970703125 603.90571915 48.5615234375 c 0
 613.071488526 43.93359375 636.9296875 40 673.009765625 40 c 2
 689.01953125 40 l 1
 683.052730615 26.8778957233 676.575934718 15.225613873 672.76953125 -0 c 1
 339.312841168 0 l 1
 356.251801897 40 l 1
 366.425357999 40 l 2
 427.394418994 40 443.979127419 51.513671875 459.448144681 92.734375 c 0
 465.406301962 108.61328125 471.567034554 130.185546875 477.744054608 157.1796875 c 2
 502.41447007 265 l 1
 300.075326666 265 l 1
 238.259317635 202.874023438 l 2
 194.108079369 158.453125 165.061426397 130.435546875 135.013094498 92 c 0
367.188832791 352.5 m 1
 517.965942609 352.5 l 1
 587.816760357 605.83203125 l 1
 367.188832791 352.5 l 1
EndSplineSet
Substitution2: "Single Substitution lookup 7 subtable" ordfeminine
Substitution2: "'ss01' Style Set 1 in Latin lookup 6 subtable" A.ss01
EndChar

StartChar: B
Encoding: 66 66 28
Width: 786
Flags: W
HStem: 0 70<253.781 455.022> 0 40<-14.1976 78.6962> 372.5 76<337.335 500.901> 700 70<410.386 567.992> 730 40<175.887 250.598>
VStem: 563.222 144.679<162.529 313.908> 608.356 131.546<525.426 665.339>
LayerCount: 2
Fore
SplineSet
548.050035223 174.676757812 m 0xa4
 558.12898394 195.798828125 563.22227146 218.887695312 563.22227146 244.297851562 c 0
 563.22227146 343.125 491.880370748 372.5 366.419855739 372.5 c 2
 316.588869071 372.5 l 1
 300.29876181 318.357996885 284.008036322 264.216611996 267.718319192 210.07421875 c 1
 260.005205876 188.981211761 253.514973727 160.470113547 248.659235244 135.591796875 c 0
 246.996664836 127.072265625 246.239180538 120.283203125 246.239180538 115.615234375 c 0
 246.239180538 79.1611328125 279.299936354 70 331.782630572 70 c 0
 441.152498071 70 516.704125456 108.993164062 548.050035223 174.676757812 c 0xa4
663.525390625 448.177734375 m 0
 635.232421875 429.171875 598.353552691 415.5625 559.771054097 406.706054688 c 1
 645.560546875 379.869140625 707.901367188 324.249023438 707.901367188 226.157226562 c 0
 707.901367188 147.298828125 663.517578125 93.30078125 612.048745798 59.7177734375 c 0
 551.279849868 21.666015625 465.42889606 0 366.419855739 0 c 0xb4
 234.613237159 -0 102.80661858 0 -29 0 c 1
 -23.0424375412 13.3339657469 -17.0841504384 26.6673510871 -11.125 40 c 1
 -1.5986328125 40 l 2
 59.7353515625 40 82.0771484375 51.244140625 100.530566986 91.15234375 c 0
 107.746655563 106.390625 115.332773681 127.579101562 122.853290995 153.940429688 c 2
 246.657385672 611.33203125 l 2
 254.151252658 640.962890625 257.784922261 664.288085938 257.784922261 679.676757812 c 0
 257.784922261 722.666992188 234.744689445 730 174.340697995 730 c 2
 157.125611682 730 l 1
 162.49503942 740.272097554 167.865632844 750.543029421 173.235734432 760.814453125 c 1
 175.887441981 770 l 1x6c
 272.98585885 770 370.084275719 770 467.182692588 770 c 0
 576.65301132 770 667.356445312 744.684570312 714.134765625 680.09765625 c 0
 731.600585938 655.982421875 739.901367188 625.693359375 739.901367188 590.333007812 c 0x32
 739.901367188 521.245117188 706.05078125 476.743164062 663.525390625 448.177734375 c 0
593.510368242 535.823242188 m 0
 603.373039305 553.436523438 608.355625465 572.901367188 608.355625465 594.732421875 c 0x32
 608.355625465 678.358398438 560.739690987 700 453.537725098 700 c 0
 415.587659266 700 403.71493853 675.279296875 391.707941146 632.6796875 c 2
 337.335123728 448.5 l 1
 397.908242254 448.5 l 2
 494.094397925 448.5 563.061344484 481.44140625 593.510368242 535.823242188 c 0
EndSplineSet
EndChar

StartChar: C
Encoding: 67 67 29
Width: 778
Flags: W
HStem: -10 87<310.788 512.925> 703 77<431.421 622.071> 750 20G<740.595 804.499>
VStem: 73 147.393<175.567 442.421>
LayerCount: 2
Fore
SplineSet
693.883789062 494 m 1xb0
 693.033203125 505.584960938 l 2
 684.013383983 628.145507812 651.275934507 703 535.94376642 703 c 0
 433.731065876 703 360.871772087 649.428710938 312.713212146 588.732421875 c 0
 258.355546884 520.219726562 220.393357686 420.69140625 220.393357686 303.456054688 c 0
 220.393357686 147.794921875 283.748728513 77 410.566475471 77 c 0
 458.718862029 77 501.785409981 89.2431640625 540.754889487 113.900390625 c 0
 579.582381187 138.469726562 618.132070656 178.467773438 654.109517254 231.7421875 c 2
 661.664709017 242.97265625 l 1
 677.822425817 232.849989598 693.510988413 222.258168741 709.43359375 211.900390625 c 2
 719.7890625 204.997070312 l 1
 712.930664062 194.611328125 l 2
 642.561639998 89.7828581069 559.523364584 -10 387.387480505 -10 c 0
 228.934232918 -10 134.54296875 64.3642578125 94.2255859375 173.98046875 c 0
 80.001953125 212.65234375 73 255.905273438 73 303.577148438 c 0
 73 442.353515625 133.650390625 557.728515625 205.269598498 635.368164062 c 0
 276.339640146 709.13671875 386.416201597 780 527.515040978 780 c 0xd0
 606.481868242 780 662.998159722 756.471679688 712.569335938 724.553710938 c 1
 723.779218122 739.702552712 734.98994785 754.850546942 746.19921875 770 c 1
 804.499023438 770 l 1
 788.263680006 681.416333015 772.029734455 592.831268149 755.794921875 504.247070312 c 2
 753.916992188 494 l 1
 693.883789062 494 l 1xb0
EndSplineSet
EndChar

StartChar: D
Encoding: 68 68 30
Width: 886
Flags: W
HStem: 0 69<259.888 469.678> 0 40<-14.1976 81.4221> 695 75<402.095 575.766> 730 40<175.627 262.078>
VStem: 709.048 141.854<321.627 566.173>
LayerCount: 2
Fore
SplineSet
242.250947701 611.498046875 m 2x48
 250.52843859 640.3828125 264.68706389 670.346679688 264.68706389 699.390625 c 0
 264.68706389 723.661132812 234.207198114 730 191.320750536 730 c 0
 178.761389999 730 166.202029463 730 153.642668926 730 c 1
 159.997192184 740.454279684 166.351437388 750.908837422 172.705796501 761.36328125 c 1
 175.626546509 770 l 1x58
 272.78264307 770 369.938739631 770 467.094836192 770 c 0
 643.341875472 770 773.293945312 701.668945312 823.995117188 579.846679688 c 0
 841.916992188 536.784179688 850.901367188 491.754882812 850.901367188 445.05078125 c 0
 850.901367188 339.388671875 810.716796875 252.649414062 765.23828125 187.87109375 c 0
 679.513850084 68.630859375 548.745754301 0 347.419289587 0 c 0xa8
 221.946193058 -0 96.473096529 0 -29 0 c 1
 -23.0424375412 13.3339657469 -17.0841504384 26.6673510871 -11.125 40 c 1
 -1.5986328125 40 l 2
 61.53125 40 83.7197265625 50.0419921875 101.958401996 90.521484375 c 0
 108.751127484 105.356445312 115.701374285 126.154296875 122.530685368 152.709960938 c 2
 242.250947701 611.498046875 l 2x48
671.054447486 279.954101562 m 0
 694.042396401 330.060546875 709.04757172 388.344726562 709.04757172 454.120117188 c 0
 709.04757172 605.846679688 619.317334696 695 458.769580776 695 c 0
 414.252025417 695 405.216399697 689.248046875 395.369793285 654.876953125 c 2
 272.569227099 233.686523438 l 2
 261.891314665 196.6875 253.118901976 171.6953125 247.906470942 137.977539062 c 0
 247.27435316 133.888671875 246.995896131 130.547851562 246.995896131 128.138671875 c 0
 246.995896131 83.029296875 281.908716512 69 338.053377244 69 c 0xa8
 517.444745168 69 617.17504485 162.509765625 671.054447486 279.954101562 c 0
EndSplineSet
EndChar

StartChar: E
Encoding: 69 69 31
Width: 790
Flags: W
HStem: -0 68<276.611 528.401> 0 40<-11.1976 82.4087> 372.5 69<335.676 444.34> 701 69<410.539 625.025> 730 40<170.373 243.687>
VStem: 699.837 60.0645<543 610.537>
LayerCount: 2
Fore
SplineSet
384.714893733 441.5 m 2x34
 473.185518055 441.5 490.299880645 489.400807259 521.971369529 555.5 c 1
 585.183608576 555.5 l 1
 563.162892412 451.83875154 541.141924395 348.177754933 519.121113142 244.516601562 c 2
 516.993399308 234.5 l 1
 449.887003868 234.5 l 1
 451.327995248 248.244140625 l 2
 453.392256337 267.94140625 454.406476833 284.8984375 454.406476833 299 c 0
 454.406476833 355.4765625 441.094704902 372.5 383.666900002 372.5 c 2
 315.14714583 372.5 l 1
 257.982362795 174.8671875 l 2
 251.868383744 154.318359375 248.999705592 137.396484375 248.999705592 124.193359375 c 0
 248.999705592 105.192382812 257.142125633 92.650390625 275.721498865 83.337890625 c 0
 294.40730896 73.970703125 331.044105421 68 384.714893733 68 c 0xb4
 499.122240589 68 567.93060241 92.5283203125 613.622719701 151.8984375 c 0
 630.532421925 173.870458235 646.79418727 203.544605079 661.295898438 236 c 1
 734.349609375 236 l 1
 647.107421875 -0 l 1
 -26 0 l 1
 -20.0424375412 13.3339657469 -14.0841504384 26.6673510871 -8.125 40 c 1
 1.4013671875 40 l 2
 64.2421875 40 87.373046875 52.931640625 105.505415549 94.0341796875 c 0
 112.057423229 108.62890625 118.488666007 128.092773438 124.698847607 152.688476562 c 2
 246.296823323 610.380859375 l 2
 254.091276696 639.043945312 260.527636631 661.051757812 260.527636631 687.977539062 c 0
 260.527636631 707.83984375 254.48018062 716.317382812 244.300108705 720.69921875 c 0
 231.422271679 726.243164062 205.828299784 730 168.828185184 730 c 2
 151.639655195 730 l 1
 157.000799626 740.272096932 162.363108562 750.543029359 167.724926159 760.814453125 c 1
 170.372543133 770 l 1
 759.901367188 770 l 1x6c
 759.901367188 543 l 1
 699.836914062 543 l 1
 674.613650202 636.112353214 648.430086463 701 536.673984702 701 c 2
 410.539137688 701 l 1
 335.676155837 441.5 l 1
 384.714893733 441.5 l 2x34
EndSplineSet
EndChar

StartChar: F
Encoding: 70 70 32
Width: 709
Flags: W
HStem: 0 68<261.362 362.398> 0 40<-11.1976 82.4087> 372.5 69<335.676 438.669> 701 69<410.539 625.025> 730 40<170.373 243.687>
VStem: 527.211 63.5101<514.1 555.5> 699.837 60.0645<543 610.537>
LayerCount: 2
Fore
SplineSet
389.954862387 441.5 m 2x36
 478.42548671 441.5 495.539849299 489.400807259 527.211338183 555.5 c 1
 590.721395761 555.5 l 1
 565.090941885 445.099620217 539.46193003 334.697798412 513.832019782 224.296875 c 2
 511.55795526 214.5 l 1
 444.885494725 214.5 l 1
 446.067557967 228.038085938 l 2
 448.142053369 251.788085938 449.166508178 272.14453125 449.166508178 289 c 0
 449.166508178 348.981445312 439.455167835 372.5 388.906868656 372.5 c 2
 315.14714583 372.5 l 1
 257.982362795 174.8671875 l 2
 251.868383744 154.318359375 248.999705592 137.396484375 248.999705592 124.193359375 c 0
 248.999705592 77.80859375 287.28320314 68 363.755019117 68 c 2
 380.628332242 68 l 1
 362.39794911 0 l 1xb6
 -26 0 l 1
 -20.0424375412 13.3339657469 -14.0841504384 26.6673510871 -8.125 40 c 1
 1.4013671875 40 l 2
 64.2421875 40 87.373046875 52.931640625 105.505415549 94.0341796875 c 0
 112.057423229 108.62890625 118.488666007 128.092773438 124.698847607 152.688476562 c 2
 246.296823323 610.380859375 l 2
 254.091276696 639.043945312 260.527636631 661.051757812 260.527636631 687.977539062 c 0
 260.527636631 707.83984375 254.48018062 716.317382812 244.300108705 720.69921875 c 0
 231.422271679 726.243164062 205.828299784 730 168.828185184 730 c 2
 151.639655195 730 l 1
 157.000799626 740.272096932 162.363108562 750.543029359 167.724926159 760.814453125 c 1
 170.372543133 770 l 1
 759.901367188 770 l 1x6e
 759.901367188 543 l 1
 699.836914062 543 l 1
 674.613650202 636.112353214 648.430086463 701 536.673984702 701 c 2
 410.539137688 701 l 1
 335.676155837 441.5 l 1
 389.954862387 441.5 l 2x36
EndSplineSet
EndChar

StartChar: G
Encoding: 71 71 33
Width: 859
Flags: W
HStem: -10 79<310.38 516.586> 287.5 64<524.14 593.836 756.683 817.199> 703 77<443.421 663.931> 750 20G<780.549 844.212>
VStem: 73 147.284<173.263 440.284> 601.211 89.8722<48.4678 225.544>
LayerCount: 2
Fore
SplineSet
744.28515625 525 m 1xdc
 743.073242188 536.149414062 l 2
 730.779296875 649.252929688 682.355332611 703 555.563012071 703 c 0
 448.024473049 703 370.291992971 649.827148438 318.271530047 588.358398438 c 0
 260.930349983 520.6015625 220.284047218 421.78515625 220.284047218 303.262695312 c 0
 220.284047218 142.102539062 283.708389253 69 409.698298097 69 c 0
 499.91478746 69 560.54042408 102.9765625 587.103018127 157.467773438 c 0
 596.377380631 176.491210938 601.211321839 199.080078125 601.211321839 225.543945312 c 0
 601.211321839 274.873046875 585.723648852 287.5 525.130805558 287.5 c 2
 508.641911337 287.5 l 1
 524.139832239 351.5 l 1
 833.609375 351.5 l 1
 817.19921875 287.5 l 1
 807.5 287.5 l 2
 777.249023438 287.5 766.686523438 285.56640625 756.190429688 273.205078125 c 0
 750.235351562 266.190429688 743.611328125 254.305664062 737.221679688 237.749023438 c 0
 726.169921875 209.112304688 709.473363616 150.4296875 699.49906856 111.98828125 c 0
 693.848773196 90.2127838867 691.946160717 71.3597119483 691.083481279 48.4677734375 c 1
 680.588592173 46.798828125 l 2
 643.598745256 40.9150390625 611.047270052 26.9091796875 570.43888457 15.482421875 c 0
 518.291347508 0.80859375 458.926204355 -10 386.611796605 -10 c 0
 228.790840936 -10 134.54296875 64.3642578125 94.2255859375 173.98046875 c 0
 80.001953125 212.65234375 73 255.905273438 73 303.577148438 c 0
 73 443.7734375 136.923828125 558.684570312 211.736261842 635.591796875 c 0
 286.853474173 710.0546875 401.579900334 780 547.167920619 780 c 0xec
 633.424615869 780 695.767802938 757.495117188 752.296875 724.185546875 c 1
 763.597576515 739.457110985 774.899130813 754.727822312 786.19921875 770 c 1
 844.211914062 770 l 1
 831.419555102 691.82751521 818.627992264 613.654234298 805.8359375 535.481445312 c 2
 804.12109375 525 l 1
 744.28515625 525 l 1xdc
EndSplineSet
EndChar

StartChar: H
Encoding: 72 72 34
Width: 961
Flags: W
HStem: 0 40<-13.1976 78.927 251.288 323.508 489.877 584.799 758.279 830.101> 342 101<329.84 682.094> 730 40<169.036 243.503 426.172 517.926 675.402 749.87 933.429 1021>
LayerCount: 2
Fore
SplineSet
257.500985777 152.275390625 m 2
 249.377508924 123.393554688 245.561509197 101.016601562 245.561509197 85.5 c 0
 245.561509197 45.2548828125 268.440386419 40 327.549607841 40 c 2
 345.294157639 40 l 1
 338.996789032 29.5457194885 332.699696917 19.0911624843 326.402491533 8.63671875 c 1
 323.50801193 0 l 1
 -28 0 l 1
 -22.0424375412 13.3339657469 -16.0841504384 26.6673510871 -10.125 40 c 1
 -0.5986328125 40 l 2
 59.9931640625 40 83.91796875 53.3076171875 102.441880488 92.806640625 c 0
 109.496796847 107.6484375 116.554734584 127.801757812 123.275285172 152.817382812 c 2
 243.941043755 611.448242188 l 2
 254.136178417 649.05859375 258.968368095 676.71484375 258.968368095 693.165039062 c 0
 258.968368095 711.44140625 253.522838793 718.435546875 244.100169634 722.017578125 c 0
 231.566488821 726.78125 206.236267357 730 169.761191583 730 c 2
 152.846513459 730 l 1
 159.55669977 743.065053084 166.934321953 754.675836319 171.280944443 770 c 1
 533.191607371 770 l 1
 527.047584205 756.666017241 520.902821098 743.332630921 514.757176387 730 c 1
 504.932664026 730 l 2
 433.370331857 730 412.427150458 708.556640625 391.63805931 656.952148438 c 0
 383.321214299 636.306640625 374.692160285 609.149414062 365.811324817 575.36328125 c 2
 329.839811952 443 l 1
 703.322350536 443 l 1
 750.305777101 615.73828125 l 2
 760.503933141 651.998046875 765.335115693 678.641601562 765.335115693 694.5 c 0
 765.335115693 712.11328125 759.889586392 718.854492188 750.466917232 722.306640625 c 0
 737.933236419 726.897460938 712.603014955 730 676.127939181 730 c 2
 659.213261057 730 l 1
 665.923447369 743.065053083 673.301069552 754.675836319 677.647692042 770 c 1
 1035.80273438 770 l 1
 1029.84517191 756.666034262 1023.88688481 743.332648924 1017.92773438 730 c 1
 1008.40136719 730 l 2
 939.010742188 730 918.703125 707.750976562 898.004806908 654.206054688 c 0
 889.686954772 632.783203125 881.059915009 604.608398438 872.177065289 569.548828125 c 2
 763.863704872 156.481445312 l 2
 755.749292151 126.547851562 751.928256795 103.299804688 751.928256795 87.2109375 c 0
 751.928256795 45.740234375 774.697357303 40 832.885058601 40 c 2
 850.211651185 40 l 1
 844.426352228 29.6364359628 838.64175061 19.2721745874 832.856859078 8.908203125 c 1
 830.101362838 0 l 1
 474.611127004 0 l 1
 480.75515017 13.3339827592 486.899913277 26.6673690789 493.045557988 40 c 1
 502.870070349 40 l 2
 565.358198892 40 590.031774323 52.8251953125 608.808628086 90.8935546875 c 0
 615.861530194 105.192382812 622.92450356 124.631835938 629.639011393 148.721679688 c 2
 682.094152531 342 l 1
 308.628735086 342 l 1
 257.500985777 152.275390625 l 2
EndSplineSet
EndChar

StartChar: I
Encoding: 73 73 35
Width: 470
Flags: W
HStem: -0 40<-13.1976 79.0599 259.654 334.953> 730 40<175.119 250.837 442.311 530>
LayerCount: 2
Fore
SplineSet
265.508493699 156.481445312 m 2
 257.001270656 126.547851562 252.995262933 103.299804688 252.995262933 87.2109375 c 0
 252.995262933 45.740234375 276.866592032 40 337.87109973 40 c 2
 356.036454729 40 l 1
 349.971102019 29.6364472079 343.906467941 19.2721757837 337.841535097 8.908203125 c 1
 334.952648136 -0 l 1
 -28 0 l 1
 -22.0424375412 13.3339657469 -16.0841504384 26.6673510871 -10.125 40 c 1
 -0.5986328125 40 l 2
 59.9931640625 40 83.91796875 53.3076171875 102.947361116 92.806640625 c 0
 110.343798675 107.6484375 117.743403873 127.801757812 124.78928936 152.817382812 c 2
 251.296352436 611.448242188 l 2
 261.985023016 649.05859375 267.051133995 676.71484375 267.051133995 693.165039062 c 0
 267.051133995 711.44140625 261.341992256 718.435546875 251.463181434 722.017578125 c 0
 238.322758104 726.78125 211.766326834 730 173.525530391 730 c 2
 155.792030204 730 l 1
 161.323158967 740.272109555 166.855476232 750.543030608 172.387292034 760.814453125 c 1
 175.118852914 770 l 1
 544.802734375 770 l 1
 538.845171916 756.666034254 532.886884813 743.332648914 526.927734375 730 c 1
 517.401367188 730 l 2
 448.010742188 730 427.703125 707.750976562 406.143227659 654.206054688 c 0
 397.422716909 632.783203125 388.37805108 604.608398438 379.065191798 569.548828125 c 2
 265.508493699 156.481445312 l 2
EndSplineSet
EndChar

StartChar: J
Encoding: 74 74 36
Width: 593
Flags: W
HStem: -10 78<103.835 209.366> 730 40<312.699 409.553 579.029 662.099>
VStem: -23 123.172<72.7442 164.222>
LayerCount: 2
Fore
SplineSet
104.760736819 111.661132812 m 0
 101.820641314 108.880859375 100.172452895 105.556640625 100.172452895 99.5 c 0
 100.172452895 80.599609375 119.345552002 68 149.345472775 68 c 0
 179.245221694 68 206.028283492 81.072265625 231.067115817 110.356445312 c 0
 256.215414291 139.767578125 277.202966437 182.224609375 293.079688707 237.70703125 c 2
 397.773732355 615.69921875 l 2
 408.238076492 651.981445312 413.187805245 678.603515625 413.187805245 694.467773438 c 0
 413.187805245 726.588867188 383.463615242 730 329.31917992 730 c 2
 293.796382167 730 l 1
 299.206078712 740.272100565 304.616946667 750.543029719 310.02732037 760.814453125 c 1
 312.698914003 770 l 1
 676.901367188 770 l 1
 670.943804729 756.666034254 664.985517626 743.332648914 659.026367188 730 c 1
 649.5 730 l 2
 608.859375 730 589.380859375 724.08203125 573.734375 704.658203125 c 0
 548.935123166 674.411132812 537.558905361 631.403320312 522.752059783 575.393554688 c 2
 416.982975945 195.318359375 l 2
 384.553113225 78.78515625 298.540603717 -10 150.402957073 -10 c 0
 50.0322265625 -10 -23 34.8779296875 -23 133.5 c 0
 -23 194.943359375 12.65234375 256 77.5 256 c 0
 119.639871363 256 155.161636416 228.071289062 155.161636416 185.5 c 0
 155.161636416 142.791015625 119.938321521 126.013671875 104.760736819 111.661132812 c 0
EndSplineSet
EndChar

StartChar: K
Encoding: 75 75 37
Width: 875
Flags: W
HStem: 0 40<-4.19761 81.2357 251.281 334.019 471.371 548.271 746.344 810.101> 730 40<168.157 243.112 426.973 519.326 584.378 642.742 823.829 887.161>
LayerCount: 2
Fore
SplineSet
257.195837127 152.256835938 m 2
 249.031503984 123.416992188 245.183501922 101.00390625 245.183501922 85.5 c 0
 245.183501922 44.4814453125 273.210256667 40 338.087003762 40 c 2
 355.947369497 40 l 1
 349.608899298 29.5457200846 343.270706716 19.091162552 336.932400404 8.63671875 c 1
 334.019028979 0 l 1
 -19 0 l 1
 -13.0424375412 13.3339657469 -7.08415043844 26.6673510871 -1.125 40 c 1
 8.4013671875 40 l 2
 64.8828125 40 85.7265625 53.693359375 101.974164906 92.3818359375 c 0
 108.507456078 107.40234375 115.307350133 127.69921875 122.099134594 152.817382812 c 2
 243.552459952 611.448242188 l 2
 253.814136684 649.05859375 258.677865318 676.71484375 258.677865318 693.165039062 c 0
 258.677865318 711.44140625 253.196793888 718.435546875 243.712624422 722.017578125 c 0
 231.097138209 726.78125 205.6015903 730 168.888447339 730 c 2
 151.863369722 730 l 1
 158.615582525 743.061629431 166.040962983 754.668255886 170.418119391 770 c 1
 534.690917337 770 l 1
 528.506791392 756.666013603 522.321922269 743.332627075 516.136167668 730 c 1
 506.247532232 730 l 2
 434.21812377 730 413.13824946 708.556640625 392.213471123 656.952148438 c 0
 383.838288553 636.297851562 375.163051028 609.168945312 366.214114725 575.348632812 c 2
 337.077359385 469.900390625 l 1
 522.580253313 597.671875 l 2
 565.771947691 627.392578125 597.051663084 652.560546875 616.074741771 672.466796875 c 0
 635.648259109 692.947265625 642.748208119 707.83984375 642.748208119 714.5 c 0
 642.748208119 719.388671875 634.746066845 730 586.175684653 730 c 2
 569.557100405 730 l 1
 575.743182257 743.105951926 582.46255686 754.730670207 586.425054649 770 c 1
 903.411132812 770 l 1
 887.161132812 730 l 1
 877.401367188 730 l 2
 868.572265625 730 859.22265625 728.012695312 849.161132812 723.713867188 c 0
 839.1015625 719.416015625 823.98828125 710.735351562 804.669921875 697.825195312 c 0
 735.406364094 651.536354399 678.396473161 607.690267747 593.608126992 548.684570312 c 2
 444.805197936 444.373046875 l 1
 640.117658764 187.385742188 l 2
 667.766303718 150.766601562 689.987603297 122.188476562 706.775475307 101.639648438 c 0
 723.392032156 81.3017578125 737.509820544 66.640625 748.42837434 57.91015625 c 0
 767.979590296 42.275390625 776.909266315 40 809.401367188 40 c 2
 825.802734375 40 l 1
 819.288328009 26.9191750933 812.132600075 15.288352061 807.927734375 -0 c 1
 456.005560103 0 l 1
 462.189686048 13.3339863964 468.374555169 26.6673729269 474.560309772 40 c 1
 484.448945208 40 l 2
 525.47841925 40 548.287664349 44.1474609375 548.287664349 55.5 c 0
 548.287664349 60.8994140625 544.628210333 72.7158203125 535.356917694 88.984375 c 0
 526.111981233 105.206054688 511.426521308 126.805664062 491.641140843 153.096679688 c 2
 335.210125508 355.301757812 l 1
 307.896001282 336.881835938 l 1
 257.195837127 152.256835938 l 2
EndSplineSet
EndChar

StartChar: L
Encoding: 76 76 38
Width: 752
Flags: W
HStem: 0 68<262.472 499.339> 0 40<-10.1976 83.4219> 730 40<170.654 257.494 430.803 524.45>
LayerCount: 2
Fore
SplineSet
259.702818422 179.267578125 m 2x60
 253.552879817 157.84375 250.676809581 140.25390625 250.676809581 126.5 c 0
 250.676809581 78.5693359375 283.091704103 68 355.407704555 68 c 0xa0
 477.997371604 68 546.606756878 97.080078125 594.564559915 163.099609375 c 0
 611.383796137 187.394463221 627.860843231 221.067889683 641.96875 256 c 1
 715.540039062 256 l 1
 618.015625 0 l 1
 -25 0 l 1
 -19.0424375412 13.3339657469 -13.0841504384 26.6673510871 -7.125 40 c 1
 2.4013671875 40 l 2
 65.2421875 40 88.373046875 52.931640625 106.555676049 94.0341796875 c 0
 113.124998735 108.603515625 119.610033443 128.149414062 125.82267408 152.645507812 c 2
 244.763288472 611.26171875 l 2
 252.522921855 641.861328125 260.14995586 665.749023438 260.14995586 693.165039062 c 0
 260.14995586 725.108398438 242.802051156 730 192.259074194 730 c 0
 178.785675354 730 165.312276514 730 151.838877674 730 c 1
 157.223442762 740.272098688 162.609175692 750.543029533 167.994415876 760.814453125 c 1
 170.653598756 770 l 1
 540.030238877 770 l 1
 533.759463187 756.666005768 527.487937381 743.332618793 521.215517796 730 c 1
 511.188332254 730 l 2
 438.149716585 730 416.77449123 708.556640625 395.556534905 656.952148438 c 0
 387.069146795 636.310546875 378.260025309 609.142578125 369.198039893 575.368164062 c 2
 259.702818422 179.267578125 l 2x60
EndSplineSet
EndChar

StartChar: M
Encoding: 77 77 39
Width: 1070
Flags: W
HStem: 0 40<-12.1976 60.6133 225.402 279.83 609.993 697.088 867.696 949.203> 730 40<169.806 244.052 1033.37 1109>
LayerCount: 2
Fore
SplineSet
872.881029223 156.481445312 m 2
 864.79080206 126.547851562 860.981155559 103.299804688 860.981155559 87.2109375 c 0
 860.981155559 44.919921875 888.478087498 40 951.978890003 40 c 2
 969.253839502 40 l 1
 963.485783629 29.6364352578 957.718423759 19.2721745124 951.950774531 8.908203125 c 1
 949.203491234 0 l 1
 594.772818176 0 l 1
 600.8985279 13.3339810952 607.024976078 26.6673673204 613.152304087 40 c 1
 622.947533822 40 l 2
 680.343262336 40 701.413800599 53.8544921875 718.704816082 90.69140625 c 0
 725.459558309 105.081054688 732.343832534 124.565429688 739.060418049 148.735351562 c 2
 855.957523128 576.787109375 l 1
 726.883071162 384.491603779 597.543952104 192.460765274 468.634759816 0 c 1
 405.890062691 0 l 1
 381.050966475 195.497614276 355.981543614 390.764901907 331.055712465 586.17578125 c 1
 213.826242338 152.399414062 l 2
 210.295742312 138.6640625 207.03133515 125.354492188 207.03133515 111.50390625 c 0
 207.03133515 63.318359375 233.880607101 41.2236328125 282.935077449 40 c 1
 299.75013815 40 l 1
 294.025324995 29.6367045802 288.301725049 19.2721959507 282.5776093 8.908203125 c 1
 279.830326004 0 l 1
 -27 0 l 1
 -21.0424375412 13.3339657469 -15.0841504384 26.6673510871 -9.125 40 c 1
 0.4013671875 40 l 2
 62.814453125 40 108.579988167 95.4658203125 124.188091806 152.842773438 c 2
 244.488173162 611.448242188 l 2
 254.652920533 649.05859375 259.470707541 676.71484375 259.470707541 693.165039062 c 0
 259.470707541 711.44140625 254.04140901 718.435546875 244.646824755 722.017578125 c 0
 232.150501429 726.78125 206.895778408 730 170.529419074 730 c 2
 153.665156296 730 l 1
 160.356141199 743.066612954 167.711958083 754.679312142 172.044642207 770 c 1
 440.026262596 770 l 1
 463.600534167 577.533293001 487.176738197 385.068518463 510.751737366 192.602539062 c 1
 635.931841527 385.068379266 761.112104552 577.534060606 886.292109524 770 c 1
 1123.80273438 770 l 1
 1117.84517191 756.666034262 1111.88688481 743.332648924 1105.92773438 730 c 1
 1096.40136719 730 l 2
 1035.9921875 730 1022.36621094 706.456054688 1005.22265625 654.708984375 c 0
 997.88442745 633.049804688 989.757047698 604.724609375 980.871554318 569.548828125 c 2
 872.881029223 156.481445312 l 2
EndSplineSet
EndChar

StartChar: N
Encoding: 78 78 40
Width: 892
Flags: W
HStem: -0 40<5.80239 78.6493 247.501 309.454> 730 40<131.81 225.469 678.406 726.629 888.158 951>
LayerCount: 2
Fore
SplineSet
744.822177599 617.462890625 m 2
 748.025903691 631.081054688 749.629283174 642.9921875 749.629283174 651.495117188 c 0
 749.629283174 699.174804688 719.778724538 728.770507812 675.241978165 730 c 1
 658.365044313 730 l 1
 664.123072331 740.363984397 669.881199673 750.72786947 675.639284683 761.091796875 c 1
 678.406276893 770 l 1
 965.802734375 770 l 1
 959.845171916 756.666034254 953.886884813 743.332648914 947.927734375 730 c 1
 938.401367188 730 l 2
 913.127929688 730 892.678710938 716.112304688 877.383789062 700.307617188 c 0
 859.219726562 681.538085938 844.005250944 651.942382812 835.098710436 621.21484375 c 0
 778.355071431 414.143140211 721.610726098 207.072143 664.867526554 -0 c 1
 605.016787489 0 l 1
 517.797375506 185.940172387 430.114260324 371.416641575 342.719675004 557.181640625 c 1
 232.649594311 152.399414062 l 2
 228.745274284 137.314453125 226.842651215 123.809570312 226.842651215 112.502929688 c 0
 226.842651215 62.4501953125 256.931795953 41.193359375 312.536511166 40 c 1
 329.526672322 40 l 1
 323.757350151 29.636526203 317.988900707 19.2721796795 312.220081294 8.908203125 c 1
 309.454100042 -0 l 1
 -9 0 l 1
 -3.04243754121 13.3339657469 2.91584956156 26.6673510871 8.875 40 c 1
 18.4013671875 40 l 2
 80.814453125 40 126.6850143 95.4599609375 142.402379258 152.848632812 c 2
 264.547343019 613.498046875 l 2
 267.013069727 622.763671875 268.25149335 632.3359375 268.25149335 642.322265625 c 0
 268.25149335 704.490234375 206.989456834 728.8125 128.818135807 730 c 1
 111.700593936 730 l 1
 117.48147298 740.363711434 123.261932306 750.727842586 129.042568496 761.091796875 c 1
 131.809560706 770 l 1
 393.186701357 770 l 1
 476.247336318 593.713713587 559.796026893 417.915482789 643.04094204 241.813476562 c 1
 744.822177599 617.462890625 l 2
EndSplineSet
EndChar

StartChar: O
Encoding: 79 79 41
Width: 870
Flags: W
HStem: -10 79<303.656 489.676> 703 77<430.712 618.927>
VStem: 74 147.313<177.194 445.961> 686.687 147.313<325.371 599.429>
LayerCount: 2
Fore
SplineSet
206.828677399 637.864257812 m 0
 279.218118687 712.017578125 391.215909091 780 533.838383838 780 c 0
 685.837436869 780 776.517578125 701.543945312 813.837890625 594.873046875 c 0
 827.342773438 556.272460938 834 513.408203125 834 466.422851562 c 0
 834 326.530273438 774.776367188 210.680664062 702.254655934 132.655273438 c 0
 629.968828914 58.041015625 520.187973485 -10 377.313131313 -10 c 0
 224.542613636 -10 132.865234375 70.6005859375 94.693359375 176.9765625 c 0
 80.833984375 215.602539062 74 258.501953125 74 305.515625 c 0
 74 445.185546875 134.212890625 560.384765625 206.828677399 637.864257812 c 0
601.133285985 186.731445312 m 0
 653.948863636 260.204101562 686.686868687 367.826171875 686.686868687 491.827148438 c 0
 686.686868687 623.172851562 653.437973485 703 533.838383838 703 c 0
 433.068892045 703 361.132891414 649.090820312 313.36261048 588.676757812 c 0
 259.164141414 520.131835938 221.313131313 420.5546875 221.313131313 303.262695312 c 0
 221.313131313 164.001953125 264.208412247 69 392.02020202 69 c 0
 489.866950758 69 556.588383838 124.765625 601.133285985 186.731445312 c 0
EndSplineSet
Substitution2: "Single Substitution lookup 7 subtable" ordmasculine
EndChar

StartChar: P
Encoding: 80 80 42
Width: 717
Flags: W
HStem: -0 67.8311<258.114 354.449> 0 40<-2.19761 73.4915> 345.5 76<331.265 495.248> 700 70<410.908 576.959> 730 40<164.561 253.713>
VStem: 625.123 136.778<523.29 658.481>
LayerCount: 2
Fore
SplineSet
166.836414577 770 m 1x6c
 267.341013496 770 367.845612416 770 468.350211335 770 c 0
 617.069722862 770 761.901367188 726.254882812 761.901367188 590.77734375 c 0
 761.901367188 506.637695312 709.665039062 449.42578125 654.334960938 413.594726562 c 0
 586.242149902 371.169921875 487.771694947 345.5 376.069234205 345.5 c 2
 310.526719354 345.5 l 1
 269.139962765 208.698242188 l 2
 258.997575541 176.061523438 247.60991945 142.537109375 247.60991945 113.626953125 c 0
 247.60991945 86.5078125 274.176338004 67.8310546875 354.04763739 67.8310546875 c 2
 370.746119424 67.8310546875 l 1
 364.734057868 45.2201237945 358.632442317 22.7440820269 352.802368522 -0 c 1xb4
 -17 0 l 1
 -11.0424375412 13.3339657469 -5.08415043844 26.6673510871 0.875 40 c 1
 10.4013671875 40 l 2
 79.0478515625 40 105.140305866 84.6611328125 124.325229356 153.893554688 c 2
 248.060510159 611.448242188 l 2
 257.000639446 644.108398438 261.242336526 669.193359375 261.242336526 685.895507812 c 0
 261.242336526 725.736328125 224.426003421 728.03515625 164.854839529 730 c 1
 148.246475636 730 l 1
 155.003974117 743.065871312 162.421515379 754.692656587 166.836414577 770 c 1x6c
392.955121011 632.40625 m 2
 331.265156719 421.5 l 1
 365.582759531 421.5 l 2
 481.5422784 421.5 567.183186997 461.810546875 606.293436437 526.791992188 c 0
 618.834195114 547.62890625 625.123007709 570.544921875 625.123007709 596.161132812 c 0
 625.123007709 665.159179688 578.967158097 700 470.44750627 700 c 0
 414.786240845 700 405.710934345 678.970703125 392.955121011 632.40625 c 2
EndSplineSet
EndChar

StartChar: Q
Encoding: 81 81 43
Width: 884
Flags: W
HStem: -260 117<558.082 702.779> -129 206<269.55 337.582> 703 77<436.889 629.387>
VStem: 74 147.823<176.807 446.989> 700.752 147.248<331.581 593.964>
LayerCount: 2
Fore
SplineSet
209.349943018 -172.368164062 m 0
 192.497244632 -194.405273438 170.272460938 -226 125.5 -226 c 0
 88.0322265625 -226 62 -201.1328125 62 -163.5 c 0
 62 -143.258789062 70.5361328125 -125.138671875 86.01171875 -110.82421875 c 0
 101.379882812 -96.6083984375 126.52734375 -82.654296875 162.58203125 -67.0078125 c 2
 316.892203245 -4.513671875 l 1
 198.926384807 15.6572265625 127.455078125 86.2744140625 94.1728515625 180.556640625 c 0
 80.6708984375 218.805664062 74 260.870117188 74 306.5859375 c 0
 74 446.094726562 135.619140625 561.205078125 210.104205404 638.005859375 c 0
 284.4568738 712.4453125 397.193003239 780 541.982725528 780 c 0
 696.349635617 780 788.59375 701.747070312 827.306640625 593.685546875 c 0
 841.173828125 554.974609375 848 511.684570312 848 463.962890625 c 0
 848 364.69140625 818.846679688 281.229492188 779.329101562 214.682617188 c 0
 737.37890625 144.041992188 673.814895483 81.1943359375 596.424709093 42.5859375 c 2
 402.83615493 -54.9423828125 l 1
 448.840019944 -62.2705078125 483.337545735 -81.5517578125 515.048292047 -99.203125 c 0
 554.521698057 -121.174804688 592.270637146 -143 647.829174664 -143 c 0
 721.697764215 -143 766.962890625 -105.329101562 783.489257812 -48.03515625 c 2
 787.5 -34.1328125 l 1
 802.891268328 -41.128262922 818.281933777 -48.1243162231 833.672851562 -55.1201171875 c 2
 842.876953125 -59.3046875 l 1
 840.708984375 -69.1796875 l 2
 821.494140625 -156.717773438 764.8359375 -218.46875 683.611095699 -246.29296875 c 0
 656.291855356 -255.452148438 627.172414827 -260 596.477927063 -260 c 0
 511.332244932 -260 450.821365913 -224.45703125 401.972386336 -192.288085938 c 0
 377.231147283 -175.995117188 354.071095999 -161.040039062 332.496326176 -147.426757812 c 0
 312.500697277 -134.809570312 293.435359435 -129 274.746641075 -129 c 0
 242.22534414 -129 227.173869362 -149.061523438 209.349943018 -172.368164062 c 0
612.401357815 192.944335938 m 0
 665.754419836 264.260742188 700.752399232 368.668945312 700.752399232 490.005859375 c 0
 700.752399232 624.178710938 666.187327555 703 541.982725528 703 c 0
 439.0243747 703 364.860016045 649.469726562 315.629299874 589.064453125 c 0
 260.447381838 521.357421875 221.823416507 421.82421875 221.823416507 304.41796875 c 0
 221.823416507 168.9140625 269.549701595 77 397.36084453 77 c 0
 497.439284429 77 566.33506403 131.366210938 612.401357815 192.944335938 c 0
EndSplineSet
EndChar

StartChar: R
Encoding: 82 82 44
Width: 813
Flags: W
HStem: -0 70<258.98 352.54> 0 40<-2.19761 73.4895 678.757 758.101> 375 63.5<336.228 395.061> 700 70<410.585 565.663> 730 40<164.496 253.555>
VStem: 608.862 138.04<524.422 661.946>
LayerCount: 2
Fore
SplineSet
166.769383959 770 m 1x6c
 267.168449298 770 367.567514637 770 467.966579976 770 c 0
 610.901414831 770 746.901367188 721.235351562 746.901367188 585.5 c 0
 746.901367188 520.231445312 718.924804688 473.874023438 682.918945312 440.3515625 c 0
 644.070987879 404.59375 587.916774835 379.416015625 526.765233753 365.481445312 c 1
 598.463847933 196.22265625 l 2
 612.997530522 162.526367188 626.008997324 135.060546875 637.260913619 114.228515625 c 0
 664.126953125 63.580078125 685.37890625 40 757.401367188 40 c 2
 773.802734375 40 l 1
 767.288328009 26.9191750933 760.132600075 15.288352061 755.927734375 -0 c 1
 542.838523036 0 l 1x74
 491.509017354 125.00026539 440.178933157 249.999952265 388.849209821 375 c 1
 315.531195377 375 l 1
 268.962440619 216.098632812 l 2
 258.837864242 182.268554688 247.458073637 147.48046875 247.458073637 117.5 c 0
 247.458073637 89.3720703125 273.99659646 70 353.784028 70 c 2
 370.464976005 70 l 1
 352.540066711 -0 l 1xa4
 -17 0 l 1
 -11.0424375412 13.3339657469 -5.08415043844 26.6673510871 0.875 40 c 1
 10.4013671875 40 l 2
 79.0478515625 40 105.138058465 84.6611328125 124.302837069 153.893554688 c 2
 247.908191209 611.448242188 l 2
 256.838933027 644.108398438 261.076176166 669.193359375 261.076176166 685.895507812 c 0
 261.076176166 725.736328125 224.298501585 728.03515625 164.789889639 730 c 1
 148.198965148 730 l 1
 154.949649749 743.06641665 162.359468951 754.693865764 166.769383959 770 c 1x6c
591.604669939 529.629882812 m 0
 603.0110584 548.680664062 608.861563836 570.752929688 608.861563836 596.450195312 c 0
 608.861563836 669.693359375 559.017180751 700 470.061672673 700 c 0
 414.459876649 700 405.391030576 679.020507812 392.653726295 632.60546875 c 2
 336.228419714 438.5 l 1
 370.544769574 438.5 l 2
 477.350508349 438.5 556.396268891 470.822265625 591.604669939 529.629882812 c 0
EndSplineSet
EndChar

StartChar: S
Encoding: 83 83 45
Width: 648
Flags: W
HStem: -10 78<202.115 384.388> 0 21G<16 77.7852> 704 76<329.528 494.916>
VStem: 149.081 131.49<539.533 650.695> 450.546 118.69<128.139 257.123>
LayerCount: 2
Fore
SplineSet
227.406938761 718.081054688 m 0xb8
 271.373762955 752.84765625 336.224176159 780 414.733901431 780 c 0
 488.588561547 780 535.55078125 756.368164062 573.887695312 721.4921875 c 1
 579.20635916 732.661479381 584.526055859 743.829738411 589.84375 755 c 1
 643.182617188 755 l 1
 628.108984705 684.297916337 613.035492414 613.595692482 597.961914062 542.893554688 c 2
 595.852539062 533 l 1
 539.641601562 533 l 1
 539.243164062 545.087890625 l 2
 535.823242188 648.834960938 512.370213099 704 417.940979288 704 c 0
 352.933970485 704 310.521618599 678.998046875 290.440843023 640.565429688 c 0
 283.863827888 627.9765625 280.571144438 614.479492188 280.571144438 599.583984375 c 0
 280.571144438 577.9609375 286.830792493 559.423828125 299.462837436 542.89453125 c 0
 328.795280968 504.51171875 374.601581459 474.353515625 420.824426241 443.928710938 c 0
 471.287879829 410.712890625 519.133055011 370.556640625 547.797851562 316.6328125 c 0
 562.221679688 289.250976562 569.236328125 257.479492188 569.236328125 221.88671875 c 0
 569.236328125 142.772460938 533.6796875 80.9091796875 488.647023904 40 c 1
 442.10368013 12.0380859375 373.800855965 -10 287.519813127 -10 c 0xb8
 213.240256954 -10 147.172573965 7.0390625 93.11328125 40 c 1
 77.78515625 9.1708984375 l 1
 75.2509765625 0 l 1
 16 0 l 1x78
 30.8017785305 89.5126745945 45.6028039869 179.026102263 60.404296875 268.5390625 c 2
 62.1337890625 279 l 1
 117.416015625 279 l 1
 118.208007812 267.34765625 l 2
 126.188476562 149.9140625 172.713316073 68 288.588839079 68 c 0
 364.033466504 68 414.71615393 97.97265625 438.547916074 141.907226562 c 0
 446.534291596 156.630859375 450.546270828 172.572265625 450.546270828 190.208984375 c 0
 450.546270828 215.22265625 443.734362295 236.556640625 430.288020241 255.073242188 c 0
 399.863583402 296.970703125 354.132448799 331.064453125 305.493855918 361.951171875 c 0
 254.359129197 394.423828125 206.031639572 432.233398438 173.39294097 482.095703125 c 0
 157.112218584 506.966796875 149.080952325 535.51171875 149.080952325 566.979492188 c 0
 149.080952325 633.703125 185.661684124 685.071289062 227.406938761 718.081054688 c 0xb8
EndSplineSet
EndChar

StartChar: T
Encoding: 84 84 46
Width: 830
Flags: W
HStem: -0 40<163.663 265.166 441.469 537.156> 703 67<295.437 448.618 613.067 768.834>
LayerCount: 2
Fore
SplineSet
406.221470039 703 m 0
 270.145857886 703 195.171245387 626.921336827 144.778320312 532 c 1
 78 532 l 1
 184.150390625 770 l 1
 898.991210938 770 l 1
 891.895180909 694.444988362 884.801981476 618.887146128 877.70703125 543.331054688 c 2
 876.643554688 532 l 1
 814.76171875 532 l 1
 814.76171875 544.5 l 2
 814.76171875 656.095703125 783.956054688 703 682.092161284 703 c 0
 605.430119199 703 590.198533552 662.201171875 572.478013334 594.372070312 c 1
 449.155846492 152.310546875 l 2
 441.982939114 125.999023438 432.868070898 107.615234375 432.868070898 85.5 c 0
 432.868070898 45.552734375 469.322441397 40 539.976956703 40 c 2
 557.533180706 40 l 1
 551.672394941 29.6355945457 545.810713165 19.2720851017 539.949403922 8.908203125 c 1
 537.156368285 -0 l 1
 148.860351562 0 l 1
 154.819292027 13.3328693223 160.777869845 26.6659303205 166.735351562 40 c 1
 176.26171875 40 l 2
 240.235352189 40 270.09644419 51.7734375 290.716129275 88.8701171875 c 0
 298.751336657 103.327148438 306.761032205 123.540039062 314.209467395 148.8125 c 2
 441.644141953 604.631835938 l 2
 447.689426247 627.772460938 450.63247147 647.103515625 450.63247147 661.5 c 0
 450.63247147 694.518554688 441.240034495 703 406.221470039 703 c 0
EndSplineSet
EndChar

StartChar: U
Encoding: 85 85 47
Width: 858
Flags: W
HStem: -10 81<308.529 489.121> 730 40<135.419 208.397 375.807 475.598 632.517 709.072 839.506 913.152>
VStem: 114 125.227<139.949 354.538>
LayerCount: 2
Fore
SplineSet
620.895768235 95.974609375 m 0
 559.40735023 25.740234375 480.371231344 -10 386.110021508 -10 c 0
 213.659179688 -10 114 68.94140625 114 231.5 c 0
 114 283.313476562 122.541992188 324.766601562 134.426757812 368.739257812 c 2
 200.399414062 614.635742188 l 2
 205.541015625 635.203125 213 667.60546875 213 688.5 c 0
 213 724.791992188 189.323242188 730 131.5 730 c 2
 114.293945312 730 l 1
 120.400208869 740.454283318 126.506201228 750.908837835 132.612304688 761.36328125 c 1
 135.418945312 770 l 1
 491.072592796 770 l 1
 484.844368544 756.666009612 478.615397573 743.332622856 472.385536889 730 c 1
 462.426389687 730 l 2
 385.775670786 730 366.453208247 714.599293684 346.701201301 660.38671875 c 0
 338.870687818 638.892578125 330.050895642 610.147460938 320.353105866 574.366210938 c 2
 252.384861384 323.30859375 l 2
 244.16333269 294.098632812 239.227148505 265.520507812 239.227148505 232.5 c 0
 239.227148505 131.796875 291.571119408 71 394.473459117 71 c 0
 465.045068577 71 511.836215121 99.0458984375 547.95866989 136.477539062 c 0
 611.990218154 202.830078125 642.807933932 303.356445312 670.844643357 412.477539062 c 0
 688.333130447 480.545898438 706.043158791 556.203125 716.609757821 623.837890625 c 0
 721.093671148 652.546875 723.261100109 672.578125 723.261100109 682.489257812 c 0
 723.261100109 716.254882812 683.695057076 727.779296875 629.139757333 730 c 1
 612.349584614 730 l 1
 618.141020932 740.363877045 623.932351607 750.727859734 629.72372783 761.091796875 c 1
 632.516985312 770 l 1
 929.30078125 770 l 1
 922.79979422 756.667445357 916.299402105 743.334523934 909.80078125 730 c 1
 900.5 730 l 2
 847.572265625 730 835.41796875 714.7265625 821.358398438 672.546875 c 0
 815.579101562 655.208984375 809.301757812 631.485351562 802.412583796 601.830078125 c 2
 757.465232214 401.860351562 l 2
 727.233528787 268.029296875 682.134059016 165.922851562 620.895768235 95.974609375 c 0
EndSplineSet
EndChar

StartChar: V
Encoding: 86 86 48
Width: 802
Flags: W
HStem: -10 21G<110 294.426> 730 40<181.919 252.325 415.823 503.507 660.723 721.454 861.909 941.199>
LayerCount: 2
Fore
SplineSet
695.511600766 669.655273438 m 0
 714.154475772 692.7265625 721.466565646 709.510742188 721.466565646 717.5 c 0
 721.466565646 726.083007812 704.533036811 730 665.396344016 730 c 0
 658.873731664 730 652.351119311 730 645.828506959 730 c 1
 652.044764411 743.103209096 658.796869823 754.724795549 662.780372047 770 c 1
 954.65625 770 l 1
 949.238080721 756.667949159 943.821753064 743.334251454 938.40625 730 c 1
 928.646484375 730 l 2
 888.790039062 730 866.427734375 715.48828125 836.784179688 692.60546875 c 0
 783.167035359 652.859375 740.363092139 603.401367188 689.294592616 543.565429688 c 0
 531.40965401 359.015256693 373.297438304 174.692360797 215.5546875 -10 c 1
 110 -10 l 1
 157.770486734 199.800777619 205.626133458 409.516395248 253.42863681 619.28515625 c 0
 261.683006307 653.57421875 265.619188429 678.657226562 265.619188429 693.5 c 0
 265.619188429 710.228515625 260.565513608 717.502929688 252.765475691 721.438476562 c 0
 243.593274907 726.06640625 219.725585938 730 183.646484375 730 c 2
 167.63671875 730 l 1
 173.603519385 743.122104277 180.080315282 754.774386127 183.88671875 770 c 1
 517.545031066 770 l 1
 511.893200822 756.667994718 506.243267939 743.334286706 500.59418466 730 c 1
 490.413490009 730 l 2
 429.855980012 730 411.382205998 718.36328125 396.880267931 677.4765625 c 0
 391.214366025 661.499023438 385.207206093 639.856445312 379.017702321 612.825195312 c 2
 283.560192451 195.135742188 l 1
 607.681971779 566.530273438 l 2
 647.260771986 611.794921875 676.58043913 646.228515625 695.511600766 669.655273438 c 0
EndSplineSet
Substitution2: "'ss01' Style Set 1 in Latin lookup 6 subtable" V.ss01
EndChar

StartChar: W
Encoding: 87 87 49
Width: 1114
Flags: W
HStem: -10 21G<108 271.096 456.224 637.786> 730 40<179.919 250.002 409.439 476.989 540.437 612.581 762.723 849.139 973.241 1026.93 1168.74 1251.2>
LayerCount: 2
Fore
SplineSet
602.691635152 619.336914062 m 2
 610.796467611 653.500976562 614.692770693 678.701171875 614.692770693 693.5 c 0
 614.692770693 728.44921875 599.438859583 730 542.216112087 730 c 2
 525.757469284 730 l 1
 531.886016377 743.110233874 538.541638003 754.742022442 542.463082084 770 c 1
 862.973917262 770 l 1
 857.403847323 756.667978851 851.83565542 743.334274409 846.268304463 730 c 1
 836.234897353 730 l 2
 776.553493262 730 758.346985563 718.36328125 744.05485192 677.4765625 c 0
 738.465900811 661.485351562 732.558699747 639.888671875 726.443682466 612.793945312 c 2
 633.420324849 208.739257812 l 1
 920.694620524 566.204101562 l 2
 957.617639006 612.096679688 984.936938014 647.487304688 1002.49690637 672.122070312 c 0
 1020.0026618 696.682617188 1026.93589269 713.727539062 1026.93589269 719.5 c 0
 1026.93589269 726.1953125 1014.22095362 730 978.823928619 730 c 2
 958.561345498 730 l 1
 964.689892591 743.110233873 971.345514218 754.742022441 975.266958297 770 c 1
 1264.65625 770 l 1
 1259.23808072 756.667949156 1253.82175307 743.334251451 1248.40625 730 c 1
 1238.64648438 730 l 2
 1198.31054688 730 1174.11035156 716.227539062 1144.67382812 694.021484375 c 0
 1091.56372432 655.047851562 1049.50051729 605.572265625 1001.69676374 543.932617188 c 0
 856.132320434 359.288470867 710.568352546 174.643849127 565.003612046 -10 c 1
 456.22437178 -10 l 1
 490.104487161 135.558554511 523.985227085 281.116484479 557.865576769 426.674804688 c 1
 443.199592434 281.097510829 328.381881222 135.671943847 213.810546875 -10 c 1
 108 -10 l 1
 155.671465237 199.786815788 203.397649532 409.518912518 251.089686825 619.28515625 c 0
 259.224637577 653.57421875 263.103873626 678.657226562 263.103873626 693.5 c 0
 263.103873626 710.228515625 258.123312022 717.502929688 250.436119882 721.438476562 c 0
 241.396616418 726.06640625 217.725585938 730 181.646484375 730 c 2
 165.63671875 730 l 1
 171.603519385 743.122104277 178.080315282 754.774386127 181.88671875 770 c 1
 490.824265981 770 l 1
 485.254196042 756.667978851 479.686004139 743.334274409 474.118653182 730 c 1
 464.085246072 730 l 2
 417.540437142 730 405.586486926 714.012695312 392.465954854 676.4765625 c 0
 386.866964314 660.45703125 380.945708047 639.125976562 374.848761741 612.768554688 c 2
 281.867569733 208.8984375 l 1
 599.229035479 605.026367188 l 1
 602.691635152 619.336914062 l 2
EndSplineSet
Substitution2: "'ss01' Style Set 1 in Latin lookup 6 subtable" W.ss01
EndChar

StartChar: X
Encoding: 88 88 50
Width: 831
Flags: W
HStem: 0 40<-25.5003 62.2619 214.864 283.517 410.214 489.734 688.749 765.773> 730 40<124.934 197.355 395.581 461.722 585.407 629.85 781.71 860.609>
LayerCount: 2
Fore
SplineSet
410.21350489 40 m 1
 413.675159604 40 417.136814319 40 420.598469033 40 c 0
 477.77864953 40 494.850962653 54.955078125 494.850962653 77.5 c 0
 494.850962653 97.6513671875 485.465956972 122.688476562 477.24216066 141.497070312 c 2
 401.372087176 302.944335938 l 1
 328.448138773 225.109375 l 2
 287.140524076 181.35546875 257.575829282 146.051757812 239.898064636 119.71484375 c 0
 221.98095902 93.021484375 214.4569308 73.53515625 214.4569308 63.5 c 0
 214.4569308 45.451171875 236.662904908 40 282.478445935 40 c 2
 298.704952408 40 l 1
 294.402514159 29.9183294077 290.099519443 19.8372152824 285.796766509 9.755859375 c 1
 283.516942349 0 l 1
 -39 0 l 1
 -33.6669060731 13.1423252081 -28.3343090411 26.285362707 -23 39.4267578125 c 1
 36.76139656 43.3745340651 57.8328489699 50.9303960066 87.9277041073 81.40625 c 0
 98.9982381485 92.4658203125 113.175134023 107.979492188 130.387400764 127.926757812 c 2
 364.724522306 397.505859375 l 1
 256.238156655 625.305664062 l 2
 237.943784763 663.000976562 222.906884046 691.819335938 198.202027941 710.926757812 c 0
 180.15612443 724.884765625 160.705613952 730 125.66548738 730 c 2
 108.632726367 730 l 1
 115.387863 743.061390761 122.81656772 754.667729888 127.195849772 770 c 1
 477.094093788 770 l 1
 470.907176838 756.66601335 464.719516486 743.332626806 458.530970383 730 c 1
 448.637872218 730 l 2
 405.421614697 730 392.03981764 717.041992188 392.03981764 692.5 c 0
 392.03981764 674.842773438 401.923788396 641.994140625 423.083152836 596.643554688 c 2
 465.741624197 506.106445312 l 1
 541.795260036 587.856445312 l 2
 573.419706995 621.619140625 596.258514856 648.9375 610.175786626 669.358398438 c 0
 624.237068642 689.991210938 629.855496508 705.075195312 629.855496508 712.5 c 0
 629.855496508 720.483398438 623.095128249 730 582.603909659 730 c 2
 565.156358574 730 l 1
 570.982044297 740.363562392 576.807029567 750.727825238 582.632306045 761.091796875 c 1
 585.407038652 770 l 1
 875.411132812 770 l 1
 869.453570354 756.666034253 863.495283251 743.332648912 857.536132812 730 c 1
 848.009765625 730 l 2
 815.495117188 730 797.111328125 721.208007812 774.384765625 705.678710938 c 0
 738.703916085 681.721679688 710.835905375 651.811523438 676.316041167 613.872070312 c 2
 500.366960697 420.998046875 l 1
 618.313379622 164.157226562 l 2
 650.288724784 92.74609375 673.585931453 40 763.009765625 40 c 2
 778.634765625 40 l 1
 773.227009236 26.840482139 767.418468907 15.1481075563 764.009765625 -0 c 1
 395.025494831 0 l 1
 410.21350489 40 l 1
EndSplineSet
EndChar

StartChar: Y
Encoding: 89 89 51
Width: 739
Flags: W
HStem: -0 40<145.802 246.935 427.143 510.527> 730 40<105.702 168.66 335.182 409.859 555.94 616.164 748.872 822>
LayerCount: 2
Fore
SplineSet
610.759229401 670.59765625 m 0
 616.452164775 680.283203125 619.080858681 689.735351562 619.080858681 699.5 c 0
 619.080858681 720.018554688 595.002474492 730 554.389718634 730 c 2
 537.137309827 730 l 1
 542.518379 740.272098426 547.900615517 750.543029507 553.282359498 760.814453125 c 1
 555.939815978 770 l 1
 836.802734375 770 l 1
 830.845171916 756.666034254 824.886884813 743.332648914 818.927734375 730 c 1
 809.401367188 730 l 2
 767.114257812 730 754.020507812 719.443359375 735.401367188 693.684570312 c 0
 727.490234375 682.73828125 717.486328125 668.553710938 704.984397767 651.377929688 c 2
 481.299906697 341.03125 l 1
 432.451809285 156.497070312 l 2
 424.166133224 126.52734375 420.27394049 103.311523438 420.27394049 87.2109375 c 0
 420.27394049 44.919921875 448.40373881 40 513.366068849 40 c 2
 531.038616698 40 l 1
 525.137806952 29.6364406465 519.237703413 19.2721750857 513.337306274 8.908203125 c 1
 510.526791806 -0 l 1
 131 0 l 1
 136.957562458 13.3339657474 142.915849561 26.6673510878 148.875 40 c 1
 158.401367188 40 l 2
 223.081835437 40 253.595845775 53.0107421875 273.872433894 93.0107421875 c 0
 281.344539978 107.751953125 288.718031518 127.8984375 295.535789021 152.78125 c 2
 342.79989034 333.188476562 l 1
 218.271294773 627.99609375 l 2
 201.872070312 667.818359375 190.697265625 696.66796875 169.327148438 715.4296875 c 0
 155.1171875 727.905273438 139.69140625 730 106.401367188 730 c 2
 90 730 l 1
 96.5144063661 743.080824907 103.670134299 754.71164794 107.875 770 c 1
 425.429632053 770 l 1
 419.16292766 756.666006135 412.895473477 743.332619182 406.627125902 730 c 1
 396.606450229 730 l 2
 351.772786495 730 335.070975551 726.55859375 335.070975551 707.5 c 0
 335.070975551 695.1796875 337.203515038 687.34765625 342.39926876 676.482421875 c 2
 445.744227861 439.586914062 l 1
 578.31607207 623.6484375 l 2
 593.742057367 644.313476562 604.488988058 659.932617188 610.759229401 670.59765625 c 0
EndSplineSet
EndChar

StartChar: Z
Encoding: 90 90 52
Width: 722
Flags: W
HStem: 0 75<200.095 440.173> 697 73<299.995 544.01>
LayerCount: 2
Fore
SplineSet
304.849385246 75 m 2
 460.525316376 75 539.044798786 136.484942884 592.938626649 246 c 1
 663.624023438 246 l 1
 631.834788496 163.709257091 599.928807411 81.7525130126 567.258444864 0 c 1
 -7 0 l 1
 -7 36.884765625 l 1
 176.556085083 257.03717797 360.359819747 476.941940734 544.010257909 697 c 1
 464.636270492 697 l 2
 349.50247607 697 286.652884352 685.919119759 234.98060683 627.918945312 c 0
 217.271717966 608.040558565 196.024850387 578.616018394 175.522490955 547 c 1
 102.091796875 547 l 1
 141.141126981 621.940409152 181.281500196 695.709595423 221.112384734 770 c 1
 746 770 l 1
 746 735.077148438 l 1
 564.143716687 514.939375841 382.044009429 295.045027189 200.094980709 75 c 1
 304.849385246 75 l 2
EndSplineSet
EndChar

StartChar: zero
Encoding: 48 48 53
Width: 706
Flags: W
HStem: -10 78<236.333 349.117> 703 77<401.117 513.336>
VStem: 69 137.159<131.008 358.76> 540.768 138.232<407.428 643.888>
LayerCount: 2
Fore
SplineSet
473.263643569 73.2529296875 m 0
 423.816129965 31.2865254873 359.728892511 -10 278.550724638 -10 c 0
 203.995640851 -10 154.947265625 25.2529296875 124.328125 66.8037109375 c 0
 89.22265625 114.444335938 69 182.693359375 69 261.895507812 c 0
 69 401.904296875 124.578125 528.569335938 187.8046875 614.956054688 c 0
 226.024088542 663.755859375 269.297582654 703.431640625 317.554262908 733.73046875 c 0
 366.165987319 764.250976562 416.675469882 780 468.376811594 780 c 0
 582.478515625 780 639.889648438 704.995117188 664.479492188 624.974609375 c 0
 674.208984375 593.314453125 679 558.528320312 679 520.705078125 c 0
 679 426.763671875 653.169921875 341.09375 621.418945312 271.990234375 c 0
 586.7265625 196.486328125 534.917742301 125.580078125 473.263643569 73.2529296875 c 0
457.217532835 233.596679688 m 0
 505.421846694 329.995117188 540.768115942 453.368164062 540.768115942 589.951171875 c 0
 540.768115942 658.641601562 517.693387681 703 457.652173913 703 c 0
 440.598533741 703 422.613819067 697.022460938 403.15551404 683.413085938 c 0
 356.416411911 650.721679688 320.065755208 596.927734375 290.782467165 538.365234375 c 0
 257.42297894 471.65234375 232.167713995 392.990234375 217.251670063 309.512695312 c 0
 209.85229846 268.104492188 206.15942029 227.21484375 206.15942029 186.822265625 c 0
 206.15942029 116.193359375 230.870074728 68 292.492753623 68 c 0
 309.5390625 68 327.295459692 73.95703125 346.365206069 87.525390625 c 0
 392.319859601 120.221679688 428.025362319 175.216796875 457.217532835 233.596679688 c 0
EndSplineSet
Substitution2: "'sups' Superscript in Latin lookup 4 subtable" zerosuperior
Substitution2: "'sinf' Scientific Inferiors in Latin lookup 3 subtable" zeroinferior
EndChar

StartChar: one
Encoding: 49 49 54
Width: 524
Flags: W
HStem: -0 65<13.875 118.94 337.215 416.928> 584.726 64.7236<127.747 266.817> 760 20G<391.678 483.441>
LayerCount: 2
Fore
SplineSet
349.077029593 270.135742188 m 1
 336.651729722 226.998046875 319.457495908 180.788085938 319.457495908 136.928710938 c 0
 319.457495908 81.7802734375 352.917162051 65 418.401367188 65 c 2
 434.802734375 65 l 1
 416.927734375 -0 l 1
 -4 0 l 1
 1.11603390643 10.0001770311 6.23240436401 20.000017511 11.3486328125 30 c 1
 13.875 65 l 1
 23.4013671875 65 l 2
 127.203410935 65 160.272185779 109.037242106 183.036654578 190.087890625 c 2
 296.434082246 586.895507812 l 2
 297.84194976 593.09375 298.322102107 595.524414062 298.322102107 599.698242188 c 0
 298.322102107 600.290039062 296.541627681 600.181640625 295.541129239 600.181640625 c 0
 284.978863926 600.181640625 266.024795718 597.803710938 240.197596519 592.749023438 c 0
 212.312911924 587.291992188 176.787069846 584.725585938 133.132313715 584.725585938 c 2
 117.100439655 584.725585938 l 1
 120.080945755 602.84438813 123.061426552 620.963215625 126.041919218 639.08203125 c 2
 127.747437735 649.44921875 l 1
 139.806648599 649.44921875 l 2
 274.445446654 649.44921875 358.131781324 712.908148512 425.223632812 780 c 1
 483.44140625 780 l 1
 438.953074035 609.745454059 393.810590648 440.145059289 349.077029593 270.135742188 c 1
EndSplineSet
Substitution2: "'sups' Superscript in Latin lookup 4 subtable" onesuperior
Substitution2: "'sinf' Scientific Inferiors in Latin lookup 3 subtable" oneinferior
EndChar

StartChar: two
Encoding: 50 50 55
Width: 675
Flags: W
HStem: 0 123<217.172 487.09> 430.5 78<275.965 324.077> 703 78<312.281 459.741>
VStem: 121.302 133.938<529.132 645.711> 497.732 144.57<498.178 665.041>
LayerCount: 2
Fore
SplineSet
401.05541224 123 m 2
 478.656398439 123 503.696675039 150.471052892 533.939453125 198 c 1
 595.65625 198 l 1
 523.552734375 -0 l 1
 11 0 l 1
 15.090804278 23.2688494337 19.1804001254 46.5379238536 23.275390625 69.8046875 c 1
 106.988678663 134.47523652 183.181531171 193.684705552 245.197357782 244.559570312 c 0
 306.465235978 294.821289062 355.902039654 340.497070312 393.448305687 381.416015625 c 0
 430.988312445 422.329101562 457.679950987 459.778320312 473.719345287 493.403320312 c 0
 489.846369449 527.2109375 497.732013776 559.825195312 497.732013776 591.466796875 c 0
 497.732013776 658.69921875 459.657882147 703 390.372914832 703 c 0
 327.906385315 703 284.129010198 670.463867188 265.413775483 631.26953125 c 0
 258.629763701 617.061523438 255.23932263 602.083984375 255.23932263 586.018554688 c 0
 255.23932263 535.420898438 285.084592974 508.5 342.301676499 508.5 c 2
 361.300665052 508.5 l 1
 354.865086292 491.765625 l 2
 340.366517057 454.065429688 300.395824854 430.5 250.432198796 430.5 c 0
 169.079347692 430.5 121.301757812 489.376953125 121.301757812 561.333984375 c 0
 121.301757812 631.8828125 161.792507419 683.87109375 207.266146285 717.447265625 c 0
 256.302356307 753.654296875 327.727995954 781 412.806159388 781 c 0
 519.953486166 781 594.111328125 739.926757812 626.23828125 669.771484375 c 0
 637.012695312 646.243164062 642.301757812 620.09765625 642.301757812 591.692382812 c 0
 642.301757812 557.069335938 633.995117188 521.961914062 617.728515625 486.618164062 c 0
 601.401367188 451.142578125 575.841796875 414.267578125 541.2578125 375.723632812 c 0
 505.633306292 337.206054688 458.340304586 295.8828125 400.628738271 251.594726562 c 0
 349.396565647 212.278320312 286.804850613 168.465820312 217.17249349 123 c 1
 401.05541224 123 l 2
EndSplineSet
Substitution2: "'sups' Superscript in Latin lookup 4 subtable" twosuperior
Substitution2: "'sinf' Scientific Inferiors in Latin lookup 3 subtable" twoinferior
EndChar

StartChar: three
Encoding: 51 51 56
Width: 667
Flags: W
HStem: -10 77<175.328 354.075> 227.5 69<179.586 226.785> 354.5 66.332<194.506 315.864> 510.5 63<286.573 326.909> 704 76<315.822 458.278>
VStem: 24 125.383<91.0118 196.714> 155.844 124.896<580.731 671.451> 431.475 147.525<146.834 309.734> 478.85 136.15<533.55 683.428>
LayerCount: 2
Fore
SplineSet
156.518590635 174.53515625 m 0xff
 151.790209811 164.21484375 149.383435583 153.044921875 149.383435583 140.755859375 c 0
 149.383435583 90.1005859375 191.04933438 67 259.743865031 67 c 0
 344.87680035 67 395.27290728 104.7578125 418.913759945 159.466796875 c 0
 427.218129913 178.684570312 431.475460123 200.33203125 431.475460123 224.645507812 c 0xff
 431.475460123 285.524414062 405.095574315 331.65625 365.458978384 352.307617188 c 0
 352.749023438 359.153320312 339.299897551 362.5 324.345092025 362.5 c 0
 303.894345523 362.5 264.816070744 354.5 239.286809816 354.5 c 0
 214.82267003 354.5 191.374233129 363.014648438 191.374233129 385.877929688 c 0
 191.374233129 402.719726562 204.047387246 414.915039062 221.641337951 420.83203125 c 0
 258.99523102 433.392578125 304.301257549 439.1640625 345.173309888 448.725585938 c 0
 396.870063267 460.818359375 434.541494919 485.61328125 459.088699434 524.134765625 c 0
 471.818631974 544.109375 478.849693252 572.219726562 478.849693252 608.901367188 c 0
 478.849693252 674.236328125 458.760646329 704 395.406441718 704 c 0
 329.519288607 704 280.739263804 671.668945312 280.739263804 621.411132812 c 0
 280.739263804 589.8359375 298.94305682 573.5 334.035276074 573.5 c 2
 355.243068204 573.5 l 1
 346.213196175 555.677734375 l 2
 332.571654525 528.754882812 299.095517398 510.5 260.820552147 510.5 c 0
 196.05950441 510.5 155.843558282 555.063476562 155.843558282 611.323242188 c 0
 155.843558282 667.16796875 190.232355972 707.275390625 227.922713765 732.654296875 c 0
 270.655836609 761.428710938 332.122684409 780 404.01993865 780 c 0
 521.01953125 780 615 726.791015625 615 618.607421875 c 0xfe80
 615 561.9765625 588.24609375 516.649414062 559.478515625 484.211914062 c 0
 532.751953125 454.07421875 496.147460938 428.27734375 450.534083829 412.841796875 c 1
 526.291992188 385.176757812 579 327.564453125 579 239.6015625 c 0
 579 159.759765625 535.055664062 100.552734375 486.273997675 62.5146484375 c 0
 430.469220308 21.578125 347.875542202 -10 251.130368098 -10 c 0
 151.742894459 -10 74.2265625 22.6494140625 40.4384765625 84.3310546875 c 0
 29.4423828125 104.405273438 24 126.795898438 24 150.936523438 c 0
 24 214.361328125 60.4140625 263.05859375 106.509765625 284.7109375 c 0
 123.1640625 292.534179688 140.984375 296.5 160.688650307 296.5 c 0
 200.109698524 296.5 239.436116037 278.046875 247.100151577 242.451171875 c 2
 250.319698404 227.5 l 1
 233.903374233 227.5 l 2
 195.159461273 227.5 169.117091641 202.037109375 156.518590635 174.53515625 c 0xff
EndSplineSet
Substitution2: "'sups' Superscript in Latin lookup 4 subtable" threesuperior
Substitution2: "'sinf' Scientific Inferiors in Latin lookup 3 subtable" threeinferior
EndChar

StartChar: four
Encoding: 52 52 57
Width: 628
Flags: W
HStem: 0 21G<243.936 396.163> 272.5 86<166.813 321.457 480.967 582.885> 760 20G<523.454 592.186>
LayerCount: 2
Fore
SplineSet
592.185546875 780 m 1
 555.324519291 639.288266891 518.001647026 499.038378463 480.967264796 358.5 c 1
 521.988918718 358.5 563.01057264 358.5 604.032226562 358.5 c 1
 582.884765625 272.5 l 1
 541.280528075 272.5 499.676290524 272.5 458.072052974 272.5 c 1
 433.30836657 181.666723732 408.545133914 90.8329937168 383.781164959 0 c 1
 243.935844269 0 l 1
 269.776749287 90.8327371903 295.616357826 181.666770859 321.456770893 272.5 c 1
 218.637847262 272.5 115.818923631 272.5 13 272.5 c 1
 30.859375 340.868164062 l 1
 194.926686124 486.22337898 359.278479385 631.29411176 523.454101562 776.541015625 c 1
 527.076171875 780 l 1
 592.185546875 780 l 1
166.813415247 358.5 m 1
 346.782923232 358.5 l 1
 410.318581776 573.231445312 l 1
 166.813415247 358.5 l 1
EndSplineSet
Substitution2: "'sups' Superscript in Latin lookup 4 subtable" foursuperior
Substitution2: "'sinf' Scientific Inferiors in Latin lookup 3 subtable" fourinferior
EndChar

StartChar: five
Encoding: 53 53 58
Width: 660
Flags: W
HStem: -10 77<181.631 349.024> 227.5 69<171.301 211.44> 428.5 75<248.379 403.415> 636 126<303.836 551.497>
VStem: 31 120<96.0485 207.041> 455.33 147.67<179.939 371.886>
LayerCount: 2
Fore
SplineSet
450.507549808 762 m 0
 518.695877937 762 580.220557479 767.098412054 621.416992188 781.352539062 c 1
 624.463341175 780.845502632 627.508900704 780.337676746 630.5546875 779.830078125 c 2
 645.243164062 777.381835938 l 1
 640.287109375 763.33984375 l 2
 610.620117188 679.283203125 546.921875 636 449.435966445 636 c 0
 400.426724635 636 350.635771133 642.810546875 309.234352608 651.68359375 c 1
 247.111818693 493.725585938 l 1
 278.093554073 501.515625 310.907655144 503.5 343.349213562 503.5 c 0
 465.911560643 503.5 549.331054688 445.703125 584.49609375 365.271484375 c 0
 596.860351562 336.994140625 603 306.3203125 603 273.596679688 c 0
 603 185.1640625 557.203125 116.404296875 504.317987387 72.5693359375 c 0
 446.09145431 26.30859375 360.364785313 -10 256.550961202 -10 c 0
 156.07955629 -10 79.5751953125 22.4462890625 46.7822265625 86.548828125 c 0
 36.216796875 107.201171875 31 130.10546875 31 154.779296875 c 0
 31 214.201171875 61.0908203125 261.426757812 102.237304688 284.314453125 c 0
 116.739257812 292.381835938 132.72265625 296.5 149.5 296.5 c 0
 187.261167083 296.5 224.652519743 275.82421875 232.152556812 242.575195312 c 2
 235.553578226 227.5 l 1
 219.045543516 227.5 l 2
 179.401144978 227.5 151 193.010742188 151 150.9609375 c 0
 151 96.5048828125 194.557142867 67 262.980461377 67 c 0
 325.286127215 67 369.713931563 94.1162109375 399.911862316 127.763671875 c 0
 432.677825853 164.2734375 455.329674939 218.265625 455.329674939 284.962890625 c 0
 455.329674939 377.458984375 413.974301012 428.5 318.702796225 428.5 c 0
 256.63049278 428.5 220.936511422 406.638671875 186.045171119 381.15625 c 0
 176.659398484 374.301757812 166.773414084 369.5 155.822125131 369.5 c 0
 138.340820312 369.5 128 384.350585938 128 399 c 0
 128 404.874023438 128.831054688 410.5234375 130.65234375 415.986328125 c 0
 176.22335336 538.445618235 221.99318759 660.706083726 267.440508536 783.2890625 c 1
 280.075564706 779.358398438 l 2
 320.766431372 766.701171875 387.323897211 762 450.507549808 762 c 0
EndSplineSet
Substitution2: "'sups' Superscript in Latin lookup 4 subtable" fivesuperior
Substitution2: "'sinf' Scientific Inferiors in Latin lookup 3 subtable" fiveinferior
EndChar

StartChar: six
Encoding: 54 54 59
Width: 685
Flags: W
HStem: -10 70<238.274 367.493> 426.5 74<280.417 421.154> 710 70<416.499 541.604>
VStem: 71 126.444<139.977 326.26> 458.417 150.583<176.248 384.125> 545.408 128.592<607.527 707.444>
LayerCount: 2
Fore
SplineSet
607.5 591 m 0xf4
 568.497070312 591 545.408284024 619.987304688 545.408284024 658.5 c 0xf4
 545.408284024 698.015625 538.107632789 710 501.912721893 710 c 0
 436.349496695 710 386.138510078 675.213867188 348.07255166 638.37109375 c 0
 304.001201923 595.29296875 267.546190251 536.455078125 245.111449473 471.209960938 c 1
 288.103590745 491.286132812 329.8487166 500.5 375.184911243 500.5 c 0
 487.926012389 500.5 562.874023438 448.0234375 593.147460938 372.1796875 c 0
 603.776367188 345.55078125 609 316.171875 609 284.293945312 c 0xf8
 609 196.760742188 569.009765625 125.357421875 520.178508691 78.1748046875 c 0
 471.40856428 32.099609375 398.126219259 -10 304.303254438 -10 c 0
 176.858398438 -10 113.4921875 67.3798828125 86.4990234375 157.212890625 c 0
 76.103515625 191.809570312 71 230.596679688 71 273.52734375 c 0
 71 416.317382812 127.180664062 539.844726562 195.458420974 624.130859375 c 0
 263.633458018 702.84690816 367.932667999 780 501.912721893 780 c 0
 574.129882812 780 632 755.2890625 660.145507812 709.55078125 c 0
 669.314453125 694.65234375 674 678.041015625 674 660.5 c 0
 674 620.8671875 648.366210938 591 607.5 591 c 0xf4
242.387732873 368.952148438 m 0
 214.312580899 331.633789062 197.443786982 275.203125 197.443786982 209.404296875 c 0
 197.443786982 122.4296875 223.4129617 60 297.859467456 60 c 0
 349.664620123 60 386.680736293 90.0009765625 410.556519277 123.998046875 c 0
 438.999797753 164.499023438 458.417159763 222.497070312 458.417159763 289.666992188 c 0xf8
 458.417159763 386.564453125 423.211261095 426.5 355.853550296 426.5 c 0
 302.259155996 426.5 266.611715283 401.150390625 242.387732873 368.952148438 c 0
EndSplineSet
Substitution2: "'sups' Superscript in Latin lookup 4 subtable" sixsuperior
Substitution2: "'sinf' Scientific Inferiors in Latin lookup 3 subtable" sixinferior
EndChar

StartChar: seven
Encoding: 55 55 60
Width: 574
Flags: W
HStem: -10 21G<107.001 138.343> 680 115<253.642 511.009> 811 20G<180.962 254.17>
LayerCount: 2
Fore
SplineSet
189.269757876 23.591796875 m 0
 172.568359375 5.79296875 154.185546875 -10 122.5 -10 c 0
 91.5029296875 -10 62 8.634765625 62 43.5 c 0
 62 52.4580078125 64.384765625 61.671875 68.48828125 71.3701171875 c 0
 72.7001953125 81.326171875 80.2578125 94.5673828125 91.4462890625 112.198242188 c 0
 131.14453125 174.75390625 167.681640625 225.44140625 223.23912426 299.705078125 c 2
 511.009402412 680 l 1
 336.572030284 680 l 2
 271.555506657 680 235.932535964 678.173828125 213.592047212 651.77734375 c 0
 206.456933962 643.346679688 198.246767529 631.064453125 189.054116092 614.653320312 c 0
 180.701158876 599.42573883 172.230787401 584.315571608 163.965820312 569 c 1
 95.1669921875 569 l 1
 129.64525746 656.365933314 162.713797659 744.657612547 199.210318131 831 c 1
 254.169519366 831 l 1
 254.169519366 818.5 l 2
 254.169519366 811.513671875 253.092362361 811.170898438 253.092362361 810.5 c 0
 253.092362361 799.09765625 273.05553194 795 318.260361191 795 c 0
 429.17845694 795 540.096552689 795 651.014648438 795 c 1
 645.4375 757.819335938 l 1
 560.281518693 632.875669137 482.840414233 495.799813089 396.825500277 351.44921875 c 0
 359.473187673 288.763671875 317.832233358 219.111328125 271.851093687 142.408203125 c 0
 244.317319646 96.6103515625 222.28714468 57.3095703125 189.269757876 23.591796875 c 0
EndSplineSet
Substitution2: "'sups' Superscript in Latin lookup 4 subtable" sevensuperior
Substitution2: "'sinf' Scientific Inferiors in Latin lookup 3 subtable" seveninferior
EndChar

StartChar: nine
Encoding: 57 57 61
Width: 684
Flags: W
HStem: -10 70<180.396 304.281> 279.5 74<300.846 442.529> 710 70<353.766 483.771>
VStem: 48 128.592<62.5555 162.473> 113 150.583<395.828 600.723> 524.556 126.444<449.689 629.84>
LayerCount: 2
Fore
SplineSet
114.5 179 m 0xf4
 153.502929688 179 176.591715976 150.012695312 176.591715976 111.5 c 0xf4
 176.591715976 71.984375 183.892367211 60 220.087278107 60 c 0
 285.513111363 60 335.934905464 96.81640625 373.81208106 134.537109375 c 0
 418.302948179 179.249023438 453.762654863 241.255859375 476.794159116 308.74609375 c 1
 434.006532567 288.764648438 392.100941314 279.5 346.815088757 279.5 c 0
 234.073987611 279.5 159.125976562 331.951171875 128.852539062 407.758789062 c 0
 118.223632812 434.375 113 463.740234375 113 495.602539062 c 0xec
 113 581.041992188 153.549804688 649.383789062 201.941053763 694.90625 c 0
 251.136808316 740.185546875 324.435934033 780 417.696745562 780 c 0
 545.349609375 780 608.651367188 702.528320312 635.510742188 612.272460938 c 0
 645.889648438 577.39453125 651 538.772460938 651 496.47265625 c 0
 651 353.682617188 594.819335938 230.155273438 526.541579026 145.869140625 c 0
 458.366541981 67.15309184 354.067332002 -10 220.087278107 -10 c 0
 147.870117188 -10 90 14.7109375 61.8544921875 60.44921875 c 0
 52.685546875 75.34765625 48 91.958984375 48 109.5 c 0
 48 149.1328125 73.6337890625 179 114.5 179 c 0xf4
479.789513221 408.809570312 m 0
 507.654906504 444.022460938 524.556213018 497.357421875 524.556213018 560.733398438 c 0
 524.556213018 647.627929688 498.5870383 710 424.140532544 710 c 0
 371.711347772 710 335.69682935 681.452148438 311.293503259 648.267578125 c 0
 283.042153985 609.849609375 263.582840237 554.918945312 263.582840237 490.20703125 c 0xec
 263.582840237 393.3984375 298.788738905 353.5 366.146449704 353.5 c 0
 419.278326091 353.5 455.381991956 377.965820312 479.789513221 408.809570312 c 0
EndSplineSet
Substitution2: "'sups' Superscript in Latin lookup 4 subtable" ninesuperior
Substitution2: "'sinf' Scientific Inferiors in Latin lookup 3 subtable" nineinferior
EndChar

StartChar: eight
Encoding: 56 56 62
Width: 689
Flags: W
HStem: -10 78<210.491 388.562> 703 77<331.074 488.63>
VStem: 43 126.442<109.445 278.354> 146 137.26<534.402 651.76> 459.354 133.646<133.93 280.339> 527 120<531.285 667.262>
LayerCount: 2
Fore
SplineSet
480.713564712 422.39453125 m 1xd4
 544.77184761 380.378462874 593 319.995564404 593 227 c 0
 593 107.212890625 509.784407264 38.35546875 410.559342736 7.619140625 c 0
 372.516846423 -4.1650390625 331.269888459 -10 287.017699115 -10 c 0
 142.41796875 -10 43 56.34375 43 188.2265625 c 0xe8
 43 293.3984375 111.305664062 366.7734375 243.377880715 407.821289062 c 1
 190.496923396 444.963867188 146 497.3046875 146 571.110351562 c 0
 146 637.916992188 185.815011984 687.887695312 228.571925701 719.57421875 c 0
 274.812223451 753.83984375 342.208679019 780 422.309734513 780 c 0
 522.249930863 780 596.401367188 741.115234375 630.065429688 679.009765625 c 0
 641.329101562 658.229492188 647 635.651367188 647 611.822265625 c 0
 647 557.983398438 619.982421875 514.880859375 591.013671875 485.654296875 c 0
 563.815429688 458.21484375 526.410697824 435.146484375 480.713564712 422.39453125 c 1xd4
311.670872511 381.245117188 m 1
 214.805113846 338.331054688 169.442477876 275.036132812 169.442477876 187.5 c 0
 169.442477876 107.489257812 209.092447917 68 293.460176991 68 c 0
 371.966341722 68 423.075198193 101.2734375 447.173672566 149.751953125 c 0
 455.237255715 165.970703125 459.353982301 184.077148438 459.353982301 204.5 c 0
 459.353982301 235.06640625 451.269427544 261.302734375 435.232439159 284.163085938 c 0
 418.953228706 307.369140625 394.166885601 329.975585938 361.147089325 351.1171875 c 2
 311.670872511 381.245117188 l 1
495.531054111 517.749023438 m 0
 516.650511615 542.642578125 527 570.473632812 527 602.5 c 0
 527 664.721679688 484.330118455 703 413.719764012 703 c 0
 353.184169893 703 312.32413809 677.036132812 293.172865966 640.514648438 c 0
 286.603509864 627.987304688 283.259587021 614.147460938 283.259587021 598.5 c 0xd4
 283.259587021 578.520507812 289.994618824 557.446289062 304.446153669 534.909179688 c 0
 318.541171184 512.9296875 340.529901825 492.419921875 370.541320981 473.997070312 c 2
 407.797382006 451.994140625 l 1
 446.90943031 472.28125 475.191740413 493.776367188 495.531054111 517.749023438 c 0
EndSplineSet
Substitution2: "'sups' Superscript in Latin lookup 4 subtable" eightsuperior
Substitution2: "'sinf' Scientific Inferiors in Latin lookup 3 subtable" eightinferior
EndChar

StartChar: period
Encoding: 46 46 63
Width: 262
Flags: W
HStem: -22.5 165<14.1097 123.641>
VStem: -13.5 165<5.37067 114.33>
LayerCount: 2
Fore
SplineSet
151.5 59 m 0
 151.5 13.2665074578 112.850439747 -22.5 68 -22.5 c 0
 23.3794171529 -22.5 -13.5 12.153111727 -13.5 58 c 0
 -13.5 103.44499783 21.6246735142 142.5 68 142.5 c 0
 114.946926399 142.5 151.5 105.175321632 151.5 59 c 0
EndSplineSet
EndChar

StartChar: comma
Encoding: 44 44 64
Width: 265
Flags: W
VStem: -13.5 165<3.33833 114.33>
LayerCount: 2
Fore
SplineSet
68 142.5 m 0
 114.946926399 142.5 151.5 105.175321632 151.5 59 c 0
 151.5 18.623609908 137.071755718 -23.0461120676 109.503708103 -65.7765858728 c 0
 81.7984057264 -108.719804556 42.2783129536 -148.442536474 -8.69619092669 -185.144179269 c 2
 -18.8487296321 -192.454007137 l 1
 -56.5189053769 -140.04332784 l 1
 -46.1936675771 -132.777419759 l 2
 -11.0159241758 -108.02271144 15.2335502478 -83.0555918256 32.802231559 -58.2712021177 c 0
 45.3277177564 -40.6013198035 53.2946394322 -23.924651171 56.3763034521 -12.2224627227 c 1
 52.4425904392 -12.5117063265 52.2618677635 -12.5 50 -12.5 c 0
 7.30080248747 -12.5 -13.5 19.2479553499 -13.5 58 c 0
 -13.5 103.44499783 21.6246735142 142.5 68 142.5 c 0
EndSplineSet
EndChar

StartChar: colon
Encoding: 58 58 65
Width: 304
Flags: W
HStem: -22.5 165<30.1097 139.641> 287.5 165<112.11 221.641>
VStem: 2.5 165<5.37067 114.33> 84.5 165<315.371 424.33>
LayerCount: 2
Fore
SplineSet
167.5 59 m 0xe0
 167.5 13.2665074578 128.850439747 -22.5 84 -22.5 c 0
 39.3794171529 -22.5 2.5 12.153111727 2.5 58 c 0
 2.5 103.44499783 37.6246735142 142.5 84 142.5 c 0
 130.946926399 142.5 167.5 105.175321632 167.5 59 c 0xe0
249.5 369 m 0xd0
 249.5 323.266507457 210.850439747 287.5 166 287.5 c 0
 121.379417152 287.5 84.5 322.153111727 84.5 368 c 0
 84.5 413.444997831 119.624673515 452.5 166 452.5 c 0
 212.946926399 452.5 249.5 415.175321632 249.5 369 c 0xd0
EndSplineSet
EndChar

StartChar: semicolon
Encoding: 59 59 66
Width: 306
Flags: W
HStem: 287.5 165<112.11 221.641>
VStem: 2.5 165<3.33833 114.33> 84.5 165<315.371 424.33>
LayerCount: 2
Fore
SplineSet
249.5 369 m 0xa0
 249.5 323.266507457 210.850439747 287.5 166 287.5 c 0
 121.379417152 287.5 84.5 322.153111727 84.5 368 c 0
 84.5 413.444997831 119.624673515 452.5 166 452.5 c 0
 212.946926399 452.5 249.5 415.175321632 249.5 369 c 0xa0
84 142.5 m 0
 130.946926399 142.5 167.5 105.175321632 167.5 59 c 0
 167.5 18.623609908 153.071755718 -23.0461120676 125.503708103 -65.7765858728 c 0
 97.7984057264 -108.719804556 58.2783129536 -148.442536474 7.30380907331 -185.144179269 c 2
 -2.84872963209 -192.454007137 l 1
 -40.5189053769 -140.04332784 l 1
 -30.1936675771 -132.777419759 l 2
 4.98407582418 -108.02271144 31.2335502478 -83.0555918256 48.802231559 -58.2712021177 c 0
 61.3277177564 -40.6013198035 69.2946394322 -23.924651171 72.3763034521 -12.2224627227 c 1
 68.4425904392 -12.5117063265 68.2618677635 -12.5 66 -12.5 c 0
 23.3008024875 -12.5 2.5 19.2479553499 2.5 58 c 0xc0
 2.5 103.44499783 37.6246735142 142.5 84 142.5 c 0
EndSplineSet
EndChar

StartChar: exclam
Encoding: 33 33 67
Width: 317
Flags: W
HStem: -22.5 151<67.8007 172.364>
VStem: 44.5 151<1.05286 105.539> 115.112 59.6726<194.5 260.854>
LayerCount: 2
Fore
SplineSet
252 792.5 m 0xa0
 304.154138826 792.5 319.5 753.190946214 319.5 705 c 0
 319.5 671.878897559 313.11190352 648.970976415 304.40824014 621.699497828 c 0
 283.207421147 555.270264984 250.754152916 485.918714338 228.403528601 416.184766474 c 0
 207.209061015 350.058027607 187.107169756 277.677495451 176.365043279 205.168141736 c 2
 174.784577837 194.5 l 1
 115.111954321 194.5 l 1
 131.598468542 350.77841606 148.084982764 507.056832119 164.571496986 663.335248179 c 0
 172.223260641 733.294230162 185.554571538 792.5 252 792.5 c 0xa0
195.5 52 m 0xc0
 195.5 10.1752945693 159.841359655 -22.5 119 -22.5 c 0
 78.3758535336 -22.5 44.5 9.07820825774 44.5 51 c 0
 44.5 93.1035831309 76.9156282586 128.5 120 128.5 c 0
 162.40564297 128.5 195.5 93.53049405 195.5 52 c 0xc0
EndSplineSet
EndChar

StartChar: exclamdown
Encoding: 161 161 68
Width: 318
Flags: W
HStem: 641.5 151<183.636 288.199>
VStem: 160.5 151<664.461 768.947> 179.635 60.2228<507.734 575.5>
LayerCount: 2
Fore
SplineSet
104 -22.5 m 0xa0
 51.8458611746 -22.5 36.5 16.8090537852 36.5 65 c 0
 36.5 122.361276413 53.6080047884 160.581698472 70.8813661104 204.110569004 c 0
 113.443206552 311.366406915 160.270315268 434.120528465 179.634956721 564.831858264 c 2
 181.215422163 575.5 l 1
 239.857720644 575.5 l 1
 223.715140568 419.226086507 207.572560493 262.952173012 191.429980418 106.678259518 c 0
 183.776305796 36.7018058302 170.451634113 -22.5 104 -22.5 c 0xa0
160.5 718 m 0xc0
 160.5 759.824705431 196.158640345 792.5 237 792.5 c 0
 277.624146467 792.5 311.5 760.921791742 311.5 719 c 0
 311.5 676.896416869 279.084371741 641.5 236 641.5 c 0
 193.59435703 641.5 160.5 676.46950595 160.5 718 c 0xc0
EndSplineSet
EndChar

StartChar: question
Encoding: 63 63 69
Width: 468
Flags: W
HStem: -22.5 151<143.787 247.542> 178.5 68<209.847 289.085> 520.5 113.812<227.63 283.211> 720.5 73<246.852 380.594>
VStem: 120.5 151<0.544424 104.342> 121.5 106<603.026 700.944> 129.5 79<248.46 316.759> 409.5 89<583.344 691.839>
LayerCount: 2
Fore
SplineSet
271.5 52 m 0xf9
 271.5 9.78258143543 236.632910748 -22.5 195 -22.5 c 0
 153.715579842 -22.5 120.5 10.7123870494 120.5 52 c 0
 120.5 93.9143057318 153.986138476 128.5 196 128.5 c 0
 237.608454863 128.5 271.5 93.1157429951 271.5 52 c 0xf9
232 178.5 m 0
 164.091192591 178.5 129.5 223.490844586 129.5 290 c 0xf3
 129.5 363.211706523 166.616331528 409.42032784 206.365107832 443.49070753 c 0
 266.935777658 495.408424523 347.54894929 529.76309804 391.68413543 585.739431681 c 0
 403.654782427 600.921715676 409.5 617.915184504 409.5 638 c 0
 409.5 688.371189775 369.49619418 720.5 314 720.5 c 0
 267.000591708 720.5 227.5 696.247111885 227.5 660 c 0
 227.5 642.185264454 234.47743401 641.100904085 254.088882048 634.312325918 c 0
 273.510361163 627.589506225 297.5 617.638215289 297.5 582 c 0
 297.5 542.160676214 267.627103733 520.5 230 520.5 c 0
 167.183856434 520.5 121.5 572.052193268 121.5 634 c 0xf5
 121.5 685.322283184 150.247028858 723.80543368 180.191311905 747.760860118 c 0
 213.411137115 774.336720286 262.425218444 793.5 319 793.5 c 0
 403.09342266 793.5 460.358774369 753.208942051 485.578692512 691.209976615 c 0
 494.252457514 669.886970984 498.5 646.384542129 498.5 621 c 0
 498.5 543.931282376 459.856132354 493.538082 419.472535184 456.309453359 c 0
 359.577604751 401.093814366 276.475966193 367.125585179 226.53738364 314.864277856 c 0
 213.954632089 301.696282047 208.500000001 288.477537731 208.5 274 c 0xf3
 208.5 254.563971988 215.859476748 246.5 242 246.5 c 0
 267.261383068 246.5 287.776186452 259.565889981 305.042768113 291.015735152 c 2
 311.25953112 302.339124916 l 1
 359.282462504 273.881091504 l 1
 354.23737336 263.525382209 l 2
 327.436876567 208.513836159 285.990846874 178.5 232 178.5 c 0
EndSplineSet
EndChar

StartChar: questiondown
Encoding: 191 191 70
Width: 470
Flags: W
HStem: -22.5 73<126.406 260.148> 136.688 113.812<223.789 279.37> 524.5 68<217.915 297.153> 642.5 151<259.458 363.213>
VStem: 8.5 89<79.1611 187.656> 235.5 151<666.658 770.456> 279.5 106<70.0561 167.974> 298.5 79<454.055 522.54>
LayerCount: 2
Fore
SplineSet
235.5 719 m 0xfc
 235.5 761.217418564 270.367089252 793.5 312 793.5 c 0
 353.284420158 793.5 386.5 760.28761295 386.5 719 c 0
 386.5 677.085694268 353.013861524 642.5 311 642.5 c 0
 269.391545137 642.5 235.5 677.884257005 235.5 719 c 0xfc
275 592.5 m 0
 342.908807409 592.5 377.5 547.509155414 377.5 481 c 0xf9
 377.5 407.788293477 340.383668472 361.57967216 300.634892168 327.50929247 c 0
 240.064222342 275.591575477 159.45105071 241.23690196 115.31586457 185.260568319 c 0
 103.345217573 170.078284324 97.5 153.084815495 97.5 133 c 0
 97.5 82.6288102248 137.50380582 50.5 193 50.5 c 0
 239.999408292 50.5 279.5 74.7528881147 279.5 111 c 0
 279.5 128.814735546 272.52256599 129.899095915 252.911117952 136.687674082 c 0
 233.489638837 143.410493775 209.5 153.361784711 209.5 189 c 0
 209.5 228.839323786 239.372896267 250.5 277 250.5 c 0
 339.816143566 250.5 385.5 198.947806732 385.5 137 c 0xfa
 385.5 85.6777168159 356.752971142 47.19456632 326.808688094 23.239139882 c 0
 293.588862885 -3.3367202855 244.574781556 -22.5 188 -22.5 c 0
 103.90657734 -22.5 46.6412256312 17.7910579496 21.421307488 79.790023385 c 0
 12.7475424857 101.113029016 8.5 124.615457871 8.5 150 c 0
 8.5 227.068717624 47.1438676463 277.461918 87.5274648158 314.690546641 c 0
 147.264546644 369.760668951 230.088921608 404.091673757 280.56015997 455.736661847 c 0
 292.985563962 468.451028724 298.499999999 481.730632714 298.5 497 c 0xf9
 298.5 516.436028012 291.140523252 524.5 265 524.5 c 0
 239.738616932 524.5 219.223813548 511.434110019 201.957231887 479.984264848 c 2
 195.74046888 468.660875084 l 1
 147.717537496 497.118908496 l 1
 152.76262664 507.474617791 l 2
 179.563123433 562.486163841 221.009153126 592.5 275 592.5 c 0
EndSplineSet
EndChar

StartChar: equal
Encoding: 61 61 71
Width: 637
Flags: W
HStem: 239.5 75<74.5192 533.481> 409.5 75<124.519 583.481>
LayerCount: 2
Fore
SplineSet
533.480754986 239.5 m 1
 53.5192450143 239.5 l 1
 74.5192450143 314.5 l 1
 554.480754986 314.5 l 1
 533.480754986 239.5 l 1
583.480754986 409.5 m 1
 103.519245014 409.5 l 1
 124.519245014 484.5 l 1
 604.480754986 484.5 l 1
 583.480754986 409.5 l 1
EndSplineSet
EndChar

StartChar: hyphen
Encoding: 45 45 72
Width: 465
Flags: W
HStem: 235.5 108<73.4928 378.507>
LayerCount: 2
Fore
SplineSet
43.5650885541 235.5 m 1
 73.4927993975 343.5 l 1
 408.434911446 343.5 l 1
 378.507200602 235.5 l 1
 43.5650885541 235.5 l 1
EndSplineSet
EndChar

StartChar: endash
Encoding: 8211 8211 73
Width: 726
Flags: W
HStem: 235.5 108<73.4928 639.507>
LayerCount: 2
Fore
SplineSet
43.5650885541 235.5 m 1
 73.4927993975 343.5 l 1
 669.434911446 343.5 l 1
 639.507200602 235.5 l 1
 43.5650885541 235.5 l 1
EndSplineSet
EndChar

StartChar: emdash
Encoding: 8212 8212 74
Width: 1114
Flags: W
HStem: 235.5 108<73.4928 1027.51>
LayerCount: 2
Fore
SplineSet
43.5650885541 235.5 m 1
 73.4927993975 343.5 l 1
 1057.43491145 343.5 l 1
 1027.5072006 235.5 l 1
 43.5650885541 235.5 l 1
EndSplineSet
EndChar

StartChar: underscore
Encoding: 95 95 75
Width: 731
Flags: W
HStem: -155.5 93<-30.9677 533.968>
LayerCount: 2
Fore
SplineSet
-62.4236028344 -155.5 m 1
 -30.9677204815 -62.5 l 1
 565.423602834 -62.5 l 1
 533.967720482 -155.5 l 1
 -62.4236028344 -155.5 l 1
EndSplineSet
EndChar

StartChar: parenleft
Encoding: 40 40 76
Width: 337
Flags: W
VStem: 19.5 115<10.3644 312.205>
LayerCount: 2
Fore
SplineSet
134.5 101 m 0
 134.5 -10.1365453276 162.300347389 -86.9564223776 208.53152686 -159.266728729 c 2
 214.833317754 -169.123376025 l 1
 157.540508415 -211.339130275 l 1
 150.07896439 -201.604147054 l 2
 63.3007535938 -88.3857001562 19.5000000001 34.8186251067 19.5 167 c 0
 19.5 286.735906291 53.4286627815 404.195866769 120.720104499 518.828021253 c 0
 187.878712395 633.233890987 285.483062768 740.991505657 410.800355488 840.451171988 c 2
 420.662681121 848.267589645 l 1
 459.979286915 802.398216218 l 1
 451.890979915 794.213619849 l 2
 351.754412742 692.884950686 269.423886826 594.196212528 209.799476936 468.154738456 c 0
 160.589430344 364.128437432 134.5 249.96782711 134.5 101 c 0
EndSplineSet
EndChar

StartChar: parenright
Encoding: 41 41 77
Width: 335
Flags: W
VStem: 211.5 111<356.596 642.508>
LayerCount: 2
Fore
SplineSet
202.044464917 838.440344383 m 2
 271.932655498 744.091287098 322.5 631.562514016 322.5 482 c 0
 322.5 338.145187255 274.311707386 221.248443477 215.224159099 122.577974493 c 0
 139.35418189 -4.11752142975 34.7163290213 -112.10545479 -84.3686517457 -203.900127465 c 2
 -93.9668278053 -211.298721511 l 1
 -132.42877678 -164.475479281 l 1
 -123.134892168 -156.50929247 l 2
 -29.7789889974 -76.4899468954 54.97811674 33.0467315267 113.831892344 150.114567783 c 0
 167.581971334 257.030485774 211.5 387.819108581 211.5 537 c 0
 211.5 579.21033439 205.826015661 620.371805954 194.470029195 660.604443724 c 0
 183.125814437 700.795376006 165.137855776 747.41785153 141.915902752 797.193763561 c 2
 137.282675895 807.103721007 l 1
 194.714002661 848.336468428 l 1
 202.044464917 838.440344383 l 2
EndSplineSet
EndChar

StartChar: bracketleft
Encoding: 91 91 78
Width: 369
Flags: W
HStem: -162.5 72<98.3312 229.512> 760.5 72<328.568 479.512>
LayerCount: 2
Fore
SplineSet
328.567548539 760.5 m 1
 98.3312471694 -90.5 l 1
 148.696429085 -90.5 199.061611 -90.5 249.426792915 -90.5 c 1
 229.511899298 -162.5 l 1
 -36.3242354126 -162.5 l 1
 232.428341907 832.5 l 1
 499.426792915 832.5 l 1
 479.511899298 760.5 l 1
 429.197115712 760.5 378.882332125 760.5 328.567548539 760.5 c 1
EndSplineSet
EndChar

StartChar: bracketright
Encoding: 93 93 79
Width: 369
Flags: W
HStem: -162.5 72<-98.5119 51.4325> 760.5 72<150.488 281.669>
LayerCount: 2
Fore
SplineSet
51.4324514607 -90.5 m 1
 281.668752831 760.5 l 1
 231.303570916 760.5 180.938389 760.5 130.573207085 760.5 c 1
 150.488100702 832.5 l 1
 417.340488277 832.5 l 1
 147.562137762 -162.5 l 1
 -118.426792915 -162.5 l 1
 -98.5118992981 -90.5 l 1
 -48.5304490452 -90.5 1.45100120777 -90.5 51.4324514607 -90.5 c 1
EndSplineSet
EndChar

StartChar: braceleft
Encoding: 123 123 80
Width: 336
Flags: W
VStem: 12.5 116<-102.308 40.4602> 85.5 117<157.482 307.736>
LayerCount: 2
Fore
SplineSet
171 -162.5 m 2x80
 78.9543170686 -162.5 12.5 -150.30499095 12.5 -68 c 0x80
 12.5 -47.590574023 16.7705229788 -22.6675505055 24.9333767773 7.26291342245 c 2
 77.9416568743 203.293534158 l 2
 83.050387136 221.812681357 85.4999999999 238.650132101 85.5 254 c 0
 85.5 293.36420185 70.497585899 314.49722973 34.9324857331 317.545666887 c 2
 19.892979883 318.834767388 l 1
 33.0302528324 365.75359935 l 1
 89.2348830824 376.994525403 118.807612413 393.745579712 137.469487646 438.326726102 c 0
 143.202455191 452.022148569 148.731883507 468.40805523 153.94523383 487.306450149 c 2
 201.939920953 662.287080285 l 2
 224.197937876 744.470527386 252.104720512 810.978337649 339.428166623 833.1166761 c 0
 364.545132279 839.484357534 395.309089864 842.5 431.999999999 842.5 c 2
 448.179200352 842.5 l 1
 436.203703493 796.593928706 l 1
 367.108203214 780.011008638 339.663209421 748.464073192 321.086913266 676.812645163 c 2
 273.088726051 497.819405343 l 2
 254.224201069 424.719371035 224.836659958 367.975998169 156.218488724 342.050857801 c 1
 185.841957784 328.768058377 202.5 304.7724141 202.5 266 c 0x40
 202.5 246.330940733 198.581425215 222.746717224 191.074894814 194.767831186 c 2
 138.035288668 -3.38013139612 l 2
 132.543710481 -22.0514972312 128.5 -38.8057444326 128.5 -58 c 0
 128.5 -92.8468000458 146.038895662 -105.556529254 180.625092441 -116.037194945 c 2
 192.257745807 -119.562241419 l 1
 180.547448012 -162.5 l 1
 171 -162.5 l 2x80
EndSplineSet
EndChar

StartChar: braceright
Encoding: 125 125 81
Width: 336
Flags: W
VStem: 150.5 112<379.008 521.364> 220.5 116<634.777 783.565>
LayerCount: 2
Fore
SplineSet
262.5 421.999999999 m 0x80
 262.5 386.612768942 280.287952982 375.740933306 318.711630723 367.202338252 c 2
 331.595732267 364.339204576 l 1
 318.678883489 318.207601797 l 1
 309.958706236 317.536818931 l 2
 246.629663947 312.66535414 213.258211285 256.106242806 197.066623223 196.737086578 c 2
 144.072316741 0.75814185215 l 2
 123.039309574 -78.1156350224 88.8738854293 -138.314853508 2.91822530682 -155.263856912 c 0
 -21.4899534603 -160.076737233 -51.8358691522 -162.446795546 -84.4083958146 -162.499999999 c 2
 -101.36562983 -162.499999999 l 1
 -89.162646359 -117.755727271 l 1
 -17.5679505084 -98.843920817 9.90179011421 -70.1419321272 28.912384761 3.18464722458 c 2
 81.922063255 201.220783132 l 2
 100.058020688 269.230623509 128.426884596 321.743650547 194.899080748 344.222226878 c 1
 165.811956556 359.061867293 150.5 385.504944896 150.5 424 c 0x80
 150.5 453.904395066 157.148743884 479.386036951 163.933447839 504.26328479 c 2
 211.933447839 683.26328479 l 2
 217.748688928 704.58583545 220.5 722.536535198 220.5 737 c 0
 220.5 767.536407824 206.656273942 785.526582642 173.565985901 794.980950653 c 2
 161.821621396 798.336483369 l 1
 173.342538778 842.5 l 1
 183 842.5 l 2
 265.800306129 842.5 336.5 831.020941173 336.5 746 c 0x40
 336.5 712.755777098 328.749398771 684.273081087 321.062548398 655.721922557 c 2
 273.042849974 480.650105385 l 2
 265.856023945 455.169540375 262.5 435.425863746 262.5 421.999999999 c 0x80
EndSplineSet
EndChar

StartChar: AE
Encoding: 198 198 82
Width: 1121
Flags: W
HStem: 0 66.0088<609.002 864.541> 0 40<-68.75 4.83235 140.376 206.318 374.318 457.191> 265 87.5<385.098 518.385> 372.5 69<681.985 778.788> 701 69<745.971 956.186> 730 40<477.122 575.932>
VStem: 1030.44 60.0654<543 610.499>
LayerCount: 2
Fore
SplineSet
720.323950459 441.5 m 2x3a
 807.064785259 441.5 823.872087892 489.452179097 854.889731987 555.5 c 1
 916.86426139 555.5 l 1
 895.275065655 451.838753415 873.685622151 348.1777546 852.09633287 244.516601562 c 2
 850.010313917 234.5 l 1
 784.218941755 234.5 l 1
 785.630691955 248.244140625 l 2
 787.654501589 267.94140625 788.649850699 284.8984375 788.649850699 299 c 0
 788.649850699 355.4765625 775.597934135 372.5 719.296493312 372.5 c 2
 665.880762209 372.5 l 1
 617.778911035 170.196289062 l 2
 609.646547586 136.399414062 605.762478627 112.057617188 605.762478627 98.404296875 c 0
 605.762478627 70.6904296875 651.768277087 66.0087890625 709.747362782 66.0087890625 c 0xba
 713.323395272 66.0087890625 716.857285966 66.015625 720.323950459 66.015625 c 0
 832.489360117 66.015625 899.949346766 89.73046875 944.746077002 147.130859375 c 0
 961.313129409 168.358961616 977.419316785 197.107440642 991.904296875 228.442382812 c 1
 1064.95703125 228.442382812 l 1
 1035.84662736 152.305504444 1006.00274389 76.5238611882 977.715820312 0 c 1
 357.621543993 0 l 1
 374.317722623 40 l 1
 384.345463562 40 l 2
 444.440669493 40 460.787673234 51.513671875 476.034976747 92.734375 c 0
 481.907737176 108.61328125 487.980169451 130.185546875 494.068655745 157.1796875 c 2
 518.385476004 265 l 1
 318.946411462 265 l 1
 258.0163966 202.874023438 l 2
 214.49796754 158.453125 185.867633343 130.435546875 156.249977045 92 c 0
 143.949589195 76.0380859375 140.324391275 73.189453125 140.324391275 61.5 c 0
 140.324391275 43.0439453125 157.776112123 40 204.540462929 40 c 2
 220.989811034 40 l 1
 214.864609048 26.8895181163 208.212691732 15.2573149804 204.293632404 0 c 1
 -85 0 l 1
 -68.75 40 l 1
 -58.990234375 40 l 2
 -19.7841796875 40 3.189453125 56.048828125 32.287109375 79.76953125 c 0
 85.0534177264 121.697265625 126.932330206 171.568359375 178.260035605 233.543945312 c 2
 562.54606578 696.33203125 l 2
 572.76745831 708.58984375 575.869897272 716.953125 575.966221379 718.0390625 c 0
 575.284928994 718.936523438 570.90820236 722.25390625 560.363722719 724.595703125 c 0
 545.123442839 727.982421875 517.123228845 730 477.844063891 730 c 2
 460.992361962 730 l 1
 467.678561962 743.067001235 475.028946513 754.68017952 479.358158456 770 c 1
 1090.50976562 770 l 1x76
 1090.50976562 543 l 1
 1030.44433594 543 l 1
 1005.25493237 636.023680198 978.980119234 701 869.305236697 701 c 2
 745.971247452 701 l 1
 681.984948929 441.5 l 1
 720.323950459 441.5 l 2x3a
385.097995652 352.5 m 1
 533.714052983 352.5 l 1
 602.563715558 605.83203125 l 1
 385.097995652 352.5 l 1
EndSplineSet
EndChar

StartChar: bar
Encoding: 124 124 83
Width: 350
Flags: W
VStem: 114.5 105<-262.5 832.5>
LayerCount: 2
Fore
SplineSet
219.5 832.5 m 1
 219.5 -262.5 l 1
 114.5 -262.5 l 1
 114.5 832.5 l 1
 219.5 832.5 l 1
EndSplineSet
EndChar

StartChar: brokenbar
Encoding: 166 166 84
Width: 338
Flags: W
VStem: 109.5 105<-192.5 217.5 352.5 762.5>
LayerCount: 2
Fore
SplineSet
214.5 762.5 m 1
 214.5 352.5 l 1
 109.5 352.5 l 1
 109.5 762.5 l 1
 214.5 762.5 l 1
214.5 217.5 m 1
 214.5 -192.5 l 1
 109.5 -192.5 l 1
 109.5 217.5 l 1
 214.5 217.5 l 1
EndSplineSet
EndChar

StartChar: logicalnot
Encoding: 172 172 85
Width: 676
Flags: W
HStem: 300.5 75<83.5 491.5>
VStem: 491.5 75<97.5 300.5>
LayerCount: 2
Fore
SplineSet
491.5 300.5 m 1
 355.5 300.5 219.5 300.5 83.5 300.5 c 1
 83.5 375.5 l 1
 566.5 375.5 l 1
 566.5 97.5 l 1
 491.5 97.5 l 1
 491.5 165.166666667 491.5 232.833333333 491.5 300.5 c 1
EndSplineSet
EndChar

StartChar: uni00AD
Encoding: 173 173 86
Width: 488
Flags: W
HStem: 235.5 108<68.5 402.5>
LayerCount: 2
Fore
SplineSet
68.5 235.5 m 1
 68.5 343.5 l 1
 402.5 343.5 l 1
 402.5 235.5 l 1
 68.5 235.5 l 1
EndSplineSet
EndChar

StartChar: guilsinglleft
Encoding: 8249 8249 87
Width: 307
Flags: W
VStem: 11.1005 260.942
LayerCount: 2
Fore
SplineSet
11.1005191699 264.237047009 m 1
 245.087527002 438.903404969 l 1
 272.042759725 398.470555884 l 1
 226.318232698 352.073609344 180.593705673 305.676662802 134.869178647 259.279716261 c 1
 155.327428733 212.997117706 175.785678818 166.714519151 196.243928904 120.431920596 c 1
 155.265581711 86.2832979348 l 1
 11.1005191699 264.237047009 l 1
EndSplineSet
EndChar

StartChar: guilsinglright
Encoding: 8250 8250 88
Width: 307
Flags: W
VStem: 7.81235 260.021
LayerCount: 2
Fore
SplineSet
35.1443687285 86.2820525026 m 1
 7.81235074615 125.327792477 l 1
 53.2435054004 171.768528346 98.6746600547 218.209264215 144.105814709 264.650000084 c 1
 123.286614176 310.989510947 102.467413644 357.32902181 81.6482131111 403.668532673 c 1
 124.923098481 438.621324703 l 1
 267.833846678 259.701569087 l 1
 35.1443687285 86.2820525026 l 1
EndSplineSet
EndChar

StartChar: guillemotleft
Encoding: 171 171 89
Width: 478
Flags: W
LayerCount: 2
Fore
SplineSet
11.1005191699 264.237047009 m 1
 245.087527002 438.903404969 l 1
 272.042759725 398.470555884 l 1
 226.318232698 352.073609344 180.593705673 305.676662802 134.869178647 259.279716261 c 1
 155.327428733 212.997117706 175.785678818 166.714519151 196.243928904 120.431920596 c 1
 155.265581711 86.2832979348 l 1
 11.1005191699 264.237047009 l 1
182.10051917 264.237047009 m 1
 416.087527002 438.903404969 l 1
 443.042759725 398.470555884 l 1
 397.318232698 352.073609344 351.593705673 305.676662802 305.869178647 259.279716261 c 1
 326.327428733 212.997117706 346.785678818 166.714519151 367.243928904 120.431920596 c 1
 326.265581711 86.2832979348 l 1
 182.10051917 264.237047009 l 1
EndSplineSet
EndChar

StartChar: guillemotright
Encoding: 187 187 90
Width: 478
Flags: W
LayerCount: 2
Fore
SplineSet
206.144368729 86.2820525026 m 1
 178.812350746 125.327792477 l 1
 224.2435054 171.768528346 269.674660055 218.209264215 315.105814709 264.650000084 c 1
 294.286614176 310.989510947 273.467413645 357.329021811 252.648213111 403.668532673 c 1
 295.923098481 438.621324703 l 1
 438.833846678 259.701569087 l 1
 206.144368729 86.2820525026 l 1
35.1443687285 86.2820525026 m 1
 7.81235074615 125.327792477 l 1
 53.2435054004 171.768528346 98.6746600547 218.209264215 144.105814709 264.650000084 c 1
 123.286614176 310.989510947 102.467413644 357.32902181 81.6482131111 403.668532673 c 1
 124.923098481 438.621324703 l 1
 267.833846678 259.701569087 l 1
 35.1443687285 86.2820525026 l 1
EndSplineSet
EndChar

StartChar: numbersign
Encoding: 35 35 91
Width: 670
Flags: W
HStem: 242.5 75<58.341 186.499 285.389 397.667 497.305 622.659> 462.5 75<89.341 220.611 318.413 430.695 529.354 651.659>
LayerCount: 2
Fore
SplineSet
622.658988901 242.5 m 1
 576.378383647 242.5 530.097778392 242.5 483.817173138 242.5 c 1
 471.483839805 157.5 459.150506471 72.5000000007 446.817173138 -12.5 c 1
 362.667119925 -12.5 l 1
 374.333786592 72.4999999994 386.000453258 157.5 397.667119925 242.5 c 1
 271.775285575 242.5 l 1
 259.108618908 157.5 246.441952242 72.4999999994 233.775285575 -12.5 c 1
 148.499224229 -12.5 l 1
 161.165890895 72.5000000008 173.832557562 157.5 186.499224229 242.5 c 1
 139.779819852 242.5 93.0604154755 242.5 46.3410110988 242.5 c 1
 58.3410110988 317.5 l 1
 105.607591726 317.5 152.874172354 317.5 200.140752981 317.5 c 1
 220.611341216 462.5 l 1
 172.85456451 462.5 125.097787805 462.5 77.3410110988 462.5 c 1
 89.3410110988 537.5 l 1
 137.280276559 537.5 185.219542019 537.5 233.158807479 537.5 c 1
 244.825474146 619.166666667 256.492140812 700.833333334 268.158807479 782.5 c 1
 353.412621093 782.5 l 1
 341.745954426 700.833333334 330.07928776 619.166666667 318.412621093 537.5 c 1
 444.114901373 537.5 l 1
 455.448234706 619.166666667 466.78156804 700.833333333 478.114901373 782.5 c 1
 563.354486382 782.5 l 1
 552.021153048 700.833333334 540.687819715 619.166666667 529.354486382 537.5 c 1
 574.122653888 537.5 618.890821395 537.5 663.658988901 537.5 c 1
 651.658988901 462.5 l 1
 606.74689522 462.5 561.834801539 462.5 516.922707858 462.5 c 1
 497.305060799 317.5 l 1
 543.0897035 317.5 588.8743462 317.5 634.658988901 317.5 c 1
 622.658988901 242.5 l 1
305.859247019 462.5 m 1
 285.388658784 317.5 l 1
 411.077292142 317.5 l 1
 430.694939201 462.5 l 1
 305.859247019 462.5 l 1
EndSplineSet
EndChar

StartChar: asterisk
Encoding: 42 42 92
Width: 532
Flags: W
HStem: 478.5 104<135.154 246.388> 547.5 105<413.221 516.902>
VStem: 159.5 117.106<653.521 738.56> 209.5 116<361.153 451.842> 326.5 117<676.271 768.327> 374.873 121.627<395.507 479.815>
LayerCount: 2
Fore
SplineSet
494 536.5 m 0x68
 465.962747613 536.5 452.359976642 547.5 419 547.5 c 0x68
 407.442802411 547.5 393.058980002 546.378189051 381.685121468 545.047863738 c 1
 402.560158968 525.306911057 424.338135663 511.857383352 449.298387819 497.297236261 c 0
 468.191191514 486.276434106 496.5 471.637202234 496.5 435 c 0
 496.5 399.767375197 470.458779518 377.5 438 377.5 c 0
 393.275057003 377.5 381.546180308 416.276458448 374.873218748 442.968304687 c 0
 370.293430168 461.287459008 352.667387381 491.19673834 337.521517262 510.644787724 c 1
 329.714637209 481.839829001 325.5 456.923491075 325.5 420.795137008 c 0
 324.071515751 377.226367391 305.708575126 347.5 268 347.5 c 0
 231.491184653 347.5 209.5 375.281403267 209.5 408 c 0
 209.5 418.556283608 212.002212899 428.512147492 217.787901709 436.70853997 c 0
 229.651728985 453.51562861 255.764450609 476.055165223 264.547301141 492.023984372 c 0
 271.292739525 504.288417797 277.017953368 516.53552085 282.490087231 529.267516979 c 1
 240.705213412 519.968307953 213.503169894 507.113522832 184.70853997 486.787901709 c 0
 176.70534077 481.138584627 167.08566966 478.5 157 478.5 c 0
 124.609675765 478.5 99.5 507.322908134 99.5 538 c 0
 99.5 571.371815722 127.807316698 595.5 161 595.5 c 0
 188.943367594 595.5 210.087507629 582.500000002 242 582.5 c 0x94
 250.776277024 582.5 261.554979272 583.298308223 272.8575708 584.714603476 c 1
 248.566323048 609.195980392 229.044372868 622.464473792 200.514348367 638.026305339 c 0
 182.577447771 647.8100693 159.5 659.082399892 159.5 693 c 0
 159.5 730.192253879 185.684535768 752.5 219 752.5 c 0
 256.071837985 752.5 268.065588359 722.993309147 276.605958636 701.642383454 c 0
 288.58588725 671.692561919 300.196707762 646.189373528 317.175756759 621.840835433 c 1
 324.974427794 651.383464463 326.5 674.117450949 326.5 713 c 0
 326.5 748.156144069 344.697865398 782.5 384 782.5 c 0
 415.864357574 782.5 443.5 756.307503504 443.5 725 c 0
 443.5 713.536082874 439.665231572 702.411200395 432.962120175 692.159382963 c 0
 412.316380899 660.583546422 387.805023294 633.187820387 371.55435415 601.648729406 c 1
 400.552347801 609.215653408 420.44660619 617.745971601 441.223306033 629.809861833 c 0
 454.936150589 637.772158672 471.169264517 652.5 496 652.5 c 0
 527.153990641 652.5 552.5 622.309334204 552.5 593 c 0
 552.5 562.146628397 527.590111831 536.5 494 536.5 c 0x68
EndSplineSet
EndChar

StartChar: bullet
Encoding: 8226 8226 93
Width: 485
Flags: W
HStem: 203.5 330<173.022 332.514>
VStem: 86.5 333<289.261 449.994>
LayerCount: 2
Fore
SplineSet
250 203.5 m 0
 174.671887573 203.5 123.589560655 251.25588792 100.085776469 303.904364496 c 0
 91.0239972781 324.202749885 86.5000000011 346.033134161 86.5 369 c 0
 86.5 445.936923555 134.999058779 497.50981957 189.649287499 520.520442189 c 0
 210.201484918 529.173998997 232.098982654 533.5 255 533.5 c 0
 330.191463052 533.5 383.21567205 486.760091528 406.45674223 433.4993057 c 0
 415.173437024 413.523546797 419.5 391.898672778 419.5 369 c 0
 419.5 291.724928019 371.352118045 239.638044356 316.350712501 216.479557811 c 0
 295.748497027 207.804940769 273.517253172 203.5 250 203.5 c 0
EndSplineSet
EndChar

StartChar: section
Encoding: 167 167 94
Width: 621
Flags: W
HStem: -185.5 71<140.501 205.807> 777.5 65<410.327 487.747>
VStem: -13.5 147<-110.944 17.825> 120.5 125<438.335 655.126> 224.5 118<-77.4179 139.993> 286.5 107<558.288 728.315> 388.5 126<8.35254 235.974> 489.5 136<635.511 766.914>
LayerCount: 2
Fore
SplineSet
64 40.5 m 0xe2
 116.380941592 40.5 133.5 1.48458345203 133.5 -47 c 0
 133.5 -92.3924394389 143.289339805 -114.5 169 -114.5 c 0
 212.117466088 -114.5 224.5 -65.799891952 224.5 2 c 0xea
 224.5 34.6579757259 219.184635413 73.4108895414 208.352493687 118.052443321 c 0
 186.4867937 208.165631145 157.906382383 308.936692476 136.814268668 401.214689981 c 0
 125.989761874 448.571907205 120.5 491.123493732 120.5 529 c 0
 120.5 641.776530853 163.520932942 722.032374992 227.257982403 772.313825122 c 0
 280.864200032 814.603174585 355.342074313 842.5 442 842.5 c 0
 518.290160586 842.5 579.052955762 810.901283103 609.257208535 759.866511174 c 0
 620.124012375 741.50535986 625.5 720.626892066 625.5 698 c 0
 625.5 656.064516426 603.05776346 615.5 557 615.5 c 0
 510.326561685 615.5 489.5 649.344301208 489.5 693 c 0
 489.5 706.252293462 492.5 721.809139661 492.5 732 c 0
 492.5 763.805174466 480.641805797 777.5 445 777.5 c 0
 432.515915319 777.5 421.313677174 772.220123997 410.034462043 758.916434354 c 0
 399.997845685 747.078374035 393.5 725.736504062 393.5 693 c 0xd5
 393.5 655.699193528 399.62417286 614.103541585 412.063515932 568.274382896 c 0
 437.556069302 474.354449427 470.252533105 371.911359079 495.107288358 275.108628092 c 0
 507.995918195 224.910806624 514.5 177.201698531 514.5 132 c 0
 514.5 16.6094212336 466.293881139 -64.7564150912 400.050239922 -114.962122119 c 0
 345.066379135 -156.634100822 267.413372216 -185.5 181 -185.5 c 0
 101.572240863 -185.5 35.9711408153 -159.325500702 3.33935869905 -106.026923245 c 0
 -7.99522007802 -87.5137779096 -13.5 -65.8912299998 -13.5 -42 c 0
 -13.5 4.79771806121 15.7289539378 40.5 64 40.5 c 0xe2
315.873606938 -85.7905064448 m 1
 364.588027961 -52.6110745409 388.5 5.25337277068 388.5 89 c 0xca
 388.5 123.768775113 383.325962284 164.226030409 372.814268668 210.214689981 c 0
 351.812347864 302.098093496 324.07229296 404.375078976 302.818634729 496.695656916 c 0
 291.999634845 543.690687659 286.5 585.056790749 286.5 621 c 0
 286.5 663.623885273 288.749233179 699.810501108 301.025789427 729.538645926 c 1
 265.110168572 699.229225936 245.5 657.760158596 245.5 589 c 0xd4
 245.5 556.217736914 250.353841024 516.502016073 260.226324112 470.101345556 c 0
 280.327495085 375.625841988 307.683669841 270.166994481 327.254085082 172.967265453 c 0
 337.381944419 122.665564075 342.5 77.0404079993 342.5 36 c 0
 342.5 -17.1597641338 334.964845343 -55.8361474137 315.873606938 -85.7905064448 c 1
EndSplineSet
EndChar

StartChar: paragraph
Encoding: 182 182 95
Width: 548
Flags: W
HStem: -272.5 85<77.2871 172.323> 719.5 63<537.451 601.636>
LayerCount: 2
Fore
SplineSet
309.187691185 320.897009996 m 1
 300.526734125 319.959103542 292.363567945 319.5 283 319.5 c 0
 198.117232093 319.5 135.677757597 358.797296094 106.250233452 419.550894328 c 0
 94.9270922022 442.927702071 89.500000001 470.222759636 89.5 501 c 0
 89.5 597.080493884 131.923896425 665.252007663 188.841120629 709.378844405 c 0
 248.479803254 755.615575878 334.694745621 782.5 436 782.5 c 0
 496.73835147 782.5 557.476702941 782.5 618.215054411 782.5 c 1
 601.636107042 719.5 l 1
 592 719.5 l 2
 559.266114315 719.5 548.996419636 716.492983922 536.884046345 700.847835087 c 0
 530.315853312 692.363919087 523.130180837 677.684088936 516.376968301 657.102869776 c 0
 509.528635153 636.231759232 501.42338817 607.154823581 492.121055762 569.945493948 c 2
 366.11689125 69.9289681087 l 2
 348.682145478 1.53111930948 331.241311795 -54.3932611561 313.593521087 -98.1733573374 c 0
 295.951186339 -141.939918539 276.825765265 -176.829065115 255.709446859 -202.87252448 c 0
 219.350319844 -247.715447797 176.130244261 -272.5 104 -272.5 c 0
 50.5741137452 -272.5 -4.5 -241.057864631 -4.5 -184 c 0
 -4.5 -146.893872425 17.7968741802 -117.5 57 -117.5 c 0
 105.254114788 -117.5 112.303729969 -166.194424218 122.545768596 -182.289056347 c 0
 123.957401619 -184.507336811 127.581237426 -187.499999999 139 -187.5 c 0
 166.968120152 -187.5 187.229903317 -147.683070992 197.931905588 -109.739608394 c 2
 309.187691185 320.897009996 l 1
EndSplineSet
EndChar

StartChar: dagger
Encoding: 8224 8224 96
Width: 560
Flags: W
HStem: 416.5 149<102.771 216.366 441.484 552.676>
VStem: 91.6799 65.8942<-272.5 -203.607> 314.5 152<667.314 757.683>
LayerCount: 2
Fore
SplineSet
356.658301725 260.016857478 m 1
 278.503608077 106.653849448 208.769888853 -90.3326307273 157.574077858 -272.5 c 1
 91.679890396 -272.5 l 1
 95.9316545283 -256.743462333 l 2
 129.510614104 -132.303788611 157.884055257 18.769740399 173.577670039 158.891300956 c 0
 178.210144205 200.252677428 180.5 234.368823394 180.499999999 261 c 2
 180.499999999 265.815943305 l 1
 218.554478574 307.871279893 248.703255231 348.981596965 270.28774744 406.867280615 c 0
 275.592017219 421.092367752 281.495176109 438.519894604 286.50315971 454.486907255 c 1
 239.947500362 448.100276268 206.066280027 434.443615425 165.125092441 422.037194944 c 0
 152.983371107 418.35788545 140.561297388 416.500000001 128 416.5 c 0
 93.8159007398 416.5 67.5 440.38891557 67.5 475 c 0
 67.5 518.090815251 98.1548610161 545.250669233 126.386801199 557.906366557 c 0
 137.525507535 562.899579741 149.178720982 565.499999999 161 565.5 c 0
 189.652448412 565.5 207.70770854 554.392115311 225.704713087 547.080832214 c 0
 249.304557702 537.493395339 273.885029691 529.488117718 304.419134801 525.604042724 c 1
 311.323642097 555.592331877 314.5 580.080897005 314.5 612 c 0
 314.5 637.678119512 310.5 656.672875861 310.5 683 c 0
 310.5 729.770427251 333.75185849 766.067704013 366.766963503 783.107758213 c 0
 378.975541539 789.40895978 392.574645775 792.499999999 407 792.5 c 0
 441.084370391 792.5 466.5 769.522535944 466.5 735 c 0
 466.5 717.844445315 462.711103803 701.593393667 455.122718285 686.796041905 c 0
 427.979442843 633.866654792 394.439555639 589.930592316 372.858547265 526.674258874 c 1
 418.624492786 533.466994188 451.505084294 547.729525278 491.874907559 559.962805056 c 0
 504.016628893 563.64211455 516.438702612 565.499999999 529 565.5 c 0
 563.084370391 565.5 588.5 542.522535944 588.5 508 c 0
 588.5 465.935678517 558.955076054 436.798612902 530.613198801 424.093633443 c 0
 519.474492465 419.100420259 507.821279018 416.500000001 496 416.5 c 0
 467.482484326 416.5 448.609573238 426.401867024 429.989764575 434.548033314 c 0
 407.325346386 444.463716272 383.877102319 451.573614999 353.336846411 455.418067684 c 1
 342.22746943 411.967583115 337.5 379.887651838 337.5 352 c 0
 337.5 314.696898444 346.03138356 289.240882431 356.658301725 260.016857478 c 1
EndSplineSet
EndChar

StartChar: daggerdbl
Encoding: 8225 8225 97
Width: 595
Flags: W
HStem: -45.5 149<-0.0590796 108.448 337.347 450.229> 416.5 149<122.771 236.366 461.484 572.676>
VStem: 87.5 153<-237.007 -146.73> 334.5 152<667.314 757.683>
LayerCount: 2
Fore
SplineSet
217.5 170 m 0
 217.5 207.460408655 209.17759402 234.934429219 198.679704933 263.803624213 c 1
 237.359881193 306.55539798 268.337589551 348.000948094 290.28774744 406.867280615 c 0
 295.592017219 421.092367752 301.495176109 438.519894604 306.50315971 454.486907255 c 1
 259.947500362 448.100276268 226.066280027 434.443615425 185.125092441 422.037194944 c 0
 172.983371107 418.35788545 160.561297388 416.500000001 148 416.5 c 0
 113.81590074 416.5 87.5 440.38891557 87.5 475 c 0
 87.5 518.090815251 118.154861016 545.250669233 146.386801199 557.906366557 c 0
 157.525507535 562.899579741 169.178720982 565.499999999 181 565.5 c 0
 209.652448412 565.5 227.70770854 554.392115311 245.704713087 547.080832214 c 0
 269.304557702 537.493395339 293.885029691 529.488117718 324.419134801 525.604042724 c 1
 331.323642097 555.592331877 334.5 580.080897005 334.5 612 c 0
 334.5 637.678119512 330.5 656.672875861 330.5 683 c 0
 330.5 729.770427251 353.75185849 766.067704013 386.766963503 783.107758213 c 0
 398.975541539 789.40895978 412.574645775 792.499999999 427 792.5 c 0
 461.084370391 792.5 486.5 769.522535944 486.5 735 c 0
 486.5 717.844445315 482.711103803 701.593393667 475.122718285 686.796041905 c 0
 447.979442843 633.866654792 414.439555639 589.930592316 392.858547265 526.674258874 c 1
 438.624492786 533.466994188 471.505084294 547.729525278 511.874907559 559.962805056 c 0
 524.016628893 563.64211455 536.438702612 565.499999999 549 565.5 c 0
 583.084370391 565.5 608.5 542.522535944 608.5 508 c 0
 608.5 465.935678517 578.955076054 436.798612902 550.613198801 424.093633443 c 0
 539.474492465 419.100420259 527.821279018 416.500000001 516 416.5 c 0
 487.482484326 416.5 468.609573238 426.401867024 449.989764575 434.548033314 c 0
 427.325346386 444.463716272 403.877102319 451.573614999 373.336846411 455.418067684 c 1
 362.22746943 411.967583115 357.5 379.887651838 357.5 352 c 0
 357.5 313.860560601 366.560950576 287.784573144 377.395312426 257.990078048 c 1
 326.771421855 204.834992943 292.340661108 146.281043179 268.119292837 65.5288934493 c 1
 314.344298348 72.0744019663 347.543409198 85.7411388854 387.874907559 97.9628050554 c 0
 400.016628892 101.64211455 412.438702614 103.5 425 103.5 c 0
 459.18409926 103.5 485.5 79.6110844302 485.5 45 c 0
 485.5 1.9091847487 454.845138984 -25.2506692332 426.613198801 -37.9063665565 c 0
 415.474492466 -42.8995797409 403.821279016 -45.4999999999 392 -45.5 c 0
 363.423782196 -45.5 345.48339075 -35.5429281377 326.989764575 -27.4519666863 c 0
 303.729417876 -17.2755650057 280.293061946 -9.48565565813 249.602853339 -5.60132243992 c 1
 242.860451733 -35.4529506314 240.5 -58.6379944807 240.5 -91 c 0
 240.5 -117.976260323 243.5 -136.433195693 243.5 -163 c 0
 243.5 -209.605482442 220.25885739 -245.761942726 187.882352941 -263.029411765 c 0
 175.918484369 -269.410141669 162.421285777 -272.499999999 148 -272.5 c 0
 114.610154815 -272.5 87.5 -251.150572104 87.5 -216 c 0
 87.5 -198.25809316 91.2476125041 -181.553925275 98.8196601126 -166.409830056 c 0
 125.688767046 -112.67161619 160.358797689 -70.3849750955 181.429326313 -6.52480941195 c 1
 148.20964948 -11.1546079343 123.686872496 -18.6138660852 97.4528470752 -27.3585412256 c 2
 61.4528470752 -39.3585412256 l 2
 49.2291645374 -43.4331020716 24 -45.5 24 -45.5 c 1
 -8.90503900612 -45.5 -35.5 -23.4714789836 -35.5 11 c 0
 -35.5 53.340734868 -6.37988280881 83.010956484 22.3868011989 95.9063665565 c 0
 33.5255075332 100.899579741 45.1787209854 103.5 57 103.5 c 0
 85.7519111664 103.5 104.405892863 93.5576881256 123.381873086 85.5072722734 c 0
 147.175493056 75.4130092554 169.953855523 68.4095851402 201.581790443 64.5532558621 c 1
 212.308874627 107.33556952 216.88718408 165.940533178 217.5 170 c 0
EndSplineSet
EndChar

StartChar: dotaccent
Encoding: 729 729 98
Width: 164
Flags: W
HStem: 668.5 149<29.2683 134.732>
VStem: 7.5 149<690.268 795.732>
LayerCount: 2
Fore
SplineSet
82 668.5 m 0
 40.7155798418 668.5 7.5 701.71238705 7.5 743 c 0
 7.5 784.284420158 40.7123870494 817.5 82 817.5 c 0
 123.284420158 817.5 156.5 784.28761295 156.5 743 c 0
 156.5 701.715579842 123.28761295 668.5 82 668.5 c 0
EndSplineSet
EndChar

StartChar: dieresis
Encoding: 168 168 99
Width: 323
Flags: W
HStem: 638.5 141<35.739 117.309 202.739 284.309> 645.577 133.923<61.5218 125.352 228.522 292.352>
VStem: 4.5 145<669.289 747.952> 171.5 145<669.289 747.952>
LayerCount: 2
Fore
SplineSet
61 638.5 m 0xb0
 29.163440066 638.5 4.5 659.917407599 4.5 693 c 2
 4.5 700.5 l 2
 4.5 704.826722856 6.13022574557 710.247808022 7.07220855403 712.838260746 c 0
 16.0060425068 748.020883708 49.9562651868 779.5 92 779.5 c 0xb0
 124.749547814 779.5 149.5 757.237731957 149.5 724 c 0
 149.5 682.534047549 120.54098994 657.561470805 93.5767308257 645.577355642 c 0x70
 83.107165306 640.924215411 72.1340102669 638.5 61 638.5 c 0xb0
228 638.5 m 0
 196.163440066 638.5 171.5 659.917407599 171.5 693 c 2
 171.5 700.5 l 2
 171.5 704.826722852 173.13022575 710.247808034 174.072208552 712.838260739 c 0
 183.006042509 748.020883714 216.956265186 779.5 259 779.5 c 0xb0
 291.749547814 779.5 316.5 757.237731957 316.5 724 c 0
 316.5 682.534047549 287.54098994 657.561470805 260.576730826 645.577355642 c 0x70
 250.107165306 640.924215411 239.134010267 638.5 228 638.5 c 0
EndSplineSet
EndChar

StartChar: acute
Encoding: 180 180 100
Width: 275
Flags: W
HStem: 638.5 177
VStem: -12.1682 279.668
LayerCount: 2
Fore
SplineSet
218.190581124 815.5 m 0
 245.836609251 815.5 267.5 798.195708609 267.5 768 c 0
 267.5 730.806899656 230.717621392 714.495181906 209.283406096 704.671166562 c 0
 162.793919845 682.614111041 116.304433593 660.557055521 69.8149473416 638.5 c 1
 -12.1682050255 638.5 l 1
 39.07234334 685.404809609 90.3128931532 732.30961777 141.553442144 779.214426753 c 0
 166.706504824 802.271400877 192.601446383 815.5 218.190581124 815.5 c 0
EndSplineSet
EndChar

StartChar: grave
Encoding: 96 96 101
Width: 275
Flags: W
HStem: 638.5 177
VStem: 16.5 243.987
LayerCount: 2
Fore
SplineSet
16.5 760 m 0
 16.5 794.481347372 48.2707907831 815.5 78 815.5 c 0
 103.50548223 815.5 126.293954512 801.602764491 145.661821732 777.930926776 c 0
 183.936978102 731.453951184 222.212134472 684.976975592 260.487290842 638.5 c 1
 183.8086567 638.5 l 1
 143.19530432 660.683763907 102.581951937 682.867527812 61.9685995558 705.051291718 c 0
 45.8794152372 713.98972745 16.5 728.70238171 16.5 760 c 0
EndSplineSet
EndChar

StartChar: hungarumlaut
Encoding: 733 733 102
Width: 473
Flags: W
HStem: 638.5 177<192.601 245.837>
LayerCount: 2
Fore
SplineSet
218.190581124 815.5 m 0
 245.836609251 815.5 267.5 798.195708609 267.5 768 c 0
 267.5 730.806899656 230.717621392 714.495181906 209.283406096 704.671166562 c 0
 162.793919845 682.614111041 116.304433593 660.557055521 69.8149473416 638.5 c 1
 -12.1682050255 638.5 l 1
 39.07234334 685.404809609 90.3128931532 732.30961777 141.553442144 779.214426753 c 0
 166.706504824 802.271400877 192.601446383 815.5 218.190581124 815.5 c 0
416.190581124 815.5 m 0
 443.836609251 815.5 465.5 798.195708609 465.5 768 c 0
 465.5 730.806899656 428.717621392 714.495181906 407.283406096 704.671166562 c 0
 360.793919845 682.614111041 314.304433592 660.557055522 267.814947342 638.5 c 1
 185.831794975 638.5 l 1
 237.07234334 685.404809609 288.312893153 732.30961777 339.553442144 779.214426753 c 0
 364.706504824 802.271400877 390.601446383 815.5 416.190581124 815.5 c 0
EndSplineSet
EndChar

StartChar: tilde
Encoding: 732 732 103
Width: 381
Flags: W
HStem: 639.5 101<215.312 311.56> 687.5 99<69.1077 171.056>
LayerCount: 2
Fore
SplineSet
284 740.5 m 0x80
 307.050983836 740.5 310.925470425 756.829457395 318.738244261 782.5 c 1
 374.812344526 782.5 l 1
 373.437964878 768.756203512 l 2
 367.527273688 709.649291619 328.72041529 639.5 262 639.5 c 0x80
 251.029520794 639.5 239.319332905 641.625397997 226.75216754 645.575078539 c 0
 206.557263911 651.922048251 141.908315112 677.607730738 122.654451703 682.95602613 c 0
 111.33943822 686.09908543 102.28775646 687.5 95.9999999992 687.5 c 0
 73.6796036073 687.5 71.0797821612 672.452899718 63.1402231598 647.5 c 1
 5.38636323614 647.5 l 1
 7.65100592015 661.937097111 l 2
 16.878134786 720.76004363 56.043763782 786.5 125 786.5 c 0x40
 175.339201722 786.5 225.870308071 754.11830765 258.985127436 744.504327834 c 0
 268.425553023 741.763559115 276.777709007 740.5 284 740.5 c 0x80
EndSplineSet
EndChar

StartChar: asciitilde
Encoding: 126 126 104
Width: 533
Flags: W
HStem: 228.5 101<290.351 406.702> 276.5 99<120.196 245.899>
LayerCount: 2
Fore
SplineSet
380 329.5 m 0x80
 402.512724822 329.5 405.891291146 345.717154048 413.738244261 371.5 c 1
 469.812344526 371.5 l 1
 468.437964878 357.756203512 l 2
 462.745910538 300.83566011 422.254969842 228.5 359 228.5 c 0x80
 345.728097884 228.5 331.275122573 230.50915357 315.531836369 234.357512419 c 0
 274.375314269 244.417995599 206.113550908 270.282786093 161.039484405 275.585617446 c 0
 155.824646658 276.199127769 150.812391372 276.5 146.000000001 276.5 c 0
 124.593639934 276.5 120.87964964 260.823911797 113.14022316 236.5 c 1
 55.3410110988 236.5 l 1
 57.656992101 250.974881264 l 2
 66.8127207871 308.198185552 106.24280619 375.5 174 375.5 c 0x40
 233.661170249 375.5 295.341313333 346.196730842 345.895256591 334.160077684 c 0
 359.202603076 330.991661854 370.631161343 329.500000001 380 329.5 c 0x80
EndSplineSet
EndChar

StartChar: breve
Encoding: 728 728 105
Width: 316
Flags: W
HStem: 633.5 94<97.6281 225.5>
VStem: 20.5 309.467
LayerCount: 2
Fore
SplineSet
20.5 744 m 0
 20.5 760.056300424 23.8162020306 775.073803542 27.3965210858 788.5 c 1
 84.6389900425 788.5 l 1
 85.4682337479 776.890588125 l 2
 87.6804038758 745.920206335 115.804332322 727.5 158 727.5 c 0
 207.311208383 727.5 247.855696349 751.942024073 265.146960723 782.201736729 c 2
 268.745968307 788.5 l 1
 329.967436595 788.5 l 1
 324.93830171 772.295009814 l 2
 306.029203534 711.365693467 257.482199201 664.233299922 199.148827645 643.708595114 c 0
 179.870101776 636.925339717 160.085353493 633.500000001 140 633.5 c 0
 71.507928189 633.5 20.5 675.022059539 20.5 744 c 0
EndSplineSet
EndChar

StartChar: ring
Encoding: 730 730 106
Width: 214
Flags: W
HStem: 643.5 65<71.0716 132.372> 775.5 67<79.5108 140.483>
VStem: 3.5 67<709.09 766.186> 141.5 68<716.953 774.971>
LayerCount: 2
Fore
SplineSet
82 643.5 m 0
 36.8131045553 643.5 3.5 672.008048539 3.5 718 c 0
 3.5 774.137960952 41.8544127302 814.050976055 80.2442373404 831.841382582 c 0
 95.5417502593 838.930473934 111.93547743 842.499999999 129 842.5 c 0
 174.553479571 842.5 209.5 814.744010028 209.5 768 c 0
 209.5 709.31261457 170.64198537 670.96125604 129.923991232 653.510687125 c 0
 114.466436462 646.886020794 98.3832516696 643.5 82 643.5 c 0
141.5 756 m 0
 141.5 767.875196365 133.807275844 775.5 119 775.5 c 0
 94.760738061 775.5 70.5 753.590229779 70.5 730 c 0
 70.5 716.688425694 78.8896062559 708.5 95 708.5 c 0
 118.235458427 708.5 141.5 731.572835276 141.5 756 c 0
EndSplineSet
EndChar

StartChar: macron
Encoding: 175 175 107
Width: 310
Flags: W
HStem: 689.5 75<16.3344 292.666>
VStem: -3.16559 315.331
LayerCount: 2
Fore
SplineSet
-3.16559135309 689.5 m 1
 16.3344086469 764.5 l 1
 312.165591353 764.5 l 1
 292.665591353 689.5 l 1
 -3.16559135309 689.5 l 1
EndSplineSet
EndChar

StartChar: circumflex
Encoding: 710 710 108
Width: 368
Flags: W
HStem: 638.5 154
LayerCount: 2
Fore
SplineSet
252.776966989 792.5 m 1
 353.056036757 638.5 l 1
 281.184199151 638.5 l 1
 248.471991536 660.524060572 215.759783921 682.548121145 183.047576306 704.572181717 c 1
 138.675571917 682.548121145 94.3035675283 660.524060573 49.9315631398 638.5 c 1
 -32.3886160317 638.5 l 1
 151.456345209 792.5 l 1
 252.776966989 792.5 l 1
EndSplineSet
EndChar

StartChar: asciicircum
Encoding: 94 94 109
Width: 481
Flags: W
HStem: 217.5 204
LayerCount: 2
Fore
SplineSet
323.44537806 421.5 m 1
 405.501243982 217.5 l 1
 335.728755988 217.5 l 1
 307.701699033 255.081735459 279.67464208 292.663470922 251.647585126 330.245206382 c 1
 203.874192591 292.663470921 156.100800057 255.081735461 108.327407522 217.5 c 1
 31.4772281707 217.5 l 1
 219.521920908 421.5 l 1
 323.44537806 421.5 l 1
EndSplineSet
EndChar

StartChar: caron
Encoding: 711 711 110
Width: 368
Flags: W
HStem: 638.5 154
LayerCount: 2
Fore
SplineSet
114.223033011 638.5 m 1
 13.9439632434 792.5 l 1
 85.8158008491 792.5 l 1
 118.528008464 770.475939428 151.240216079 748.451878855 183.952423694 726.427818283 c 1
 228.324428083 748.451878855 272.696432472 770.475939427 317.06843686 792.5 c 1
 399.388616032 792.5 l 1
 215.543654791 638.5 l 1
 114.223033011 638.5 l 1
EndSplineSet
EndChar

StartChar: caron.alt
Encoding: 65539 -1 111
Width: 162
Flags: W
HStem: 567.833 224.667
VStem: 17.5 146<673.406 763.689>
LayerCount: 2
Fore
SplineSet
17.5 711 m 0
 17.5 758.050832852 60.1461862057 792.5 105 792.5 c 0
 141.756732575 792.5 163.5 770.0055727 163.5 733 c 0
 163.5 702.007028513 152.592859933 672.910785122 131.786964957 646.724055239 c 0
 110.494673168 619.925136263 74.8491487172 595.756881303 25.2775692393 572.668748396 c 2
 14.8957959748 567.833401944 l 1
 -12.5267530643 615.365820278 l 1
 -0.474617791113 621.23737336 l 2
 31.3422237696 636.737885916 50.6351207624 648.0367592 66.4226458685 667.567102364 c 1
 63.7674477156 667.481794793 64.3756224566 667.5 63 667.5 c 0
 35.7260733109 667.5 17.5 683.845630555 17.5 711 c 0
EndSplineSet
EndChar

StartChar: apostrophe
Encoding: 700 700 112
Width: 194
Flags: W
HStem: 598.5 244<72.3255 99.1403>
VStem: 53.2344 120.266<730.672 822.961>
LayerCount: 2
Fore
SplineSet
126 842.5 m 0
 154.430728176 842.5 173.5 822.966083098 173.5 795 c 0
 173.5 775.251023677 167.547410041 764.023927874 159.349492306 746.261772782 c 0
 137.754501208 699.472625403 110.409461461 645.55635547 90.2424519747 598.5 c 1
 39.5015338361 598.5 l 1
 40.5368189312 611.958706236 l 2
 44.9431174186 669.240586571 43.4557525102 725.627163112 53.2343897435 775.4093163 c 0
 60.5709206342 812.758928108 78.0345477575 842.5 126 842.5 c 0
EndSplineSet
EndChar

StartChar: cedilla
Encoding: 184 184 113
Width: 232
Flags: W
HStem: -272.5 68<68.3897 131.411>
VStem: -23.5 90.0371<-202.113 -147.579> 142.5 110<-193.244 -129.601>
LayerCount: 2
Fore
SplineSet
88.0000000004 -125.5 m 0
 77.7341186628 -125.5 61.4410464831 -126.059339487 55.4514516892 -127.257258446 c 2
 44.6309618849 -129.421356407 l 1
 38.1764547885 -110.057835118 l 1
 130.413680474 24.5 l 1
 212.89581873 24.5 l 1
 194.724562862 -3.76639801543 176.553306995 -32.0327960321 158.382051127 -60.2991940482 c 1
 206.630131602 -64.1387223084 252.5 -82.2395058281 252.5 -135 c 0
 252.5 -180.097453975 226.00867693 -212.440197397 200.2529448 -232.805194895 c 0
 173.358219975 -254.070791268 133.404882021 -272.5 88 -272.5 c 0
 38.9061175297 -272.5 -23.5 -252.648132088 -23.5 -197 c 0
 -23.5 -167.035160693 -3.63731335978 -135.5 30 -135.5 c 0
 59.615227618 -135.5 63.835090509 -169.479769726 66.5370502464 -179.129625931 c 0
 71.407668232 -196.524690165 75.2603299371 -204.5 90 -204.5 c 0
 116.634278289 -204.5 142.5 -180.537658331 142.5 -154 c 0
 142.5 -137.203916812 131.474758597 -125.5 88.0000000004 -125.5 c 0
EndSplineSet
EndChar

StartChar: ogonek
Encoding: 731 731 114
Width: 265
Flags: W
HStem: -246.5 85<64.5995 183.13>
VStem: -12.5 104<-157.871 -77.4918>
LayerCount: 2
Fore
SplineSet
91.5 -126 m 0
 91.5 -145.198900207 108.886833691 -161.5 130 -161.5 c 0
 139.70102336 -161.5 152.498202347 -157.904898089 168.060638566 -149.501182529 c 0
 183.369166942 -141.234577206 199.473830049 -128.848500421 216.161165235 -112.161165234 c 2
 225.299536925 -103.022793544 l 1
 270.404599687 -151.238550289 l 1
 263.880188152 -159.657145818 l 2
 227.8632542 -206.130608981 173.153610584 -246.5 97 -246.5 c 0
 34.6523571209 -246.5 -12.5 -213.107827968 -12.5 -149 c 0
 -12.5 -113.411847244 2.23696941358 -80.3665777177 29.891058848 -50.9397902427 c 0
 57.9757878338 -21.0547581168 98.3491225906 3.46192292477 146.624246603 22.5 c 1
 214.5 22.5 l 1
 214.5 -1.85492968864 l 1
 179.440868961 -18.7352520415 146.708574218 -40.5000174526 122.594867577 -66.0751608586 c 0
 106.304802538 -83.3525025674 91.5 -103.017561542 91.5 -126 c 0
EndSplineSet
EndChar

StartChar: commaaccent
Encoding: 63171 63171 115
Width: 162
Flags: W
HStem: -275.81 224.31
VStem: 7.5 147<-164.228 -74.913>
LayerCount: 2
Fore
SplineSet
79 -51.5 m 0
 131.772201794 -51.5 154.5 -93.8750492957 154.5 -143 c 0
 154.5 -167.234737314 146.181411595 -190.213093965 130.478952448 -211.027981671 c 0
 114.595566119 -232.082703085 87.7927696965 -252.112114983 53.4942801656 -270.70002516 c 2
 44.0036092929 -275.810386398 l 1
 5.65601646491 -230.490503965 l 1
 18.9022330291 -223.088206473 l 2
 46.6775190767 -207.566723093 62.961488623 -196.690339046 73.0633084137 -175.928073488 c 1
 68.2121001349 -176.493262802 67.288377901 -176.5 64 -176.5 c 0
 29.5327586308 -176.5 7.5 -149.903156168 7.5 -117 c 0
 7.5 -76.929025311 40.9724894451 -51.5 79 -51.5 c 0
EndSplineSet
EndChar

StartChar: dotbelow
Encoding: 65540 -1 116
Width: 164
Flags: W
HStem: -242.5 149<29.2683 134.732>
VStem: 7.5 149<-220.732 -115.268>
LayerCount: 2
Fore
SplineSet
82 -242.5 m 0
 40.7155798418 -242.5 7.5 -209.28761295 7.5 -168 c 0
 7.5 -126.715579842 40.7123870494 -93.5 82 -93.5 c 0
 123.284420158 -93.5 156.5 -126.71238705 156.5 -168 c 0
 156.5 -209.284420158 123.28761295 -242.5 82 -242.5 c 0
EndSplineSet
EndChar

StartChar: aacute
Encoding: 225 225 118
Width: 620
Flags: W
HStem: -10 96<92.1031 218.244> 463 77<298.128 389.388>
VStem: 10 120<93.7608 247.978>
LayerCount: 2
Fore
SplineSet
436.916398518 766.71484375 m 0
 464.093183967 789.771484375 490.1015625 803 515.690429688 803 c 0
 543.336914062 803 565 785.6953125 565 755.5 c 0
 565 718.306640625 528.217773438 701.995117188 506.783203125 692.170898438 c 0
 457.650492686 670.120276338 408.56804296 648.019393523 359.404103944 626 c 1
 270.822091395 626 l 1
 326.185936462 672.905871891 381.551717372 719.809807938 436.916398518 766.71484375 c 0
EndSplineSet
Refer: 472 97 S 1 0 0 1 0 0 3
EndChar

StartChar: agrave
Encoding: 224 224 119
Width: 620
Flags: W
HStem: -10 96<92.1031 218.244> 463 77<298.128 389.388> 692.552 110.448<268.761 345.5>
VStem: 10 120<93.7608 247.978>
LayerCount: 2
Fore
SplineSet
440.962949698 146.884765625 m 1024
302.303943028 692.551757812 m 0
 284.920127984 701.489257812 253.175540695 716.202148438 253.175540695 747.5 c 0
 253.175540695 781.981445312 287.503167694 803 319.625503438 803 c 0
 347.184257994 803 371.806493141 789.102539062 392.73354648 765.430664062 c 0
 432.729476173 718.865119665 473.792856644 673.367026046 512.987304688 626 c 1
 433.950334537 626 l 1
 390.068787636 648.184502873 346.18596839 670.367733401 302.303943028 692.551757812 c 0
EndSplineSet
Refer: 472 97 S 1 0 0 1 0 0 3
EndChar

StartChar: atilde
Encoding: 227 227 120
Width: 620
Flags: W
HStem: -10 96<92.1031 218.244> 463 77<298.128 389.388> 627 101<428.609 528.061> 675 99<270.953 380.931>
VStem: 10 120<93.7608 247.978>
LayerCount: 2
Fore
SplineSet
500.5 728 m 0xe8
 523.549867728 728 527.426372442 744.329066053 535.23828125 770 c 1
 591.3125 770 l 1
 589.9375 756.255859375 l 2
 584.02734375 697.149414062 545.220703125 627 478.5 627 c 0xe8
 467.230288527 627 454.594821884 629.125 441.034166373 633.075195312 c 0
 419.243755673 639.421875 349.484725798 665.107421875 328.709072364 670.456054688 c 0
 316.500372796 673.598632812 306.733202392 675 299.94813278 675 c 0
 275.909769353 675 273.144528493 660.210385522 264.491691983 635 c 1
 202.173161647 635 l 1
 204.616798303 649.4375 l 2
 214.572589216 708.259765625 256.834120797 774 331.240169927 774 c 0xd8
 385.557607925 774 440.082633859 741.618164062 475.485351562 732.00390625 c 0
 484.92578125 729.263671875 493.27734375 728 500.5 728 c 0xe8
EndSplineSet
Refer: 472 97 S 1 0 0 1 0 0 3
EndChar

StartChar: abreve
Encoding: 259 259 121
Width: 620
Flags: W
HStem: -10 96<92.1031 218.244> 463 77<298.128 389.388> 621 94<337.592 474.196> 756 20G<259.783 324.453 514.646 579.468>
VStem: 10 120<93.7608 247.978>
LayerCount: 2
Fore
SplineSet
254.256027894 731.5 m 0
 254.256027894 747.596401314 257.859033778 762.643682468 261.70759098 776 c 1
 323.557041821 776 l 1
 324.452875446 764.390625 l 2
 326.843875439 733.419921875 357.23152275 715 402.823017767 715 c 0
 456.103487608 715 497.35546875 739.442382812 514.646484375 769.702148438 c 2
 518.24609375 776 l 1
 579.467773438 776 l 1
 574.438476562 759.794921875 l 2
 555.529296875 698.865234375 506.982421875 651.733398438 447.283377748 631.208984375 c 0
 426.45339943 624.42578125 405.07579137 621 383.374248184 621 c 0
 309.369316353 621 254.256027894 662.522460938 254.256027894 731.5 c 0
EndSplineSet
Refer: 472 97 S 1 0 0 1 0 0 3
EndChar

StartChar: aring
Encoding: 229 229 122
Width: 620
Flags: W
HStem: -10 96<92.1031 218.244> 463 77<298.128 389.388> 631 65<365.083 431.305> 763 67<374.202 441.042>
VStem: 10 120<93.7608 247.978> 292.073 72.3926<696.649 753.008> 441.18 69.8197<706.212 762.429>
LayerCount: 2
Fore
SplineSet
428.672407809 641.010742188 m 0
 411.971283408 634.385742188 394.59274418 631 376.891324989 631 c 0
 328.067864844 631 292.073079862 659.5078125 292.073079862 705.5 c 0
 292.073079862 761.637695312 333.514617697 801.55078125 374.994141411 819.341796875 c 0
 391.523274198 826.430664062 409.236300185 830 427.674223346 830 c 0
 476.053710938 830 511 802.244140625 511 755.5 c 0
 511 696.8125 472.141601562 658.4609375 428.672407809 641.010742188 c 0
390.937658577 696 m 0
 416.043158506 696 441.180313334 719.073242188 441.180313334 743.5 c 0
 441.180313334 755.375 432.868792175 763 416.869351355 763 c 0
 390.679143573 763 364.4657222 741.08984375 364.4657222 717.5 c 0
 364.4657222 704.188476562 373.530629941 696 390.937658577 696 c 0
EndSplineSet
Refer: 472 97 S 1 0 0 1 0 0 3
EndChar

StartChar: amacron
Encoding: 257 257 123
Width: 620
Flags: W
HStem: -10 96<92.1031 218.244> 463 77<298.128 389.388> 677 75<251.35 545.166>
VStem: 10 120<93.7608 247.978>
LayerCount: 2
Fore
SplineSet
231.926662555 677 m 1
 238.950804724 701.999265166 245.974266983 726.999103034 252.996162937 752 c 1
 564.666015625 752 l 1
 545.166015625 677 l 1
 231.926662555 677 l 1
EndSplineSet
Refer: 472 97 N 1 0 0 1 0 0 3
EndChar

StartChar: acircumflex
Encoding: 226 226 124
Width: 620
Flags: W
HStem: -10 96<92.1031 218.244> 463 77<298.128 389.388> 760 20G<334.557 490.893>
VStem: 10 120<93.7608 247.978>
LayerCount: 2
Fore
SplineSet
476.27734375 780 m 1
 505.509149834 735.106480563 534.742298297 690.214303505 563.974609375 645.321289062 c 2
 576.555664062 626 l 1
 504.684570312 626 l 1
 470.513269994 648.149567138 436.068181474 670.025346074 401.794233569 692.072265625 c 1
 353.850852341 670.048104342 305.90689506 648.024519112 257.963871661 626 c 1
 169.017827781 626 l 1
 235.232599995 677.332430025 301.453298596 728.657191573 367.659701449 780 c 1
 476.27734375 780 l 1
EndSplineSet
Refer: 472 97 S 1 0 0 1 0 0 3
EndChar

StartChar: aogonek
Encoding: 261 261 125
Width: 620
Flags: W
HStem: -234 85<271.654 399.666> -10 96<87.7237 218.245> 463 77<297.648 389.375>
VStem: 10 120<93.7608 247.978> 188.347 112.372<-143.527 -67.0583>
LayerCount: 2
Fore
SplineSet
188.347238164 -136.5 m 0
 188.347238164 -57.7349298797 261.671367379 -7.70310107246 324.543552885 20.701171875 c 1
 316.377514181 36.5390625 313.685749776 54.228515625 313.685749776 77.5 c 0
 313.685749776 81.873046875 313.743784681 86.052734375 313.834530168 89.875 c 1
 282.000802084 49.603515625 241.469224531 17.5693359375 190.281383266 0.2587890625 c 0
 170.244568569 -6.5166015625 150.268954317 -10 130.540252205 -10 c 0
 44.9072265625 -10 10 61.59765625 10 140.65234375 c 0
 10 246.7421875 64.345703125 344.083984375 116.673828125 407.73828125 c 0
 149.514500554 445.918945312 187.293113256 477.435546875 228.91469184 502.108398438 c 0
 270.897142014 526.99609375 313.164490812 540 355.285169578 540 c 0
 401.718369365 540 431.232811616 521.274414062 448.997823583 493.713867188 c 1
 453.898785196 505.809242962 458.799414547 517.904950999 463.700702933 530 c 1
 573.49609375 530 l 1
 552.405113471 476.409665175 531.313080952 422.82038259 510.221679688 369.23046875 c 0
 484.056640625 302.00390625 456.508595451 221.766601562 440.96790311 146.884765625 c 0
 437.348962818 129.451068644 435.051738895 114.865650089 435.051738895 104.630830343 c 0
 435.051738895 94.3686517824 437.361260705 88.4803623892 442.96365573 88.4803623892 c 0
 449.134127204 88.4803623892 459.299115479 95.6233251956 474.772460938 111.932617188 c 4
 491.965820312 130.748046875 511.543945312 155.3984375 533.34375 185.786132812 c 2
 541.057617188 196.540039062 l 1
 553.157499513 186.769153158 565.255625907 176.996511323 577.354492188 167.224609375 c 2
 585.541992188 160.610351562 l 1
 580.419921875 151.416015625 l 2
 553.90234375 103.821289062 524.776367188 65.9580078125 492.702148438 38.0673828125 c 0
 461.302278593 11.0380859375 427.287493265 -4.7919921875 393.280094199 -8.63671875 c 1
 364.769128212 -25.3095703125 342.933231464 -42.853515625 325.788665389 -62.3828125 c 0
 308.11861963 -82.509765625 300.719696851 -99.619140625 300.719696851 -113.5 c 0
 300.719696851 -132.69921875 319.506123143 -149 342.319116653 -149 c 0
 352.80127565 -149 366.628355528 -145.405273438 383.443705415 -137.000976562 c 0
 399.98470848 -128.734375 417.385683316 -116.348632812 435.416600666 -99.6611328125 c 2
 445.290975932 -90.5224609375 l 1
 458.711293641 -103.693953334 471.502142216 -117.494914866 484.627929688 -130.9609375 c 2
 491.904296875 -138.73828125 l 1
 485.379882812 -147.157226562 l 1
 448.060823664 -193.630859375 388.946469576 -234 306.662471108 -234 c 0
 239.295553549 -234 188.347238164 -200.607421875 188.347238164 -136.5 c 0
356.729711119 282.467773438 m 0
 375.155265821 323.948242188 392.562571739 373.486328125 392.562571739 422.205078125 c 0
 392.562571739 448.743164062 381.244710111 463 361.768196041 463 c 0
 338.717787011 463 313.472603398 453.801757812 285.77940198 433.029296875 c 0
 228.696269562 390.212890625 180.394345838 321.163085938 151.943525117 250.024414062 c 0
 137.206880003 213.173828125 130 179.291015625 130 148.364257812 c 0
 130 110.788085938 146.60431387 86 177.001941854 86 c 0
 189.837152449 86 204.349044204 90.4638671875 220.832012363 101.049804688 c 0
 280.465515055 139.3515625 325.841424393 212.932617188 356.729711119 282.467773438 c 0
EndSplineSet
EndChar

StartChar: cacute
Encoding: 263 263 127
Width: 491
Flags: W
HStem: -10 84<163.755 268.713> 468 72<285.774 389.449>
VStem: 14 131.244<91.6122 272.571>
LayerCount: 2
Fore
SplineSet
415.488474335 766.71484375 m 1
 441.206054688 789.771484375 467.1015625 803 492.690429688 803 c 0
 520.336914062 803 542 785.6953125 542 755.5 c 0
 542 718.306640625 505.217773438 701.995117188 483.783203125 692.170898438 c 0
 434.821087512 670.125301806 385.949038961 647.989638112 336.930964829 626 c 1
 247.154467681 626 l 1
 303.264873584 672.905877565 359.377227219 719.809807398 415.488474335 766.71484375 c 1
EndSplineSet
Refer: 14 99 S 1 0 0 1 0 0 3
EndChar

StartChar: ccircumflex
Encoding: 265 265 128
Width: 491
Flags: W
HStem: -10 84<163.755 268.713> 468 72<285.774 389.449> 760 20G<311.099 467.893>
VStem: 14 131.244<91.6122 272.571>
LayerCount: 2
Fore
SplineSet
453.27734375 780 m 1
 482.509149834 735.106480563 511.742298297 690.214303505 540.974609375 645.321289062 c 2
 553.555664062 626 l 1
 481.684570312 626 l 1
 447.574796592 648.144395139 413.202520006 670.026287413 378.994329359 692.072265625 c 1
 330.581979167 670.04810412 282.169051161 648.024520429 233.757059893 626 c 1
 143.940971192 626 l 1
 210.803430943 677.332425059 277.671801589 728.657125222 344.525902986 780 c 1
 453.27734375 780 l 1
EndSplineSet
Refer: 14 99 S 1 0 0 1 0 0 3
EndChar

StartChar: ccaron
Encoding: 269 269 129
Width: 491
Flags: W
HStem: -10 84<163.755 268.713> 468 72<285.774 389.449> 760 20G<193.764 288.865 514.942 599.889>
VStem: 14 131.244<91.6122 272.571>
LayerCount: 2
Fore
SplineSet
301.854796607 626 m 1
 270.345560483 670.893547627 238.834920526 715.785691422 207.32515629 760.678710938 c 2
 193.763928743 780 l 1
 271.234401659 780 l 1
 306.496137188 757.976841309 341.755843892 735.951653792 377.016818695 713.927734375 c 1
 514.942382812 778.696289062 l 1
 517.568359375 780 l 1
 599.888671875 780 l 1
 538.848775676 728.990869199 476.442006367 679.348611508 414.823622125 628.91796875 c 1
 411.069889498 626 l 1
 301.854796607 626 l 1
EndSplineSet
Refer: 14 99 S 1 0 0 1 0 0 3
EndChar

StartChar: ccedilla
Encoding: 231 231 130
Width: 491
Flags: W
HStem: -260 68<106.89 174.539> 468 72<287.003 389.449>
VStem: 14 131.244<87.8984 273.279> 15 90.0371<-189.613 -135.079> 186.846 123.682<-179.187 -117.424>
LayerCount: 2
Fore
SplineSet
164.366993159 267.225585938 m 0xe8
 151.593662547 229.938476562 145.243781095 192.939453125 145.243781095 156.119140625 c 0xe8
 145.243781095 105.233398438 165.926189366 70.1982421875 209.895522388 70.1982421875 c 0
 239.27648865 70.1982421875 264.692484841 86.22265625 287.217379897 102.864257812 c 0
 317.431747512 125.188476562 344.592506219 155.879882812 364.397460938 189.104492188 c 1
 370.385742188 200.095703125 l 1
 385.824312139 191.719494431 401.263340799 183.343744444 416.702148438 174.967773438 c 2
 426.96875 169.3984375 l 1
 421.680664062 159.356445312 l 2
 384.814453125 89.35546875 327.65546292 22.5400390625 238.045602068 -1.1455078125 c 1
 204.599745414 -47.7939453125 l 1
 257.334615983 -51.3310546875 310.527363184 -69.3583984375 310.527363184 -122.5 c 0
 310.527363184 -167.59765625 280.741225513 -199.940429688 251.781901042 -220.305664062 c 0
 221.54227884 -241.5703125 176.619859686 -260 126.5 -260 c 0
 77.40625 -260 15 -240.1484375 15 -184.5 c 0
 15 -154.53515625 34.8623046875 -123 68.5 -123 c 0
 98.115234375 -123 102.334960938 -156.979492188 105.037109375 -166.629882812 c 0xd8
 109.907226562 -184.024414062 113.760742188 -192 128.5 -192 c 0
 157.763467817 -192 186.845771144 -168.038085938 186.845771144 -141.5 c 0
 186.845771144 -124.704101562 174.449063277 -113 126.5 -113 c 0
 116.234375 -113 99.94140625 -113.559570312 93.951171875 -114.756835938 c 2
 83.130859375 -116.920898438 l 1
 76.6748046875 -97.5537109375 l 1
 97.4669086549 -67.4340083778 118.347975096 -37.4032682912 139.173896144 -7.3173828125 c 1
 58.78515625 7.3037109375 14 73.2666015625 14 157.951171875 c 0
 14 225.76953125 37.7197265625 286.62890625 63.3720703125 334.576171875 c 0
 105.338867188 413.01953125 174.836666278 486.18359375 271.006131452 523.159179688 c 0
 299.899574394 534.268554688 328.718351601 540 357.189054726 540 c 0
 420.116210938 540 480 501.727539062 480 436.5 c 0
 480 398.838867188 454.594726562 368 415.5 368 c 0
 379.811523438 368 349.880597015 394.448242188 349.880597015 430.5 c 0
 349.880597015 450.390625 358.666997046 460.984375 358.878915967 466.315429688 c 0
 356.849764848 467.157226562 352.907853312 468 345.945273632 468 c 0
 325.816270211 468 304.013875933 460.090820312 280.081312189 441.666015625 c 0
 228.435682914 401.905273438 188.164499767 336.694335938 164.366993159 267.225585938 c 0xe8
EndSplineSet
EndChar

StartChar: dcaron
Encoding: 271 271 132
Width: 648
Flags: W
HStem: -10 90<110.099 233.314> -10 105.886<402.72 507.113> 462 78<296.945 393.107> 760 20G<722.073 762.878> 765 65<424.36 507.587>
VStem: 11 122.134<91.3273 248.005> 655.767 147.233<660.906 750.698>
LayerCount: 2
Fore
SplineSet
702.5 655 m 0x36
 674.856780716 655 655.766603416 671.345703125 655.766603416 698.5 c 0
 655.766603416 745.55078125 699.646484375 780 744.5 780 c 0
 781.256835938 780 803 757.505859375 803 720.5 c 0
 803 689.506835938 792.092773438 660.411132812 771.287109375 634.223632812 c 0
 749.995117188 607.424804688 714.349609375 583.256835938 663.912891366 560.168945312 c 2
 653.038558468 555.333007812 l 1
 645.80414324 567.307460217 638.568157811 579.28034242 631.332854009 591.25390625 c 2
 624.315835508 602.866210938 l 1
 636.939308586 608.737304688 l 2
 670.283218994 624.246378692 689.925973367 635.274068286 705.922851562 655.067382812 c 1
 703.267578125 654.981445312 703.875976562 655 702.5 655 c 0x36
EndSplineSet
Refer: 10 100 S 1 0 0 1 0 0 2
EndChar

